<?xml version="1.0" encoding="UTF-8" ?>
<!DOCTYPE svg PUBLIC "-//W3C//DTD SVG 1.1//EN" "http://www.w3.org/Graphics/SVG/1.1/DTD/svg11.dtd">
<svg width="518pt" height="458pt" viewBox="0 0 518 458" version="1.1" xmlns="http://www.w3.org/2000/svg">
<g id="#ffffffff">
<path fill="#ffffff" opacity="1.00" d=" M 0.00 0.00 L 8.13 0.00 C 6.51 0.69 5.03 1.65 3.67 2.76 C 2.40 3.78 1.17 4.84 0.00 5.98 L 0.00 0.00 Z" />
<path fill="#ffffff" opacity="1.00" d=" M 31.63 352.23 C 42.07 351.31 52.57 351.98 63.03 351.71 C 206.76 351.55 350.49 351.59 494.21 351.57 C 494.42 351.82 494.82 352.31 495.03 352.56 C 479.70 352.98 464.36 352.68 449.03 352.76 C 313.03 352.83 177.04 352.58 41.05 352.87 C 37.89 352.94 34.73 352.84 31.63 352.23 Z" />
<path fill="#ffffff" opacity="1.00" d=" M 6.32 411.00 C 6.59 403.68 5.74 396.30 6.84 389.04 C 6.59 397.69 6.79 406.35 6.71 415.01 C 6.50 418.72 7.99 422.27 7.69 425.99 C 7.39 436.65 8.03 447.35 7.40 458.00 L 6.37 458.00 C 6.34 442.33 6.63 426.66 6.32 411.00 Z" />
</g>
<g id="#666666ff">
<path fill="#666666" opacity="1.00" d=" M 8.13 0.00 L 368.53 0.00 C 373.62 1.25 378.89 0.64 384.07 0.76 C 389.55 0.67 395.11 1.31 400.49 0.00 L 510.88 0.00 C 512.30 0.27 513.68 0.76 514.96 1.50 C 513.61 2.84 511.85 3.44 509.98 3.32 C 343.65 3.26 177.32 3.30 10.99 3.39 C 8.53 3.35 6.09 3.08 3.67 2.76 C 5.03 1.65 6.51 0.69 8.13 0.00 Z" />
</g>
<g id="#7e7e7eff">
<path fill="#7e7e7e" opacity="1.00" d=" M 368.53 0.00 L 400.49 0.00 C 395.11 1.31 389.55 0.67 384.07 0.76 C 378.89 0.64 373.62 1.25 368.53 0.00 Z" />
</g>
<g id="#f0f0f0ff">
<path fill="#f0f0f0" opacity="1.00" d=" M 510.88 0.00 L 518.00 0.00 L 518.00 3.64 C 516.99 2.90 516.00 2.17 514.96 1.50 C 513.68 0.76 512.30 0.27 510.88 0.00 Z" />
<path fill="#f0f0f0" opacity="1.00" d=" M 0.00 155.53 C 0.16 156.05 0.47 157.11 0.62 157.63 C 0.64 164.66 0.70 171.68 1.35 178.68 C 0.11 185.06 1.11 191.55 1.09 197.99 C 1.31 205.34 1.17 212.69 0.98 220.03 C 1.32 229.66 1.47 239.29 1.47 248.92 L 0.00 249.00 L 0.00 155.53 Z" />
</g>
<g id="#171717ff">
<path fill="#171717" opacity="1.00" d=" M 514.96 1.50 C 516.00 2.17 516.99 2.90 518.00 3.64 L 518.00 7.10 C 513.99 7.42 509.96 7.52 505.95 7.44 C 338.30 7.38 170.65 7.44 3.01 7.35 C 2.07 7.50 1.20 7.85 0.41 8.43 L 0.00 9.16 L 0.00 5.98 C 1.17 4.84 2.40 3.78 3.67 2.76 C 6.09 3.08 8.53 3.35 10.99 3.39 C 177.32 3.30 343.65 3.26 509.98 3.32 C 511.85 3.44 513.61 2.84 514.96 1.50 Z" />
</g>
<g id="#585858ff">
<path fill="#585858" opacity="1.00" d=" M 0.41 8.43 C 1.20 7.85 2.07 7.50 3.01 7.35 C 170.65 7.44 338.30 7.38 505.95 7.44 C 509.96 7.52 513.99 7.42 518.00 7.10 L 518.00 10.19 C 516.71 9.79 515.39 9.42 514.04 9.39 C 415.68 9.39 317.31 9.42 218.95 9.41 C 205.77 9.31 192.59 9.58 179.44 10.15 C 177.29 9.94 175.15 9.67 173.00 9.61 C 120.65 9.68 68.30 9.72 15.95 9.72 C 11.50 9.72 6.85 9.14 2.67 11.07 C 2.22 10.80 1.31 10.25 0.86 9.98 L 0.41 8.43 Z" />
</g>
<g id="#282828ff">
<path fill="#282828" opacity="1.00" d=" M 0.00 9.16 L 0.41 8.43 L 0.86 9.98 C 0.94 28.31 1.80 46.61 1.81 64.94 C 1.64 74.82 2.48 84.69 1.91 94.55 C 1.01 91.61 0.33 88.60 0.00 85.54 L 0.00 9.16 Z" />
</g>
<g id="#272627ff">
<path fill="#272627" opacity="1.00" d=" M 179.44 10.15 C 192.59 9.58 205.77 9.31 218.95 9.41 C 317.31 9.42 415.68 9.39 514.04 9.39 C 515.39 9.42 516.71 9.79 518.00 10.19 L 518.00 20.32 C 516.12 24.64 517.11 29.40 516.85 33.94 C 516.36 48.65 517.32 63.40 515.92 78.06 C 515.60 92.37 516.04 106.72 515.14 121.01 C 515.98 127.04 514.51 133.03 514.88 139.07 C 514.26 166.06 513.63 193.06 513.69 220.06 C 512.58 239.02 512.70 258.04 512.65 277.03 C 511.49 294.32 511.83 311.66 511.56 328.97 C 510.41 348.30 511.06 367.66 510.55 387.00 C 509.97 396.91 509.76 406.85 510.22 416.77 C 509.79 422.85 509.69 428.95 509.72 435.05 C 509.84 442.71 508.92 450.34 509.12 458.00 L 504.90 458.00 C 504.28 449.31 506.19 440.71 505.67 432.02 C 505.80 420.33 505.46 408.61 506.66 396.97 C 506.61 386.32 506.81 375.66 506.84 365.01 C 508.58 345.39 506.86 325.63 508.59 306.00 C 508.64 276.66 509.66 247.31 509.30 217.96 C 509.19 214.91 510.48 212.06 510.63 209.04 C 510.40 178.70 511.76 148.38 511.33 118.04 C 512.77 102.74 512.17 87.36 512.42 72.02 C 513.41 63.39 512.99 54.70 513.25 46.03 C 513.21 42.04 513.61 38.04 513.17 34.06 C 512.89 33.79 512.31 33.24 512.03 32.96 C 508.91 34.91 507.17 38.57 503.71 39.99 C 502.41 39.04 500.93 38.30 499.29 38.56 C 491.22 39.08 483.14 38.71 475.07 38.81 C 325.04 39.15 175.00 39.36 24.96 39.24 C 23.44 39.22 21.94 39.51 20.54 40.11 C 18.40 42.17 18.90 45.29 18.90 47.97 C 19.12 52.12 19.14 56.28 18.81 60.43 C 17.15 55.07 18.19 49.45 17.87 43.96 C 17.96 42.65 17.26 41.52 16.57 40.48 L 16.59 40.33 C 17.28 39.27 18.04 38.27 18.80 37.27 C 17.55 37.48 16.31 37.72 15.04 37.77 C 13.16 36.32 11.34 34.67 8.81 34.63 C 8.94 34.04 9.22 32.84 9.36 32.24 C 30.21 31.69 51.10 32.12 71.97 31.90 C 89.33 31.71 106.73 32.54 124.06 31.22 C 161.68 30.94 199.31 31.12 236.94 30.77 C 236.92 28.89 236.92 27.02 236.91 25.14 C 231.27 24.82 225.63 25.07 219.99 25.04 C 218.34 25.23 217.03 24.21 215.76 23.35 C 222.78 22.55 229.86 23.23 236.90 22.86 C 236.93 20.31 236.92 17.76 236.88 15.22 C 234.17 15.17 231.46 14.96 228.79 14.46 C 237.86 13.12 247.09 14.84 256.16 13.46 C 246.14 12.35 236.00 13.88 226.01 12.26 C 201.42 12.09 176.83 12.33 152.24 11.89 L 152.24 11.16 C 161.29 10.39 170.54 12.11 179.44 10.15 Z" />
</g>
<g id="#3e3e3eff">
<path fill="#3e3e3e" opacity="1.00" d=" M 0.86 9.98 C 1.31 10.25 2.22 10.80 2.67 11.07 C 3.73 11.60 4.80 12.11 5.88 12.60 C 6.27 25.38 5.82 38.19 6.30 50.96 C 7.37 58.15 6.36 65.42 7.34 72.61 C 7.72 75.96 7.15 79.33 7.37 82.69 C 8.47 95.27 6.82 107.97 8.42 120.53 C 8.43 128.68 8.15 136.85 8.51 145.00 C 9.74 153.63 8.82 162.34 9.24 171.02 C 9.52 175.41 8.04 179.78 8.88 184.16 C 9.99 190.08 8.26 196.06 9.20 202.01 C 8.81 209.38 10.45 216.64 10.11 224.00 C 10.36 238.68 10.13 253.37 10.18 268.05 C 9.39 275.59 8.80 283.21 9.58 290.78 C 10.19 295.83 8.92 300.88 9.33 305.95 C 9.21 313.80 9.86 321.72 8.69 329.51 C 8.27 327.34 7.84 325.14 7.84 322.92 C 7.85 310.29 7.63 297.66 7.64 285.04 C 6.35 272.07 6.97 259.01 6.52 246.00 C 5.32 258.81 6.85 271.73 5.57 284.51 C 5.22 282.68 4.81 280.86 4.73 278.99 C 4.67 256.99 4.60 234.98 4.65 212.97 C 2.77 193.06 4.36 173.01 3.24 153.06 C 2.86 144.52 3.34 135.97 2.79 127.44 C 3.33 121.98 2.92 116.50 3.05 111.03 C 2.98 105.53 3.65 99.87 1.91 94.55 C 2.48 84.69 1.64 74.82 1.81 64.94 C 1.80 46.61 0.94 28.31 0.86 9.98 Z" />
<path fill="#3e3e3e" opacity="1.00" d=" M 384.55 458.00 C 386.57 457.74 388.58 457.45 390.62 457.36 C 405.13 457.99 419.57 456.24 434.07 456.55 C 438.11 456.83 442.65 455.58 446.22 458.00 L 384.55 458.00 Z" />
</g>
<g id="#333333ff">
<path fill="#333333" opacity="1.00" d=" M 2.67 11.07 C 6.85 9.14 11.50 9.72 15.95 9.72 C 68.30 9.72 120.65 9.68 173.00 9.61 C 175.15 9.67 177.29 9.94 179.44 10.15 C 170.54 12.11 161.29 10.39 152.24 11.16 L 152.24 11.89 C 176.83 12.33 201.42 12.09 226.01 12.26 C 236.00 13.88 246.14 12.35 256.16 13.46 C 247.09 14.84 237.86 13.12 228.79 14.46 C 231.46 14.96 234.17 15.17 236.88 15.22 C 236.92 17.76 236.93 20.31 236.90 22.86 C 229.86 23.23 222.78 22.55 215.76 23.35 C 217.03 24.21 218.34 25.23 219.99 25.04 C 225.63 25.07 231.27 24.82 236.91 25.14 C 236.92 27.02 236.92 28.89 236.94 30.77 C 199.31 31.12 161.68 30.94 124.06 31.22 C 106.73 32.54 89.33 31.71 71.97 31.90 C 51.10 32.12 30.21 31.69 9.36 32.24 C 9.22 32.84 8.94 34.04 8.81 34.63 C 7.20 43.35 8.39 52.23 8.20 61.03 C 8.00 66.36 8.83 71.65 8.97 76.97 C 9.05 86.62 9.21 96.28 9.14 105.93 C 9.02 110.80 9.77 115.76 8.42 120.53 C 6.82 107.97 8.47 95.27 7.37 82.69 C 7.15 79.33 7.72 75.96 7.34 72.61 C 6.36 65.42 7.37 58.15 6.30 50.96 C 5.82 38.19 6.27 25.38 5.88 12.60 C 4.80 12.11 3.73 11.60 2.67 11.07 Z" />
</g>
<g id="#3d3d3dff">
<path fill="#3d3d3d" opacity="1.00" d=" M 516.85 33.94 C 517.11 29.40 516.12 24.64 518.00 20.32 L 518.00 169.27 C 516.11 172.88 516.75 177.02 516.67 180.93 C 516.64 191.28 516.91 201.64 516.06 211.97 C 516.08 224.98 515.79 238.00 515.06 251.00 C 514.77 269.35 514.64 287.70 514.66 306.05 C 513.18 325.01 513.88 344.05 513.57 363.04 C 512.10 376.29 513.37 389.67 512.12 402.95 C 511.69 421.29 511.46 439.65 511.81 458.00 L 509.12 458.00 C 508.92 450.34 509.84 442.71 509.72 435.05 C 509.69 428.95 509.79 422.85 510.22 416.77 C 509.76 406.85 509.97 396.91 510.55 387.00 C 511.06 367.66 510.41 348.30 511.56 328.97 C 511.83 311.66 511.49 294.32 512.65 277.03 C 512.70 258.04 512.58 239.02 513.69 220.06 C 513.63 193.06 514.26 166.06 514.88 139.07 C 514.51 133.03 515.98 127.04 515.14 121.01 C 516.04 106.72 515.60 92.37 515.92 78.06 C 517.32 63.40 516.36 48.65 516.85 33.94 Z" />
</g>
<g id="#3d3c3dff">
<path fill="#3d3c3d" opacity="1.00" d=" M 503.71 39.99 C 507.17 38.57 508.91 34.91 512.03 32.96 C 512.31 33.24 512.89 33.79 513.17 34.06 C 513.61 38.04 513.21 42.04 513.25 46.03 C 512.99 54.70 513.41 63.39 512.42 72.02 C 512.17 87.36 512.77 102.74 511.33 118.04 C 511.76 148.38 510.40 178.70 510.63 209.04 C 510.48 212.06 509.19 214.91 509.30 217.96 C 509.66 247.31 508.64 276.66 508.59 306.00 C 506.86 325.63 508.58 345.39 506.84 365.01 C 506.81 375.66 506.61 386.32 506.66 396.97 C 505.46 408.61 505.80 420.33 505.67 432.02 C 506.19 440.71 504.28 449.31 504.90 458.00 L 496.09 458.00 C 496.29 447.00 496.26 435.99 496.51 425.00 C 496.95 420.56 497.34 416.13 497.36 411.67 C 498.59 410.39 499.37 408.77 499.22 406.96 C 499.39 395.30 499.31 383.63 499.34 371.96 C 499.28 368.71 499.68 365.18 497.69 362.36 C 497.47 352.43 497.61 342.48 497.83 332.55 C 498.84 326.41 498.23 320.17 498.50 313.98 C 498.59 297.42 498.99 280.87 499.25 264.31 C 499.80 258.22 499.65 252.10 499.74 246.00 C 501.13 224.03 500.52 201.99 500.69 180.00 C 500.49 172.32 501.57 164.70 501.52 157.04 C 501.63 139.26 502.60 121.46 501.78 103.70 C 502.42 85.14 502.39 66.56 502.67 47.98 C 502.69 45.62 502.69 43.26 502.43 40.91 L 502.27 40.16 L 503.71 39.99 Z" />
</g>
<g id="#2b2a2aff">
<path fill="#2b2a2a" opacity="1.00" d=" M 8.81 34.63 C 11.34 34.67 13.16 36.32 15.04 37.77 C 16.31 37.72 17.55 37.48 18.80 37.27 C 18.04 38.27 17.28 39.27 16.59 40.33 L 16.57 40.48 C 16.30 51.99 15.76 63.59 17.34 75.03 C 17.42 96.03 17.28 117.05 17.44 138.06 C 18.88 149.99 17.67 162.05 19.04 173.99 C 19.16 196.70 19.22 219.42 19.54 242.12 C 20.59 235.82 19.91 229.41 20.10 223.06 C 20.36 187.08 19.38 151.10 19.63 115.11 L 20.61 113.80 C 20.35 133.52 20.82 153.25 20.75 172.98 C 21.97 200.62 21.19 228.32 22.19 255.98 C 22.32 263.75 22.43 271.52 22.27 279.29 C 19.73 281.95 20.80 285.77 20.65 289.06 C 20.66 302.69 20.63 316.33 20.78 329.97 C 20.62 331.72 21.51 333.21 22.35 334.67 C 23.26 340.29 21.53 346.29 23.53 351.69 C 23.54 372.15 23.76 392.61 23.75 413.07 C 24.68 428.02 24.34 443.02 24.60 458.00 L 11.18 458.00 C 10.57 441.01 10.65 424.01 10.59 407.01 C 9.76 392.69 9.61 378.34 9.62 364.00 C 9.11 352.51 9.02 341.01 8.69 329.51 C 9.86 321.72 9.21 313.80 9.33 305.95 C 8.92 300.88 10.19 295.83 9.58 290.78 C 8.80 283.21 9.39 275.59 10.18 268.05 C 10.13 253.37 10.36 238.68 10.11 224.00 C 10.45 216.64 8.81 209.38 9.20 202.01 C 8.26 196.06 9.99 190.08 8.88 184.16 C 8.04 179.78 9.52 175.41 9.24 171.02 C 8.82 162.34 9.74 153.63 8.51 145.00 C 8.15 136.85 8.43 128.68 8.42 120.53 C 9.77 115.76 9.02 110.80 9.14 105.93 C 9.21 96.28 9.05 86.62 8.97 76.97 C 8.83 71.65 8.00 66.36 8.20 61.03 C 8.39 52.23 7.20 43.35 8.81 34.63 Z" />
</g>
<g id="#0e0f0eff">
<path fill="#0e0f0e" opacity="1.00" d=" M 475.07 38.81 C 483.14 38.71 491.22 39.08 499.29 38.56 C 500.93 38.30 502.41 39.04 503.71 39.99 L 502.27 40.16 C 457.18 40.40 412.10 39.94 367.01 40.15 C 260.65 40.18 154.30 40.27 47.94 40.31 C 38.81 40.21 29.66 40.63 20.54 40.11 C 21.94 39.51 23.44 39.22 24.96 39.24 C 175.00 39.36 325.04 39.15 475.07 38.81 Z" />
<path fill="#0e0f0e" opacity="1.00" d=" M 16.57 40.48 C 17.26 41.52 17.96 42.65 17.87 43.96 C 18.19 49.45 17.15 55.07 18.81 60.43 C 19.68 78.63 19.19 96.89 19.63 115.11 C 19.38 151.10 20.36 187.08 20.10 223.06 C 19.91 229.41 20.59 235.82 19.54 242.12 C 19.22 219.42 19.16 196.70 19.04 173.99 C 17.67 162.05 18.88 149.99 17.44 138.06 C 17.28 117.05 17.42 96.03 17.34 75.03 C 15.76 63.59 16.30 51.99 16.57 40.48 Z" />
</g>
<g id="#a2a2a2ff">
<path fill="#a2a2a2" opacity="1.00" d=" M 18.90 47.97 C 18.90 45.29 18.40 42.17 20.54 40.11 C 29.66 40.63 38.81 40.21 47.94 40.31 C 154.30 40.27 260.65 40.18 367.01 40.15 C 412.10 39.94 457.18 40.40 502.27 40.16 L 502.43 40.91 C 485.62 40.31 468.78 40.79 451.96 40.70 C 444.29 40.45 436.68 41.83 429.01 41.45 C 307.66 41.46 186.30 41.63 64.95 41.65 C 50.13 41.72 35.31 41.53 20.50 41.87 C 20.44 59.24 20.59 76.62 20.81 93.99 C 20.82 100.59 21.63 107.23 20.61 113.80 L 19.63 115.11 C 19.19 96.89 19.68 78.63 18.81 60.43 C 19.14 56.28 19.12 52.12 18.90 47.97 Z" />
</g>
<g id="#e4e4edff">
<path fill="#e4e4ed" opacity="1.00" d=" M 429.01 41.45 C 436.68 41.83 444.29 40.45 451.96 40.70 C 468.78 40.79 485.62 40.31 502.43 40.91 C 502.69 43.26 502.69 45.62 502.67 47.98 C 502.39 66.56 502.42 85.14 501.78 103.70 C 501.09 110.11 501.69 116.59 500.69 122.99 C 500.30 143.98 500.20 164.99 500.32 185.99 C 500.49 191.67 499.58 197.32 499.55 203.00 C 499.54 217.01 499.02 231.02 499.07 245.04 C 499.15 251.47 498.37 257.91 499.25 264.31 C 498.99 280.87 498.59 297.42 498.50 313.98 C 498.23 320.17 498.84 326.41 497.83 332.55 C 497.55 329.10 496.72 325.72 495.38 322.52 C 495.80 308.02 495.02 293.48 496.31 279.02 C 496.77 263.01 495.76 246.93 497.36 230.97 C 497.46 209.31 497.48 187.65 497.72 165.99 C 497.75 158.85 498.41 151.71 497.78 144.58 C 497.61 137.72 497.68 130.85 498.22 124.01 C 498.70 108.70 498.43 93.37 498.84 78.06 C 499.62 67.58 499.08 57.06 499.59 46.58 C 498.55 45.67 497.62 44.31 496.04 44.58 C 404.68 44.56 313.31 44.52 221.95 44.49 C 156.07 44.56 90.18 44.30 24.30 44.55 C 24.28 44.88 24.26 45.53 24.25 45.86 C 24.31 84.79 25.63 123.70 25.48 162.63 C 24.75 166.78 24.92 171.01 24.43 175.19 C 23.28 172.18 22.87 168.97 22.39 165.80 C 21.68 172.17 22.14 178.59 21.98 184.98 C 22.13 208.64 21.97 232.31 22.19 255.98 C 21.19 228.32 21.97 200.62 20.75 172.98 C 20.82 153.25 20.35 133.52 20.61 113.80 C 21.63 107.23 20.82 100.59 20.81 93.99 C 20.59 76.62 20.44 59.24 20.50 41.87 C 35.31 41.53 50.13 41.72 64.95 41.65 C 186.30 41.63 307.66 41.46 429.01 41.45 Z" />
</g>
<g id="#61709cff">
<path fill="#61709c" opacity="1.00" d=" M 24.30 44.55 C 90.18 44.30 156.07 44.56 221.95 44.49 C 313.31 44.52 404.68 44.56 496.04 44.58 C 497.62 44.31 498.55 45.67 499.59 46.58 C 499.08 57.06 499.62 67.58 498.84 78.06 C 498.43 93.37 498.70 108.70 498.22 124.01 C 497.68 130.85 497.61 137.72 497.78 144.58 L 496.84 145.42 C 496.68 132.62 497.12 119.83 496.67 107.03 C 497.06 90.04 497.56 73.06 497.37 56.06 C 497.09 52.84 498.31 49.31 497.02 46.27 C 374.02 46.10 251.02 45.92 128.02 45.80 C 93.43 45.83 58.84 45.50 24.25 45.86 C 24.26 45.53 24.28 44.88 24.30 44.55 Z" />
<path fill="#61709c" opacity="1.00" d=" M 335.69 337.87 C 335.63 335.76 334.80 333.01 336.89 331.54 C 339.45 330.91 339.15 333.80 339.81 335.40 C 340.41 334.23 340.98 333.03 341.56 331.85 C 342.71 334.57 340.36 336.99 340.59 339.76 C 338.91 341.35 336.74 340.12 335.01 339.37 C 335.74 339.20 337.18 338.86 337.91 338.69 C 337.35 338.48 336.24 338.07 335.69 337.87 Z" />
</g>
<g id="#314c94ff">
<path fill="#314c94" opacity="1.00" d=" M 24.25 45.86 C 58.84 45.50 93.43 45.83 128.02 45.80 C 251.02 45.92 374.02 46.10 497.02 46.27 C 498.31 49.31 497.09 52.84 497.37 56.06 C 497.56 73.06 497.06 90.04 496.67 107.03 C 497.12 119.83 496.68 132.62 496.84 145.42 C 496.14 158.24 496.57 171.10 496.19 183.94 C 495.11 208.95 496.26 234.00 494.82 259.01 C 494.32 275.33 494.81 291.68 494.25 308.01 C 493.40 315.02 494.30 322.09 493.67 329.11 C 493.20 335.41 493.73 341.72 493.32 348.01 C 441.86 348.60 390.40 348.03 338.94 348.16 C 240.28 348.10 141.62 348.21 42.96 348.30 C 39.01 348.23 34.98 348.72 31.10 347.76 C 30.52 345.21 30.58 342.59 30.52 340.01 C 30.37 343.45 30.19 346.88 30.02 350.32 C 29.62 350.31 28.82 350.28 28.41 350.26 C 28.62 317.82 27.33 285.40 27.38 252.95 C 25.68 222.88 27.41 192.70 25.48 162.63 C 25.63 123.70 24.31 84.79 24.25 45.86 M 385.06 98.03 C 313.71 98.02 242.36 98.12 171.00 98.14 C 168.00 98.06 165.01 97.72 162.01 97.74 C 133.13 97.69 104.26 98.37 75.38 98.31 C 75.32 129.57 75.53 160.83 75.70 192.09 C 76.15 197.40 76.52 202.72 76.36 208.06 C 76.86 244.38 76.47 280.70 77.31 317.01 C 92.86 317.52 108.45 317.12 124.02 317.19 C 130.67 316.21 137.33 317.66 144.00 316.86 C 206.98 316.43 269.96 316.58 332.95 316.21 C 339.94 315.50 346.98 315.82 354.00 315.76 C 381.64 315.75 409.29 315.67 436.94 315.69 C 438.01 305.52 437.07 295.23 438.24 285.06 C 438.47 260.03 438.38 235.00 438.81 209.97 C 439.37 209.06 439.64 208.07 439.62 207.01 C 439.88 190.67 439.42 174.31 440.43 158.00 C 440.53 150.98 440.46 143.95 441.25 136.97 C 441.34 123.50 441.51 110.02 441.36 96.55 C 424.57 96.47 407.78 96.58 390.99 96.56 C 388.82 96.33 387.25 98.38 385.06 98.03 M 199.82 328.38 C 199.74 329.94 199.72 331.56 198.69 332.84 C 198.49 333.90 198.29 334.95 198.10 336.02 C 196.76 337.78 197.02 340.21 195.73 341.95 C 195.70 342.40 195.62 343.31 195.59 343.76 C 196.50 342.94 197.42 342.12 198.36 341.32 C 198.41 339.90 198.47 338.49 198.55 337.09 C 200.35 336.29 199.61 334.25 199.81 332.74 C 200.18 332.45 200.92 331.87 201.29 331.58 C 201.29 329.69 201.74 327.87 202.59 326.20 C 201.67 326.94 200.74 327.65 199.82 328.38 M 320.39 326.48 C 320.38 330.34 320.10 334.21 320.43 338.07 C 320.42 339.77 322.57 339.48 323.69 339.87 C 322.88 335.42 323.45 330.86 322.68 326.41 C 322.11 326.43 320.96 326.47 320.39 326.48 M 327.36 326.48 L 327.36 326.71 C 326.94 326.98 326.10 327.53 325.68 327.81 C 324.95 331.78 325.29 335.87 325.17 339.90 C 325.73 339.74 326.84 339.42 327.40 339.27 C 328.03 339.31 329.29 339.41 329.92 339.46 C 329.66 335.13 329.83 330.78 329.61 326.45 C 329.05 326.46 327.92 326.47 327.36 326.48 M 207.80 327.61 C 207.07 328.30 206.33 328.99 205.60 329.69 C 205.58 332.32 205.57 334.95 205.51 337.58 C 206.81 338.40 208.03 339.49 209.65 339.64 L 208.73 338.12 C 209.59 338.13 211.31 338.15 212.17 338.16 L 211.39 339.66 C 213.91 338.98 216.33 336.78 216.17 333.98 C 216.56 331.47 214.77 329.52 213.51 327.58 C 211.61 327.58 209.70 327.59 207.80 327.61 M 219.82 327.78 C 218.90 331.52 219.60 335.50 219.57 339.33 C 220.09 339.44 221.13 339.66 221.64 339.78 C 221.90 338.15 222.16 336.54 222.45 334.93 C 224.50 335.93 225.04 338.75 226.93 339.64 C 230.27 339.74 227.28 336.55 226.57 335.18 C 227.33 334.12 228.17 333.11 228.81 331.98 C 229.36 330.08 227.86 328.69 226.75 327.43 C 224.46 327.56 221.99 326.95 219.82 327.78 M 232.53 327.61 C 232.40 331.72 232.38 335.83 232.53 339.95 C 234.33 339.39 234.51 337.53 235.07 336.01 C 236.74 335.30 238.76 335.23 240.18 333.99 C 240.57 332.53 240.60 330.96 240.35 329.48 C 239.10 326.26 235.14 327.80 232.53 327.61 M 258.30 327.41 C 254.99 329.66 255.87 333.79 255.75 337.24 C 257.69 338.82 260.27 341.72 262.93 339.82 C 264.19 339.49 264.51 338.22 264.99 337.20 C 263.52 337.44 262.06 337.78 260.76 338.55 C 257.36 337.65 257.26 333.76 257.99 330.95 C 259.11 328.03 262.61 329.61 264.94 329.49 C 263.95 326.56 260.68 327.63 258.30 327.41 M 182.64 328.36 C 182.79 331.73 182.80 335.10 182.67 338.47 C 183.29 339.15 183.92 339.84 184.55 340.53 C 185.19 339.66 185.84 338.80 186.49 337.94 C 186.20 337.48 185.62 336.55 185.33 336.09 C 185.47 333.56 189.07 335.24 190.73 334.90 C 190.72 336.34 190.72 337.79 190.73 339.24 C 191.19 339.38 192.11 339.66 192.57 339.79 C 192.57 336.00 192.89 332.19 192.51 328.41 C 192.00 328.34 190.98 328.21 190.47 328.14 C 190.48 328.92 190.49 330.47 190.50 331.24 C 189.89 331.55 188.66 332.17 188.04 332.48 C 187.42 332.18 186.19 331.56 185.58 331.26 C 185.57 330.52 185.54 329.03 185.53 328.29 C 184.56 328.31 183.60 328.33 182.64 328.36 M 291.48 331.55 C 291.81 331.65 292.48 331.85 292.81 331.95 C 293.21 334.46 293.13 337.02 293.13 339.56 C 294.62 340.90 298.22 341.84 298.37 338.87 C 299.16 339.36 299.95 339.85 300.76 340.33 C 302.91 338.81 302.14 336.05 302.34 333.84 C 303.06 332.48 304.30 331.55 305.81 331.24 C 305.32 330.61 305.04 329.77 304.38 329.32 C 303.60 330.91 301.87 330.47 300.43 330.48 C 299.27 330.50 298.08 330.42 296.97 330.83 C 295.90 330.17 294.96 329.36 294.16 328.38 C 292.84 328.81 292.40 330.57 291.48 331.55 M 338.36 329.54 C 337.37 329.92 336.38 330.30 335.39 330.67 C 332.64 333.00 332.88 336.72 335.01 339.37 C 336.74 340.12 338.91 341.35 340.59 339.76 C 340.36 336.99 342.71 334.57 341.56 331.85 C 340.68 330.83 339.48 330.22 338.36 329.54 M 171.00 330.35 C 170.32 334.72 169.82 339.45 171.19 343.71 C 171.73 343.60 172.80 343.38 173.34 343.27 L 172.52 341.84 L 172.94 341.27 C 175.31 340.49 178.60 340.02 179.20 337.08 C 180.10 334.85 178.76 332.70 178.03 330.66 C 175.70 330.28 173.34 330.24 171.00 330.35 M 269.50 330.43 C 268.72 331.95 267.57 333.37 267.30 335.10 C 267.31 337.80 269.78 339.53 271.91 340.69 C 275.71 339.77 277.72 335.41 275.81 331.98 C 274.50 329.75 271.62 330.54 269.50 330.43 M 280.34 330.53 C 280.09 333.61 280.08 336.71 280.32 339.80 C 280.82 339.58 281.81 339.13 282.31 338.91 C 283.44 339.12 284.64 339.76 285.78 339.20 C 286.05 339.32 286.59 339.57 286.86 339.69 C 288.35 337.04 287.24 333.57 287.39 330.61 C 285.04 330.58 282.68 330.58 280.34 330.53 M 308.71 337.28 C 309.43 339.15 311.42 339.79 313.00 340.73 C 314.19 339.72 315.45 338.78 316.49 337.62 C 318.08 334.98 316.73 330.03 313.08 330.30 C 309.26 329.31 307.21 334.38 308.71 337.28 M 345.05 330.47 C 345.32 333.55 343.33 337.91 346.41 339.95 C 346.46 336.60 346.39 331.94 350.63 331.20 C 350.62 331.04 350.60 330.74 350.59 330.59 C 348.74 330.56 346.89 330.52 345.05 330.47 Z" />
</g>
<g id="#3a3839ff">
<path fill="#3a3839" opacity="1.00" d=" M 0.00 85.54 C 0.33 88.60 1.01 91.61 1.91 94.55 C 3.65 99.87 2.98 105.53 3.05 111.03 C 2.92 116.50 3.33 121.98 2.79 127.44 C 1.18 131.28 1.77 135.53 1.29 139.57 C -0.21 131.99 1.05 124.23 0.00 116.60 L 0.00 85.54 Z" />
</g>
<g id="#a8cefbff">
<path fill="#a8cefb" opacity="1.00" d=" M 385.06 98.03 C 387.25 98.38 388.82 96.33 390.99 96.56 C 407.78 96.58 424.57 96.47 441.36 96.55 C 441.51 110.02 441.34 123.50 441.25 136.97 C 440.46 143.95 440.53 150.98 440.43 158.00 C 439.42 174.31 439.88 190.67 439.62 207.01 C 439.64 208.07 439.37 209.06 438.81 209.97 C 438.38 235.00 438.47 260.03 438.24 285.06 C 437.07 295.23 438.01 305.52 436.94 315.69 C 409.29 315.67 381.64 315.75 354.00 315.76 C 346.98 315.82 339.94 315.50 332.95 316.21 C 269.96 316.58 206.98 316.43 144.00 316.86 C 137.33 317.66 130.67 316.21 124.02 317.19 C 108.45 317.12 92.86 317.52 77.31 317.01 C 76.47 280.70 76.86 244.38 76.36 208.06 C 76.52 202.72 76.15 197.40 75.70 192.09 C 75.53 160.83 75.32 129.57 75.38 98.31 C 104.26 98.37 133.13 97.69 162.01 97.74 C 165.01 97.72 168.00 98.06 171.00 98.14 C 242.36 98.12 313.71 98.02 385.06 98.03 M 327.45 110.60 C 327.43 111.55 327.42 112.50 327.41 113.45 C 328.55 113.75 329.70 114.05 330.86 114.35 C 331.24 119.44 329.73 124.82 331.14 129.73 C 329.85 130.01 328.57 130.31 327.29 130.62 C 327.31 131.12 327.35 132.14 327.37 132.64 C 330.46 132.68 333.55 132.66 336.65 132.61 C 336.63 132.06 336.60 130.97 336.59 130.42 C 335.47 130.39 334.36 130.39 333.25 130.42 C 333.42 123.43 333.32 116.43 333.35 109.44 C 333.21 109.15 332.95 108.58 332.82 108.29 C 331.18 109.38 329.35 110.11 327.45 110.60 M 363.81 108.76 C 363.32 109.89 362.90 111.82 364.56 112.12 C 366.95 112.36 369.37 112.30 371.78 112.33 C 371.70 112.90 371.53 114.05 371.45 114.62 C 368.05 119.86 367.05 126.43 367.23 132.57 C 367.82 132.54 368.99 132.49 369.58 132.47 C 370.56 127.01 370.00 121.12 373.04 116.21 C 373.72 113.76 375.89 111.52 375.23 108.85 C 371.46 108.29 367.59 108.48 363.81 108.76 M 116.52 109.70 C 114.98 110.99 113.42 112.45 113.14 114.56 C 113.65 114.51 114.67 114.40 115.17 114.35 C 116.69 112.69 118.97 113.21 120.96 113.16 C 121.75 116.41 122.03 120.12 120.00 122.99 C 118.08 126.76 114.48 129.52 113.21 133.61 C 117.00 133.66 120.79 133.81 124.58 133.52 L 124.93 131.35 C 122.28 131.29 119.64 131.35 117.00 131.52 C 119.94 128.05 122.97 124.47 123.81 119.84 C 125.50 116.09 123.21 112.28 120.60 109.67 C 119.24 109.69 117.88 109.70 116.52 109.70 M 154.72 109.63 C 150.97 113.76 150.50 119.68 151.02 124.98 C 151.42 127.99 152.03 131.34 154.32 133.54 C 156.85 134.13 159.84 134.02 161.26 131.50 C 163.10 124.33 164.22 115.37 158.52 109.60 C 157.25 109.61 155.98 109.62 154.72 109.63 M 379.35 113.91 C 378.24 119.98 377.46 126.93 380.92 132.41 C 383.21 132.50 385.66 133.10 387.86 132.16 C 390.45 129.51 389.90 125.49 389.69 122.12 C 389.79 119.45 386.92 118.63 385.12 117.42 C 383.79 118.23 382.46 119.05 381.12 119.84 C 380.83 116.64 381.96 113.49 384.51 111.48 C 386.23 110.98 390.31 114.58 389.64 111.02 C 387.54 105.79 379.94 109.43 379.35 113.91 M 422.75 108.62 C 420.93 112.93 420.39 117.64 418.86 122.05 C 417.67 125.49 416.69 129.01 416.25 132.63 C 419.29 133.07 419.47 130.23 420.19 128.06 C 420.30 127.38 420.52 126.02 420.63 125.33 C 422.81 125.45 425.20 124.80 427.23 125.83 C 427.91 127.89 427.12 130.63 428.99 132.15 C 431.59 133.53 431.44 130.37 430.69 128.87 C 428.69 122.16 427.94 115.06 425.03 108.64 C 424.46 108.64 423.32 108.62 422.75 108.62 M 95.44 110.57 C 95.62 118.15 95.38 125.74 95.70 133.32 L 97.19 133.86 C 98.54 130.64 97.08 126.78 98.19 123.37 C 100.96 123.40 103.72 123.40 106.49 123.38 C 106.49 126.79 106.51 130.20 106.54 133.61 L 108.65 133.67 C 108.53 125.81 108.95 117.92 108.32 110.09 L 106.81 110.04 C 106.14 113.44 106.66 116.95 106.42 120.40 C 103.56 120.34 100.66 120.63 97.84 120.08 C 97.56 116.78 97.69 113.46 97.67 110.15 C 97.11 110.26 96.00 110.46 95.44 110.57 M 129.45 110.32 C 129.66 113.94 128.90 117.52 128.84 121.13 C 130.90 122.35 133.76 121.25 136.11 121.73 C 136.96 123.77 137.51 125.91 137.59 128.13 C 136.67 129.31 135.82 130.56 134.78 131.65 C 132.56 133.14 130.71 130.38 128.75 129.65 C 128.09 131.05 128.45 132.38 129.32 133.58 C 132.60 133.50 137.37 134.99 138.92 130.99 C 140.26 126.84 140.21 121.45 136.39 118.57 C 134.81 118.61 133.23 118.65 131.65 118.68 C 131.70 116.75 131.76 114.82 131.83 112.90 C 134.22 112.26 138.98 114.42 139.37 110.94 C 136.77 108.52 132.62 109.99 129.45 110.32 M 166.50 110.37 C 165.24 113.23 166.08 116.07 167.57 118.64 C 168.80 118.59 170.04 118.53 171.28 118.47 C 171.97 116.94 172.69 115.42 173.43 113.91 C 172.72 112.41 171.99 110.92 171.24 109.44 C 169.65 109.72 168.07 110.03 166.50 110.37 M 179.87 133.40 L 178.93 133.46 C 181.48 133.84 184.17 134.30 186.69 133.52 C 188.29 132.70 188.94 131.00 188.69 129.28 C 185.98 128.76 183.59 131.04 180.78 130.46 C 175.96 125.83 176.31 116.58 181.70 112.49 C 182.57 112.55 184.32 112.68 185.19 112.74 C 185.26 113.22 185.38 114.19 185.45 114.68 C 186.05 114.67 187.26 114.66 187.86 114.65 C 188.66 112.80 188.29 111.23 186.27 110.61 C 185.15 109.37 183.41 109.55 181.91 109.64 C 172.89 113.45 172.42 127.82 179.87 133.40 M 342.03 111.99 C 343.04 112.79 344.17 113.35 345.42 113.66 C 345.69 114.24 346.21 115.39 346.48 115.96 C 346.26 117.31 346.03 118.66 345.79 120.00 C 345.64 123.49 345.67 126.98 345.45 130.46 C 344.64 130.45 343.03 130.43 342.22 130.43 C 342.30 130.97 342.47 132.05 342.55 132.59 C 345.14 132.54 347.73 132.64 350.31 132.51 C 352.38 130.84 349.91 130.24 348.40 130.33 C 348.21 123.28 348.40 116.24 348.40 109.20 C 346.08 109.64 343.92 110.60 342.03 111.99 M 398.13 116.87 C 396.74 116.47 395.45 114.81 393.92 115.61 C 393.77 121.25 393.42 126.94 394.11 132.55 C 394.73 132.53 395.97 132.47 396.60 132.45 C 396.83 127.82 396.13 123.05 397.55 118.56 C 399.24 116.92 401.30 117.19 402.53 119.17 C 403.17 123.72 401.96 128.40 403.21 132.89 C 403.97 132.36 405.43 132.20 405.25 130.96 C 405.34 126.95 405.14 122.93 405.65 118.94 C 406.86 118.36 408.08 117.77 409.30 117.18 C 411.47 121.98 409.82 127.41 410.36 132.49 C 410.94 132.53 412.12 132.59 412.71 132.62 L 412.67 132.48 C 414.18 127.44 413.04 121.94 413.23 116.72 C 412.92 116.61 412.29 116.37 411.97 116.25 C 411.34 114.26 409.42 114.27 407.69 114.41 C 406.43 115.53 405.08 116.94 403.23 116.23 C 402.99 115.75 402.52 114.79 402.29 114.31 C 400.51 114.38 398.34 114.66 398.13 116.87 M 358.01 133.47 C 359.79 133.00 359.61 131.04 359.66 129.59 C 359.10 129.29 357.96 128.67 357.40 128.36 C 356.34 129.80 355.57 133.22 358.01 133.47 M 143.57 130.71 C 143.56 131.65 143.55 132.59 143.54 133.54 C 144.59 133.56 145.64 133.60 146.69 133.63 C 146.60 132.18 146.52 130.74 146.43 129.30 C 145.48 129.77 144.52 130.24 143.57 130.71 M 156.04 137.80 C 131.23 138.69 106.39 137.95 81.57 138.46 C 81.55 138.99 81.51 140.05 81.48 140.59 C 83.29 141.08 85.14 141.39 87.02 141.30 C 108.32 141.06 129.64 141.45 150.93 140.83 C 195.94 140.77 240.94 140.60 285.95 140.49 C 288.83 140.50 291.74 140.57 294.61 140.13 C 297.32 140.78 300.18 140.28 302.96 140.39 C 319.96 140.13 337.01 140.87 353.97 139.67 C 380.65 139.65 407.33 139.67 434.01 139.50 C 436.11 139.77 435.91 137.08 434.11 136.70 C 417.76 136.56 401.39 136.76 385.04 136.69 C 382.68 136.65 380.36 137.03 378.03 137.22 C 328.24 137.62 278.41 137.20 228.63 137.87 C 226.10 137.41 223.52 137.68 220.98 137.64 C 199.33 137.69 177.68 137.76 156.04 137.80 M 323.98 191.83 C 314.25 196.03 308.61 206.03 306.54 216.02 C 306.19 222.01 306.06 228.06 306.74 234.03 C 308.47 240.16 310.78 246.86 316.20 250.71 C 320.20 253.79 325.18 254.50 329.97 255.42 C 334.14 254.47 338.42 253.44 342.00 250.97 C 344.82 249.21 346.92 246.56 349.64 244.65 C 349.76 248.75 349.64 252.86 349.24 256.95 C 348.17 259.88 347.87 263.02 346.77 265.95 C 346.59 266.99 346.41 268.05 346.24 269.10 C 345.00 271.03 343.98 273.09 343.20 275.24 C 340.81 278.71 337.58 281.38 333.88 283.34 C 329.93 283.70 325.96 283.61 322.01 283.46 C 318.72 281.71 315.97 279.22 313.00 277.03 C 311.25 279.54 309.31 281.92 307.13 284.07 C 309.72 287.54 313.21 290.19 316.85 292.49 C 317.42 292.53 318.56 292.60 319.13 292.63 L 319.88 293.51 C 325.21 293.88 330.64 294.00 335.95 293.42 L 336.82 292.60 C 337.37 292.54 338.47 292.41 339.02 292.35 C 345.07 289.14 349.66 283.71 352.94 277.81 C 356.06 271.96 358.08 265.51 358.71 258.92 C 358.89 258.63 359.24 258.05 359.42 257.76 C 360.74 247.24 361.22 236.58 360.29 226.01 C 360.06 221.93 358.50 218.08 358.24 214.01 C 357.44 212.08 356.66 210.14 355.86 208.20 C 353.14 201.14 347.53 195.58 341.10 191.77 C 336.74 191.13 332.52 189.65 328.04 190.52 C 326.88 191.46 325.40 191.62 323.98 191.83 M 148.87 193.85 C 142.31 195.98 138.18 201.97 134.85 207.65 C 129.91 215.93 128.90 225.69 127.59 235.04 C 127.07 250.04 127.29 265.69 133.89 279.50 C 136.42 283.10 138.57 287.10 142.09 289.87 C 144.26 292.04 147.22 292.98 149.84 294.46 C 154.19 294.70 158.57 294.76 162.92 294.51 C 168.54 292.86 173.13 288.88 176.28 284.04 C 183.99 273.36 183.27 259.02 180.33 246.82 C 178.43 243.20 176.47 239.48 173.46 236.65 C 171.51 235.08 169.27 233.92 167.13 232.63 C 166.08 232.54 165.03 232.45 163.99 232.35 C 158.95 229.75 152.76 231.55 148.00 234.08 C 143.95 235.89 141.55 239.87 137.85 242.15 C 137.47 234.26 139.26 226.41 140.95 218.73 C 143.06 214.16 144.87 209.10 149.04 205.95 C 151.55 203.66 154.99 203.07 157.92 201.54 C 163.78 201.23 169.98 203.74 173.55 208.52 C 174.04 208.53 175.03 208.55 175.53 208.56 C 176.96 206.38 178.61 204.35 180.43 202.48 C 180.44 201.98 180.46 200.98 180.47 200.47 C 176.38 197.74 173.06 193.54 168.03 192.48 C 161.85 190.40 154.62 190.73 148.87 193.85 M 235.50 192.61 C 235.42 196.24 235.46 199.88 235.29 203.51 C 236.42 204.14 237.63 204.43 238.92 204.39 C 251.53 204.38 264.14 204.27 276.75 204.32 C 277.07 205.45 276.75 206.32 275.81 206.93 C 273.73 211.46 270.90 215.60 269.10 220.25 C 267.54 223.64 265.91 226.98 264.40 230.38 C 261.44 236.99 259.94 244.11 257.95 251.04 C 257.53 255.99 256.09 260.77 255.52 265.71 L 254.74 265.61 C 255.07 274.65 252.92 283.50 253.35 292.54 C 257.06 292.60 260.76 292.59 264.46 292.55 C 265.33 285.03 264.93 277.41 266.40 269.97 C 266.42 261.67 268.67 253.59 269.56 245.41 C 269.77 245.45 270.19 245.53 270.40 245.57 C 273.05 229.28 281.58 214.67 290.58 201.09 C 290.75 198.21 290.75 195.33 290.65 192.45 C 272.27 192.57 253.88 192.44 235.50 192.61 M 404.36 255.27 C 404.57 267.02 403.68 278.72 403.58 290.47 C 404.54 290.50 406.46 290.57 407.43 290.61 C 407.39 285.23 407.44 279.86 407.48 274.49 C 411.86 274.49 416.23 274.50 420.61 274.45 C 420.66 279.80 420.61 285.15 420.55 290.49 C 421.54 290.52 423.53 290.58 424.52 290.61 C 424.42 278.80 425.66 266.99 424.89 255.19 C 423.71 255.24 422.55 255.29 421.39 255.34 C 420.42 260.08 420.71 264.92 420.70 269.72 C 416.28 270.41 411.83 269.94 407.41 269.64 C 407.59 264.92 407.52 260.20 407.63 255.49 C 406.53 255.41 405.44 255.34 404.36 255.27 M 378.32 264.28 C 378.49 268.19 377.93 272.06 377.72 275.96 C 377.67 284.80 377.68 293.64 377.56 302.47 C 378.54 302.52 380.50 302.63 381.47 302.68 C 381.72 298.48 381.46 294.27 381.90 290.09 C 384.22 290.63 386.55 292.31 388.98 291.43 C 392.91 290.50 395.04 286.54 396.22 283.01 C 397.12 277.93 397.05 272.54 395.34 267.63 C 394.20 266.50 393.17 265.24 391.83 264.34 C 389.68 264.09 387.52 264.22 385.37 264.25 C 384.52 265.15 383.66 266.06 382.81 266.96 C 382.44 266.30 381.69 264.98 381.32 264.32 C 380.31 264.30 379.31 264.29 378.32 264.28 M 201.44 280.88 C 201.32 284.83 200.08 289.69 203.21 292.81 C 205.31 295.61 209.16 294.24 212.13 294.50 C 214.26 292.10 216.72 289.41 216.40 285.93 C 216.72 282.33 214.86 278.97 212.35 276.51 C 208.24 275.82 203.01 276.30 201.44 280.88 Z" />
<path fill="#a8cefb" opacity="1.00" d=" M 138.89 252.08 C 142.11 247.72 145.91 243.87 150.89 241.55 C 154.59 241.34 158.30 241.34 161.99 241.57 C 168.25 244.40 171.33 251.48 171.62 258.03 C 171.63 263.67 172.26 269.58 169.88 274.89 C 168.17 280.21 163.54 284.55 158.08 285.72 C 153.11 285.85 148.06 283.11 145.21 279.05 C 142.78 273.23 139.92 267.37 139.56 260.97 C 139.36 258.00 139.24 255.03 138.89 252.08 Z" />
</g>
<g id="#9c9b9dff">
<path fill="#9c9b9d" opacity="1.00" d=" M 500.69 122.99 C 501.69 116.59 501.09 110.11 501.78 103.70 C 502.60 121.46 501.63 139.26 501.52 157.04 C 501.57 164.70 500.49 172.32 500.69 180.00 C 500.52 201.99 501.13 224.03 499.74 246.00 C 499.65 252.10 499.80 258.22 499.25 264.31 C 498.37 257.91 499.15 251.47 499.07 245.04 C 499.02 231.02 499.54 217.01 499.55 203.00 C 499.58 197.32 500.49 191.67 500.32 185.99 C 500.20 164.99 500.30 143.98 500.69 122.99 Z" />
</g>
<g id="#57709dff">
<path fill="#57709d" opacity="1.00" d=" M 327.45 110.60 C 329.35 110.11 331.18 109.38 332.82 108.29 C 332.95 108.58 333.21 109.15 333.35 109.44 C 332.01 110.48 329.27 110.53 329.14 112.59 C 329.77 112.86 331.05 113.40 331.69 113.66 C 332.02 119.24 331.79 124.83 331.56 130.41 L 331.14 129.73 C 329.73 124.82 331.24 119.44 330.86 114.35 C 329.70 114.05 328.55 113.75 327.41 113.45 C 327.42 112.50 327.43 111.55 327.45 110.60 Z" />
</g>
<g id="#1f2b5eff">
<path fill="#1f2b5e" opacity="1.00" d=" M 363.81 108.76 C 367.59 108.48 371.46 108.29 375.23 108.85 C 375.89 111.52 373.72 113.76 373.04 116.21 C 370.00 121.12 370.56 127.01 369.58 132.47 C 368.99 132.49 367.82 132.54 367.23 132.57 C 367.05 126.43 368.05 119.86 371.45 114.62 C 371.70 114.95 372.21 115.62 372.47 115.95 C 373.04 113.97 373.60 111.99 374.14 110.01 C 371.03 109.99 367.91 109.99 364.80 109.99 L 364.87 110.97 C 367.39 110.99 369.91 111.03 372.44 111.07 C 372.27 111.38 371.94 112.01 371.78 112.33 C 369.37 112.30 366.95 112.36 364.56 112.12 C 362.90 111.82 363.32 109.89 363.81 108.76 Z" />
</g>
<g id="#1b2f5eff">
<path fill="#1b2f5e" opacity="1.00" d=" M 116.52 109.70 C 117.88 109.70 119.24 109.69 120.60 109.67 C 123.21 112.28 125.50 116.09 123.81 119.84 C 122.97 124.47 119.94 128.05 117.00 131.52 C 119.64 131.35 122.28 131.29 124.93 131.35 L 124.58 133.52 C 120.79 133.81 117.00 133.66 113.21 133.61 C 114.48 129.52 118.08 126.76 120.00 122.99 C 122.03 120.12 121.75 116.41 120.96 113.16 C 118.97 113.21 116.69 112.69 115.17 114.35 C 114.67 114.40 113.65 114.51 113.14 114.56 C 113.42 112.45 114.98 110.99 116.52 109.70 Z" />
</g>
<g id="#293b6bff">
<path fill="#293b6b" opacity="1.00" d=" M 154.72 109.63 C 155.98 109.62 157.25 109.61 158.52 109.60 C 164.22 115.37 163.10 124.33 161.26 131.50 C 159.84 134.02 156.85 134.13 154.32 133.54 C 152.03 131.34 151.42 127.99 151.02 124.98 C 150.50 119.68 150.97 113.76 154.72 109.63 M 154.30 114.96 C 153.31 119.20 153.34 123.70 154.08 127.97 C 154.50 129.69 155.45 132.73 157.78 131.69 C 160.71 127.40 159.55 121.94 159.59 117.08 C 159.80 115.05 158.48 113.52 157.11 112.23 C 156.17 113.09 154.48 113.48 154.30 114.96 Z" />
</g>
<g id="#334476ff">
<path fill="#334476" opacity="1.00" d=" M 379.35 113.91 C 379.94 109.43 387.54 105.79 389.64 111.02 C 390.31 114.58 386.23 110.98 384.51 111.48 C 381.96 113.49 380.83 116.64 381.12 119.84 C 382.46 119.05 383.79 118.23 385.12 117.42 C 386.92 118.63 389.79 119.45 389.69 122.12 C 389.90 125.49 390.45 129.51 387.86 132.16 C 385.66 133.10 383.21 132.50 380.92 132.41 C 377.46 126.93 378.24 119.98 379.35 113.91 M 381.44 122.30 C 379.79 125.18 381.55 128.34 383.44 130.58 C 384.03 130.59 385.20 130.60 385.79 130.61 C 386.86 128.52 388.17 126.29 387.57 123.85 C 386.91 122.57 386.03 121.43 385.20 120.27 C 383.93 120.92 382.57 121.41 381.44 122.30 Z" />
</g>
<g id="#243768ff">
<path fill="#243768" opacity="1.00" d=" M 422.75 108.62 C 423.32 108.62 424.46 108.64 425.03 108.64 C 427.94 115.06 428.69 122.16 430.69 128.87 C 431.44 130.37 431.59 133.53 428.99 132.15 C 427.12 130.63 427.91 127.89 427.23 125.83 C 425.20 124.80 422.81 125.45 420.63 125.33 C 420.52 126.02 420.30 127.38 420.19 128.06 C 419.47 130.23 419.29 133.07 416.25 132.63 C 416.69 129.01 417.67 125.49 418.86 122.05 C 420.39 117.64 420.93 112.93 422.75 108.62 M 421.19 122.86 C 422.95 123.04 424.72 123.19 426.51 123.31 C 425.62 119.90 424.45 116.52 424.47 112.94 C 422.38 115.87 422.09 119.49 421.19 122.86 Z" />
</g>
<g id="#152251ff">
<path fill="#152251" opacity="1.00" d=" M 95.44 110.57 C 96.00 110.46 97.11 110.26 97.67 110.15 C 97.69 113.46 97.56 116.78 97.84 120.08 C 100.66 120.63 103.56 120.34 106.42 120.40 C 106.66 116.95 106.14 113.44 106.81 110.04 L 108.32 110.09 C 108.95 117.92 108.53 125.81 108.65 133.67 L 106.54 133.61 C 106.51 130.20 106.49 126.79 106.49 123.38 C 103.72 123.40 100.96 123.40 98.19 123.37 C 97.08 126.78 98.54 130.64 97.19 133.86 L 95.70 133.32 C 95.38 125.74 95.62 118.15 95.44 110.57 Z" />
</g>
<g id="#1c3260ff">
<path fill="#1c3260" opacity="1.00" d=" M 129.45 110.32 C 132.62 109.99 136.77 108.52 139.37 110.94 C 138.98 114.42 134.22 112.26 131.83 112.90 C 131.76 114.82 131.70 116.75 131.65 118.68 C 133.23 118.65 134.81 118.61 136.39 118.57 C 140.21 121.45 140.26 126.84 138.92 130.99 C 137.37 134.99 132.60 133.50 129.32 133.58 C 128.45 132.38 128.09 131.05 128.75 129.65 C 130.71 130.38 132.56 133.14 134.78 131.65 C 135.82 130.56 136.67 129.31 137.59 128.13 C 137.51 125.91 136.96 123.77 136.11 121.73 C 133.76 121.25 130.90 122.35 128.84 121.13 C 128.90 117.52 129.66 113.94 129.45 110.32 Z" />
</g>
<g id="#0f2758ff">
<path fill="#0f2758" opacity="1.00" d=" M 166.50 110.37 C 168.07 110.03 169.65 109.72 171.24 109.44 C 171.99 110.92 172.72 112.41 173.43 113.91 C 172.69 115.42 171.97 116.94 171.28 118.47 C 170.04 118.53 168.80 118.59 167.57 118.64 C 166.08 116.07 165.24 113.23 166.50 110.37 M 167.45 111.29 C 167.40 112.31 167.32 114.34 167.28 115.36 C 168.13 115.95 168.98 116.55 169.84 117.15 C 170.47 116.04 171.11 114.94 171.76 113.84 C 170.87 112.12 169.52 111.02 167.45 111.29 Z" />
<path fill="#0f2758" opacity="1.00" d=" M 143.57 130.71 C 144.52 130.24 145.48 129.77 146.43 129.30 C 146.52 130.74 146.60 132.18 146.69 133.63 C 145.64 133.60 144.59 133.56 143.54 133.54 C 143.55 132.59 143.56 131.65 143.57 130.71 Z" />
</g>
<g id="#0a1b4fff">
<path fill="#0a1b4f" opacity="1.00" d=" M 179.87 133.40 C 172.42 127.82 172.89 113.45 181.91 109.64 C 183.41 109.55 185.15 109.37 186.27 110.61 C 186.45 111.17 186.82 112.28 187.00 112.84 C 186.55 112.81 185.64 112.76 185.19 112.74 C 184.32 112.68 182.57 112.55 181.70 112.49 C 176.31 116.58 175.96 125.83 180.78 130.46 C 181.48 131.04 182.19 131.60 182.91 132.16 C 184.61 131.55 186.30 130.97 188.02 130.42 C 186.57 133.80 182.84 133.19 179.87 133.40 Z" />
<path fill="#0a1b4f" opacity="1.00" d=" M 364.80 109.99 C 367.91 109.99 371.03 109.99 374.14 110.01 C 373.60 111.99 373.04 113.97 372.47 115.95 C 372.21 115.62 371.70 114.95 371.45 114.62 C 371.53 114.05 371.70 112.90 371.78 112.33 C 371.94 112.01 372.27 111.38 372.44 111.07 C 369.91 111.03 367.39 110.99 364.87 110.97 L 364.80 109.99 Z" />
</g>
<g id="#06123fff">
<path fill="#06123f" opacity="1.00" d=" M 329.14 112.59 C 329.27 110.53 332.01 110.48 333.35 109.44 C 333.32 116.43 333.42 123.43 333.25 130.42 C 333.12 130.89 332.85 131.82 332.72 132.29 C 332.43 131.82 331.85 130.88 331.56 130.41 C 331.79 124.83 332.02 119.24 331.69 113.66 C 331.05 113.40 329.77 112.86 329.14 112.59 Z" />
</g>
<g id="#121c4fff">
<path fill="#121c4f" opacity="1.00" d=" M 342.03 111.99 C 343.92 110.60 346.08 109.64 348.40 109.20 C 348.40 116.24 348.21 123.28 348.40 130.33 C 349.91 130.24 352.38 130.84 350.31 132.51 C 347.73 132.64 345.14 132.54 342.55 132.59 C 342.47 132.05 342.30 130.97 342.22 130.43 C 343.03 130.43 344.64 130.45 345.45 130.46 C 345.67 126.98 345.64 123.49 345.79 120.00 C 346.03 118.66 346.26 117.31 346.48 115.96 C 346.21 115.39 345.69 114.24 345.42 113.66 C 344.17 113.35 343.04 112.79 342.03 111.99 Z" />
<path fill="#121c4f" opacity="1.00" d=" M 378.32 264.28 C 379.31 264.29 380.31 264.30 381.32 264.32 C 381.69 264.98 382.44 266.30 382.81 266.96 C 383.66 266.06 384.52 265.15 385.37 264.25 C 387.52 264.22 389.68 264.09 391.83 264.34 C 393.17 265.24 394.20 266.50 395.34 267.63 C 397.05 272.54 397.12 277.93 396.22 283.01 C 395.04 286.54 392.91 290.50 388.98 291.43 C 386.55 292.31 384.22 290.63 381.90 290.09 C 381.46 294.27 381.72 298.48 381.47 302.68 C 380.50 302.63 378.54 302.52 377.56 302.47 C 377.68 293.64 377.67 284.80 377.72 275.96 C 377.93 272.06 378.49 268.19 378.32 264.28 M 382.34 270.48 C 382.66 275.76 381.11 281.15 382.46 286.32 C 383.91 286.98 385.37 287.95 387.07 287.71 C 390.83 287.92 392.68 283.19 392.52 280.02 C 392.34 276.04 393.71 271.00 389.95 268.23 C 387.38 265.81 384.41 268.93 382.34 270.48 Z" />
</g>
<g id="#637eafff">
<path fill="#637eaf" opacity="1.00" d=" M 186.27 110.61 C 188.29 111.23 188.66 112.80 187.86 114.65 C 187.26 114.66 186.05 114.67 185.45 114.68 C 185.38 114.19 185.26 113.22 185.19 112.74 C 185.64 112.76 186.55 112.81 187.00 112.84 C 186.82 112.28 186.45 111.17 186.27 110.61 Z" />
</g>
<g id="#b7cffbff">
<path fill="#b7cffb" opacity="1.00" d=" M 167.45 111.29 C 169.52 111.02 170.87 112.12 171.76 113.84 C 171.11 114.94 170.47 116.04 169.84 117.15 C 168.98 116.55 168.13 115.95 167.28 115.36 C 167.32 114.34 167.40 112.31 167.45 111.29 Z" />
<path fill="#b7cffb" opacity="1.00" d=" M 199.82 328.38 C 200.74 327.65 201.67 326.94 202.59 326.20 C 201.74 327.87 201.29 329.69 201.29 331.58 C 200.92 331.87 200.18 332.45 199.81 332.74 C 199.61 334.25 200.35 336.29 198.55 337.09 C 198.47 338.49 198.41 339.90 198.36 341.32 C 197.42 342.12 196.50 342.94 195.59 343.76 C 195.62 343.31 195.70 342.40 195.73 341.95 C 197.02 340.21 196.76 337.78 198.10 336.02 C 198.29 334.95 198.49 333.90 198.69 332.84 C 199.72 331.56 199.74 329.94 199.82 328.38 Z" />
</g>
<g id="#a9cdf8ff">
<path fill="#a9cdf8" opacity="1.00" d=" M 154.30 114.96 C 154.48 113.48 156.17 113.09 157.11 112.23 C 158.48 113.52 159.80 115.05 159.59 117.08 C 159.55 121.94 160.71 127.40 157.78 131.69 C 155.45 132.73 154.50 129.69 154.08 127.97 C 153.34 123.70 153.31 119.20 154.30 114.96 Z" />
</g>
<g id="#afccf8ff">
<path fill="#afccf8" opacity="1.00" d=" M 421.19 122.86 C 422.09 119.49 422.38 115.87 424.47 112.94 C 424.45 116.52 425.62 119.90 426.51 123.31 C 424.72 123.19 422.95 123.04 421.19 122.86 Z" />
</g>
<g id="#041446ff">
<path fill="#041446" opacity="1.00" d=" M 398.13 116.87 C 398.34 114.66 400.51 114.38 402.29 114.31 C 402.52 114.79 402.99 115.75 403.23 116.23 C 403.75 117.38 404.43 118.57 404.22 119.90 C 403.90 124.23 404.42 128.67 403.21 132.89 C 401.96 128.40 403.17 123.72 402.53 119.17 C 401.30 117.19 399.24 116.92 397.55 118.56 C 397.69 118.14 397.98 117.29 398.13 116.87 Z" />
<path fill="#041446" opacity="1.00" d=" M 405.76 116.74 C 407.69 115.51 409.89 115.06 411.97 116.25 C 412.29 116.37 412.92 116.61 413.23 116.72 C 413.04 121.94 414.18 127.44 412.67 132.48 C 411.03 127.56 412.72 122.22 410.86 117.33 C 409.15 117.15 407.45 116.96 405.76 116.74 Z" />
</g>
<g id="#3f4975ff">
<path fill="#3f4975" opacity="1.00" d=" M 407.69 114.41 C 409.42 114.27 411.34 114.26 411.97 116.25 C 409.89 115.06 407.69 115.51 405.76 116.74 C 407.45 116.96 409.15 117.15 410.86 117.33 C 412.72 122.22 411.03 127.56 412.67 132.48 L 412.71 132.62 C 412.12 132.59 410.94 132.53 410.36 132.49 C 409.82 127.41 411.47 121.98 409.30 117.18 C 408.08 117.77 406.86 118.36 405.65 118.94 C 405.14 122.93 405.34 126.95 405.25 130.96 C 405.43 132.20 403.97 132.36 403.21 132.89 C 404.42 128.67 403.90 124.23 404.22 119.90 C 404.43 118.57 403.75 117.38 403.23 116.23 C 405.08 116.94 406.43 115.53 407.69 114.41 Z" />
<path fill="#3f4975" opacity="1.00" d=" M 304.49 360.62 C 305.35 361.20 306.33 361.53 307.35 361.78 C 307.73 362.30 308.48 363.36 308.86 363.88 C 308.79 365.98 308.76 368.09 308.70 370.20 C 307.83 371.48 306.18 371.78 304.91 372.52 C 303.44 371.83 301.98 371.16 300.52 370.49 C 300.51 368.06 300.49 365.63 300.47 363.21 C 301.88 362.46 303.23 361.61 304.49 360.62 M 303.58 363.56 C 300.98 365.53 302.07 369.63 304.90 370.81 C 305.77 369.98 306.64 369.16 307.51 368.35 C 307.57 367.32 307.64 366.29 307.71 365.27 C 306.43 364.47 305.27 362.43 303.58 363.56 Z" />
<path fill="#3f4975" opacity="1.00" d=" M 215.66 362.40 C 216.36 362.17 217.78 361.71 218.49 361.48 C 218.65 365.18 218.65 368.90 218.55 372.62 C 217.63 372.46 216.72 372.29 215.82 372.09 C 215.49 368.87 215.58 365.62 215.66 362.40 Z" />
<path fill="#3f4975" opacity="1.00" d=" M 292.38 372.38 C 291.66 368.67 290.87 364.38 292.90 360.97 C 295.93 363.19 293.46 367.25 294.97 370.09 C 296.46 370.56 298.18 370.76 298.94 372.34 C 296.75 372.35 294.56 372.34 292.38 372.38 Z" />
</g>
<g id="#2a3768ff">
<path fill="#2a3768" opacity="1.00" d=" M 393.92 115.61 C 395.45 114.81 396.74 116.47 398.13 116.87 C 397.98 117.29 397.69 118.14 397.55 118.56 C 396.13 123.05 396.83 127.82 396.60 132.45 C 395.97 132.47 394.73 132.53 394.11 132.55 C 393.42 126.94 393.77 121.25 393.92 115.61 Z" />
<path fill="#2a3768" opacity="1.00" d=" M 446.81 458.00 C 448.05 457.15 449.40 456.45 450.96 456.66 C 464.73 456.63 478.51 456.37 492.28 456.70 L 492.60 458.00 L 446.81 458.00 Z" />
</g>
<g id="#8d8d8dff">
<path fill="#8d8d8d" opacity="1.00" d=" M 0.00 116.60 C 1.05 124.23 -0.21 131.99 1.29 139.57 C 0.95 145.57 2.39 151.81 0.62 157.63 C 0.47 157.11 0.16 156.05 0.00 155.53 L 0.00 116.60 Z" />
<path fill="#8d8d8d" opacity="1.00" d=" M 1.35 178.68 C 2.39 191.39 0.95 204.19 2.35 216.88 C 2.44 232.77 3.32 248.67 2.70 264.55 C 0.24 259.81 2.09 254.07 1.47 248.92 C 1.47 239.29 1.32 229.66 0.98 220.03 C 1.17 212.69 1.31 205.34 1.09 197.99 C 1.11 191.55 0.11 185.06 1.35 178.68 Z" />
<path fill="#8d8d8d" opacity="1.00" d=" M 307.57 404.50 C 307.84 404.17 308.37 403.49 308.63 403.15 C 309.53 409.08 309.09 415.08 309.18 421.05 C 309.06 428.34 309.70 435.70 308.36 442.93 C 307.93 441.33 307.53 439.71 307.57 438.05 C 307.58 426.87 307.68 415.68 307.57 404.50 Z" />
</g>
<g id="#aacffaff">
<path fill="#aacffa" opacity="1.00" d=" M 381.44 122.30 C 382.57 121.41 383.93 120.92 385.20 120.27 C 386.03 121.43 386.91 122.57 387.57 123.85 C 388.17 126.29 386.86 128.52 385.79 130.61 C 385.20 130.60 384.03 130.59 383.44 130.58 C 381.55 128.34 379.79 125.18 381.44 122.30 Z" />
</g>
<g id="#292929ff">
<path fill="#292929" opacity="1.00" d=" M 1.29 139.57 C 1.77 135.53 1.18 131.28 2.79 127.44 C 3.34 135.97 2.86 144.52 3.24 153.06 C 4.36 173.01 2.77 193.06 4.65 212.97 C 4.60 234.98 4.67 256.99 4.73 278.99 C 4.81 280.86 5.22 282.68 5.57 284.51 C 5.96 308.56 6.36 332.61 6.38 356.66 C 6.01 359.76 5.68 362.86 5.45 365.98 C 4.96 360.87 5.36 355.69 4.40 350.63 C 4.33 346.91 4.01 343.20 3.65 339.50 C 5.15 333.04 3.35 326.48 3.65 319.96 C 3.14 307.18 3.78 294.36 2.68 281.62 C 2.74 275.93 2.56 270.24 2.70 264.55 C 3.32 248.67 2.44 232.77 2.35 216.88 C 0.95 204.19 2.39 191.39 1.35 178.68 C 0.70 171.68 0.64 164.66 0.62 157.63 C 2.39 151.81 0.95 145.57 1.29 139.57 Z" />
</g>
<g id="#1c3364ff">
<path fill="#1c3364" opacity="1.00" d=" M 358.01 133.47 C 355.57 133.22 356.34 129.80 357.40 128.36 C 357.96 128.67 359.10 129.29 359.66 129.59 C 359.61 131.04 359.79 133.00 358.01 133.47 Z" />
</g>
<g id="#6078a9ff">
<path fill="#6078a9" opacity="1.00" d=" M 180.78 130.46 C 183.59 131.04 185.98 128.76 188.69 129.28 C 188.94 131.00 188.29 132.70 186.69 133.52 C 184.17 134.30 181.48 133.84 178.93 133.46 L 179.87 133.40 C 182.84 133.19 186.57 133.80 188.02 130.42 C 186.30 130.97 184.61 131.55 182.91 132.16 C 182.19 131.60 181.48 131.04 180.78 130.46 Z" />
</g>
<g id="#1e3162ff">
<path fill="#1e3162" opacity="1.00" d=" M 327.29 130.62 C 328.57 130.31 329.85 130.01 331.14 129.73 L 331.56 130.41 C 331.85 130.88 332.43 131.82 332.72 132.29 C 332.85 131.82 333.12 130.89 333.25 130.42 C 334.36 130.39 335.47 130.39 336.59 130.42 C 336.60 130.97 336.63 132.06 336.65 132.61 C 333.55 132.66 330.46 132.68 327.37 132.64 C 327.35 132.14 327.31 131.12 327.29 130.62 Z" />
</g>
<g id="#1a2152ff">
<path fill="#1a2152" opacity="1.00" d=" M 156.04 137.80 C 177.68 137.76 199.33 137.69 220.98 137.64 C 223.52 137.68 226.10 137.41 228.63 137.87 C 230.38 138.26 232.15 138.64 233.95 138.67 C 253.00 138.67 272.05 138.46 291.09 139.03 C 292.30 139.25 293.47 139.61 294.61 140.13 C 291.74 140.57 288.83 140.50 285.95 140.49 C 240.94 140.60 195.94 140.77 150.93 140.83 C 129.64 141.45 108.32 141.06 87.02 141.30 C 85.14 141.39 83.29 141.08 81.48 140.59 C 81.51 140.05 81.55 138.99 81.57 138.46 C 106.39 137.95 131.23 138.69 156.04 137.80 Z" />
</g>
<g id="#051543ff">
<path fill="#051543" opacity="1.00" d=" M 228.63 137.87 C 278.41 137.20 328.24 137.62 378.03 137.22 C 380.36 137.03 382.68 136.65 385.04 136.69 C 401.39 136.76 417.76 136.56 434.11 136.70 C 435.91 137.08 436.11 139.77 434.01 139.50 C 407.33 139.67 380.65 139.65 353.97 139.67 C 337.01 140.87 319.96 140.13 302.96 140.39 C 300.18 140.28 297.32 140.78 294.61 140.13 C 293.47 139.61 292.30 139.25 291.09 139.03 C 272.05 138.46 253.00 138.67 233.95 138.67 C 232.15 138.64 230.38 138.26 228.63 137.87 Z" />
</g>
<g id="#8697beff">
<path fill="#8697be" opacity="1.00" d=" M 496.84 145.42 L 497.78 144.58 C 498.41 151.71 497.75 158.85 497.72 165.99 C 497.48 187.65 497.46 209.31 497.36 230.97 C 495.76 246.93 496.77 263.01 496.31 279.02 C 495.02 293.48 495.80 308.02 495.38 322.52 C 494.23 331.98 496.06 341.76 493.78 351.05 C 490.21 350.44 486.57 350.67 482.97 350.65 C 454.65 350.65 426.33 350.68 398.01 350.77 C 394.57 350.83 391.07 350.91 387.75 349.90 C 422.88 349.14 458.06 349.99 493.20 349.38 L 493.32 348.01 C 493.73 341.72 493.20 335.41 493.67 329.11 C 494.30 322.09 493.40 315.02 494.25 308.01 C 494.81 291.68 494.32 275.33 494.82 259.01 C 496.26 234.00 495.11 208.95 496.19 183.94 C 496.57 171.10 496.14 158.24 496.84 145.42 Z" />
</g>
<g id="#e5e3e4ff">
<path fill="#e5e3e4" opacity="1.00" d=" M 25.48 162.63 C 27.41 192.70 25.68 222.88 27.38 252.95 C 27.33 285.40 28.62 317.82 28.41 350.26 C 28.42 350.59 28.42 351.25 28.43 351.58 C 29.49 351.82 30.55 352.04 31.63 352.23 C 34.73 352.84 37.89 352.94 41.05 352.87 C 177.04 352.58 313.03 352.83 449.03 352.76 C 464.36 352.68 479.70 352.98 495.03 352.56 C 494.82 352.31 494.42 351.82 494.21 351.57 L 493.78 351.05 C 496.06 341.76 494.23 331.98 495.38 322.52 C 496.72 325.72 497.55 329.10 497.83 332.55 C 497.61 342.48 497.47 352.43 497.69 362.36 C 497.39 378.80 497.44 395.23 497.36 411.67 C 497.34 416.13 496.95 420.56 496.51 425.00 C 496.26 435.99 496.29 447.00 496.09 458.00 L 492.60 458.00 L 492.28 456.70 C 492.18 456.34 491.98 455.62 491.88 455.26 C 472.58 454.78 453.26 455.62 433.96 454.92 C 422.97 455.49 411.97 455.33 400.97 455.33 C 397.64 455.27 394.26 455.15 391.01 455.99 C 387.36 456.68 383.68 455.76 380.02 456.01 C 372.33 456.75 364.65 455.47 356.96 456.20 C 249.31 456.45 141.67 456.49 34.02 456.58 C 32.39 456.50 30.96 457.34 29.53 458.00 L 24.60 458.00 C 24.34 443.02 24.68 428.02 23.75 413.07 C 23.76 392.61 23.54 372.15 23.53 351.69 C 24.37 345.47 23.74 339.20 23.78 332.96 C 23.65 315.77 23.21 298.55 23.54 281.38 C 23.06 282.72 22.62 284.08 22.24 285.46 C 22.32 283.40 22.30 281.34 22.27 279.29 C 22.43 271.52 22.32 263.75 22.19 255.98 C 21.97 232.31 22.13 208.64 21.98 184.98 C 22.14 178.59 21.68 172.17 22.39 165.80 C 22.87 168.97 23.28 172.18 24.43 175.19 C 24.92 171.01 24.75 166.78 25.48 162.63 M 181.28 363.77 C 181.45 366.49 180.66 369.87 183.26 371.73 C 185.69 374.49 189.72 373.73 192.93 373.31 C 194.85 371.31 197.23 368.98 196.78 365.93 C 196.12 362.37 192.91 358.82 189.00 359.36 C 185.59 358.73 183.17 361.36 181.28 363.77 M 304.49 360.62 C 303.23 361.61 301.88 362.46 300.47 363.21 C 300.49 365.63 300.51 368.06 300.52 370.49 C 301.98 371.16 303.44 371.83 304.91 372.52 C 306.18 371.78 307.83 371.48 308.70 370.20 C 310.28 368.28 309.46 365.50 310.04 363.25 C 312.77 366.03 309.81 371.17 314.06 372.82 C 315.45 371.92 316.31 370.53 316.91 369.02 C 317.80 370.15 318.56 371.37 319.42 372.53 C 320.52 372.60 321.48 371.98 322.49 371.63 C 322.39 368.18 323.42 364.86 323.75 361.45 C 323.15 361.42 321.95 361.36 321.35 361.32 C 321.00 362.57 320.64 363.81 320.28 365.06 C 319.30 364.05 318.85 362.70 318.32 361.45 C 317.84 361.42 316.89 361.36 316.42 361.33 C 315.64 362.46 316.07 365.16 314.21 365.03 C 313.91 363.82 313.65 362.61 313.41 361.40 C 312.52 361.39 311.62 361.39 310.74 361.40 C 310.27 362.02 309.33 363.26 308.86 363.88 C 308.48 363.36 307.73 362.30 307.35 361.78 C 306.33 361.53 305.35 361.20 304.49 360.62 M 330.40 363.73 C 330.45 365.55 330.46 367.37 330.45 369.20 C 332.90 373.24 338.56 375.24 342.61 372.31 C 344.95 371.02 345.43 368.24 346.44 366.01 C 345.33 364.04 344.70 361.62 342.67 360.37 C 340.49 358.53 337.43 359.57 334.84 359.33 C 333.22 360.65 331.74 362.13 330.40 363.73 M 222.55 361.57 C 221.54 363.38 220.53 365.18 219.51 366.98 C 220.81 369.59 222.51 372.88 226.01 372.47 C 228.89 372.88 230.11 369.01 228.71 366.96 C 228.33 365.63 226.37 366.54 225.36 366.20 C 226.02 367.57 226.47 369.01 226.72 370.52 C 225.35 370.40 224.16 369.86 223.16 368.89 C 223.28 367.05 223.30 365.14 224.21 363.48 C 225.74 363.41 227.26 363.33 228.79 363.23 C 227.79 360.46 224.71 361.78 222.55 361.57 M 231.35 361.53 C 231.23 364.97 231.24 368.42 231.24 371.88 C 231.85 371.84 233.06 371.75 233.67 371.71 C 233.61 370.91 233.49 369.31 233.44 368.51 C 234.73 368.40 236.02 368.31 237.33 368.26 C 237.25 370.08 237.13 373.96 240.01 371.94 C 240.52 368.46 240.30 364.91 239.73 361.45 C 239.18 361.46 238.09 361.48 237.55 361.49 C 237.25 362.89 237.38 364.60 236.13 365.60 C 233.78 366.06 233.45 363.18 233.40 361.54 C 232.89 361.54 231.87 361.53 231.35 361.53 M 204.78 362.92 C 204.87 366.01 203.42 370.13 206.06 372.43 C 207.73 371.40 207.13 369.01 207.62 367.36 C 208.26 367.44 209.54 367.61 210.18 367.70 C 212.35 368.10 211.44 370.34 211.50 371.87 C 211.85 371.83 212.55 371.74 212.90 371.70 C 213.75 368.49 213.12 365.00 213.00 361.70 C 211.32 362.40 211.54 364.07 211.51 365.57 C 210.15 365.60 208.80 365.64 207.45 365.68 C 207.24 364.39 207.02 363.11 206.79 361.84 C 206.29 362.11 205.28 362.65 204.78 362.92 M 215.66 362.40 C 215.58 365.62 215.49 368.87 215.82 372.09 C 216.72 372.29 217.63 372.46 218.55 372.62 C 218.65 368.90 218.65 365.18 218.49 361.48 C 217.78 361.71 216.36 362.17 215.66 362.40 M 292.38 372.38 C 294.56 372.34 296.75 372.35 298.94 372.34 C 298.18 370.76 296.46 370.56 294.97 370.09 C 293.46 367.25 295.93 363.19 292.90 360.97 C 290.87 364.38 291.66 368.67 292.38 372.38 M 163.48 398.66 C 162.14 399.99 160.82 401.34 159.55 402.73 C 159.48 414.52 159.61 426.31 159.56 438.09 C 159.27 440.67 160.93 444.25 163.99 443.75 C 177.06 443.82 190.15 444.00 203.22 443.62 C 203.97 442.87 204.73 442.12 205.50 441.38 C 206.04 428.38 205.69 415.34 205.67 402.32 C 204.61 401.32 203.56 400.31 202.50 399.32 C 202.51 399.14 202.54 398.78 202.55 398.59 C 189.53 398.69 176.50 398.58 163.48 398.66 M 238.41 398.60 C 236.38 400.57 233.92 402.86 234.35 406.00 C 234.41 416.99 234.28 428.00 234.41 439.00 C 234.66 440.90 235.40 443.88 237.91 443.63 C 246.93 444.04 255.98 443.69 265.01 443.79 C 269.36 443.66 273.76 444.13 278.08 443.37 C 280.46 441.82 280.21 438.55 280.36 436.05 C 280.30 425.36 280.46 414.67 280.29 403.99 C 280.41 401.81 278.89 400.13 277.58 398.61 C 264.53 398.53 251.47 398.60 238.41 398.60 M 389.70 398.54 C 388.57 400.63 386.36 402.37 386.48 404.94 C 386.39 416.28 386.32 427.63 386.40 438.97 C 385.96 441.55 388.26 444.12 390.92 443.62 C 401.96 443.72 413.01 443.60 424.05 443.66 C 426.56 443.60 429.75 443.90 431.23 441.38 C 431.60 439.90 431.85 438.39 432.25 436.93 C 432.44 425.27 432.49 413.59 432.36 401.93 C 431.58 400.84 430.83 399.75 430.10 398.65 C 416.64 398.21 403.16 398.51 389.70 398.54 M 86.40 404.00 C 86.29 416.70 86.18 429.41 86.65 442.10 C 87.71 442.90 88.75 443.73 89.80 444.56 C 102.58 444.49 115.37 444.74 128.14 444.40 C 131.98 443.63 132.75 439.36 132.65 436.06 C 132.53 425.28 132.63 414.50 132.41 403.73 C 131.94 402.80 131.48 401.87 131.03 400.94 C 129.51 399.97 128.02 398.54 126.08 398.66 C 114.32 398.59 102.57 398.75 90.82 398.61 C 89.07 400.07 86.24 401.31 86.40 404.00 M 309.46 402.77 C 309.56 415.54 309.38 428.32 309.54 441.09 C 309.88 441.67 310.56 442.83 310.91 443.41 C 318.92 444.06 326.98 443.58 335.01 443.72 C 341.04 443.57 347.10 444.11 353.10 443.25 C 353.80 441.82 354.54 440.42 355.35 439.05 C 355.57 427.68 355.46 416.30 355.52 404.93 C 355.93 402.24 353.85 400.29 352.25 398.47 C 340.84 398.55 329.42 398.52 318.01 398.51 C 316.36 398.66 314.54 398.17 313.01 398.95 C 311.65 400.04 310.59 401.44 309.46 402.77 M 307.57 404.50 C 307.68 415.68 307.58 426.87 307.57 438.05 C 307.53 439.71 307.93 441.33 308.36 442.93 C 309.70 435.70 309.06 428.34 309.18 421.05 C 309.09 415.08 309.53 409.08 308.63 403.15 C 308.37 403.49 307.84 404.17 307.57 404.50 Z" />
</g>
<g id="#303031ff">
<path fill="#303031" opacity="1.00" d=" M 516.67 180.93 C 516.75 177.02 516.11 172.88 518.00 169.27 L 518.00 249.85 C 517.50 269.43 517.62 289.03 516.93 308.59 C 515.88 317.70 516.95 326.90 515.71 336.00 C 515.55 356.67 514.70 377.35 515.28 398.02 C 514.46 406.85 514.36 415.74 514.36 424.61 C 514.71 423.73 515.05 422.85 515.38 421.96 C 515.21 425.41 515.20 428.88 515.20 432.34 C 515.21 435.53 515.35 438.77 514.57 441.90 C 514.15 447.25 514.30 452.63 514.27 458.00 L 511.81 458.00 C 511.46 439.65 511.69 421.29 512.12 402.95 C 513.37 389.67 512.10 376.29 513.57 363.04 C 513.88 344.05 513.18 325.01 514.66 306.05 C 514.64 287.70 514.77 269.35 515.06 251.00 C 515.79 238.00 516.08 224.98 516.06 211.97 C 516.91 201.64 516.64 191.28 516.67 180.93 Z" />
</g>
<g id="#101444ff">
<path fill="#101444" opacity="1.00" d=" M 323.98 191.83 C 325.40 191.62 326.88 191.46 328.04 190.52 C 332.52 189.65 336.74 191.13 341.10 191.77 C 347.53 195.58 353.14 201.14 355.86 208.20 C 356.66 210.14 357.44 212.08 358.24 214.01 C 358.50 218.08 360.06 221.93 360.29 226.01 C 361.22 236.58 360.74 247.24 359.42 257.76 C 359.24 258.05 358.89 258.63 358.71 258.92 C 358.08 265.51 356.06 271.96 352.94 277.81 C 349.66 283.71 345.07 289.14 339.02 292.35 C 338.47 292.41 337.37 292.54 336.82 292.60 L 335.95 293.42 C 330.64 294.00 325.21 293.88 319.88 293.51 L 319.13 292.63 C 318.56 292.60 317.42 292.53 316.85 292.49 C 313.21 290.19 309.72 287.54 307.13 284.07 C 309.31 281.92 311.25 279.54 313.00 277.03 C 315.97 279.22 318.72 281.71 322.01 283.46 C 325.96 283.61 329.93 283.70 333.88 283.34 C 337.58 281.38 340.81 278.71 343.20 275.24 C 343.98 273.09 345.00 271.03 346.24 269.10 C 346.41 268.05 346.59 266.99 346.77 265.95 C 347.87 263.02 348.17 259.88 349.24 256.95 C 349.64 252.86 349.76 248.75 349.64 244.65 C 346.92 246.56 344.82 249.21 342.00 250.97 C 338.42 253.44 334.14 254.47 329.97 255.42 C 325.18 254.50 320.20 253.79 316.20 250.71 C 310.78 246.86 308.47 240.16 306.74 234.03 C 306.06 228.06 306.19 222.01 306.54 216.02 C 308.61 206.03 314.25 196.03 323.98 191.83 M 326.06 202.15 C 322.67 203.63 320.80 206.87 318.84 209.81 C 315.74 220.03 314.75 232.53 321.58 241.51 C 324.35 243.45 327.41 245.81 331.02 245.31 C 334.16 245.30 337.27 244.57 340.14 243.27 C 343.85 240.47 347.34 237.21 349.62 233.11 C 350.39 222.82 348.46 211.62 341.30 203.75 C 339.22 202.73 337.15 201.70 335.14 200.57 C 332.03 200.61 328.65 200.02 326.06 202.15 Z" />
</g>
<g id="#101345ff">
<path fill="#101345" opacity="1.00" d=" M 148.87 193.85 C 154.62 190.73 161.85 190.40 168.03 192.48 C 173.06 193.54 176.38 197.74 180.47 200.47 C 180.46 200.98 180.44 201.98 180.43 202.48 C 178.61 204.35 176.96 206.38 175.53 208.56 C 175.03 208.55 174.04 208.53 173.55 208.52 C 169.98 203.74 163.78 201.23 157.92 201.54 C 154.99 203.07 151.55 203.66 149.04 205.95 C 144.87 209.10 143.06 214.16 140.95 218.73 C 139.26 226.41 137.47 234.26 137.85 242.15 C 141.55 239.87 143.95 235.89 148.00 234.08 C 152.76 231.55 158.95 229.75 163.99 232.35 C 165.03 232.45 166.08 232.54 167.13 232.63 C 169.27 233.92 171.51 235.08 173.46 236.65 C 176.47 239.48 178.43 243.20 180.33 246.82 C 183.27 259.02 183.99 273.36 176.28 284.04 C 173.13 288.88 168.54 292.86 162.92 294.51 C 158.57 294.76 154.19 294.70 149.84 294.46 C 147.22 292.98 144.26 292.04 142.09 289.87 C 138.57 287.10 136.42 283.10 133.89 279.50 C 127.29 265.69 127.07 250.04 127.59 235.04 C 128.90 225.69 129.91 215.93 134.85 207.65 C 138.18 201.97 142.31 195.98 148.87 193.85 M 138.89 252.08 C 136.42 253.70 137.55 257.07 137.86 259.48 C 139.91 266.04 139.75 274.18 145.21 279.05 C 148.06 283.11 153.11 285.85 158.08 285.72 C 163.54 284.55 168.17 280.21 169.88 274.89 C 172.26 269.58 171.63 263.67 171.62 258.03 C 171.33 251.48 168.25 244.40 161.99 241.57 C 158.30 241.34 154.59 241.34 150.89 241.55 C 145.91 243.87 142.11 247.72 138.89 252.08 Z" />
</g>
<g id="#101445ff">
<path fill="#101445" opacity="1.00" d=" M 235.50 192.61 C 253.88 192.44 272.27 192.57 290.65 192.45 C 290.75 195.33 290.75 198.21 290.58 201.09 C 281.58 214.67 273.05 229.28 270.40 245.57 C 270.19 245.53 269.77 245.45 269.56 245.41 C 268.67 253.59 266.42 261.67 266.40 269.97 C 264.93 277.41 265.33 285.03 264.46 292.55 C 260.76 292.59 257.06 292.60 253.35 292.54 C 252.92 283.50 255.07 274.65 254.74 265.61 L 255.52 265.71 C 256.09 260.77 257.53 255.99 257.95 251.04 C 259.94 244.11 261.44 236.99 264.40 230.38 C 265.91 226.98 267.54 223.64 269.10 220.25 C 270.90 215.60 273.73 211.46 275.81 206.93 C 276.75 206.32 277.07 205.45 276.75 204.32 C 264.14 204.27 251.53 204.38 238.92 204.39 C 237.63 204.43 236.42 204.14 235.29 203.51 C 235.46 199.88 235.42 196.24 235.50 192.61 Z" />
</g>
<g id="#a9cefbff">
<path fill="#a9cefb" opacity="1.00" d=" M 326.06 202.15 C 328.65 200.02 332.03 200.61 335.14 200.57 C 337.15 201.70 339.22 202.73 341.30 203.75 C 348.46 211.62 350.39 222.82 349.62 233.11 C 347.34 237.21 343.85 240.47 340.14 243.27 C 337.27 244.57 334.16 245.30 331.02 245.31 C 327.41 245.81 324.35 243.45 321.58 241.51 C 314.75 232.53 315.74 220.03 318.84 209.81 C 320.80 206.87 322.67 203.63 326.06 202.15 Z" />
</g>
<g id="#565656ff">
<path fill="#565656" opacity="1.00" d=" M 5.57 284.51 C 6.85 271.73 5.32 258.81 6.52 246.00 C 6.97 259.01 6.35 272.07 7.64 285.04 C 7.63 297.66 7.85 310.29 7.84 322.92 C 7.84 325.14 8.27 327.34 8.69 329.51 C 9.02 341.01 9.11 352.51 9.62 364.00 C 9.61 378.34 9.76 392.69 10.59 407.01 C 10.65 424.01 10.57 441.01 11.18 458.00 L 7.40 458.00 C 8.03 447.35 7.39 436.65 7.69 425.99 C 7.99 422.27 6.50 418.72 6.71 415.01 C 6.79 406.35 6.59 397.69 6.84 389.04 C 7.72 383.75 7.14 378.39 7.23 373.06 C 7.27 367.58 7.06 362.10 6.38 356.66 C 6.36 332.61 5.96 308.56 5.57 284.51 Z" />
</g>
<g id="#dcdbddff">
<path fill="#dcdbdd" opacity="1.00" d=" M 0.00 249.00 L 1.47 248.92 C 2.09 254.07 0.24 259.81 2.70 264.55 C 2.56 270.24 2.74 275.93 2.68 281.62 C 2.03 286.41 1.69 291.25 1.85 296.09 C 2.21 303.34 0.90 310.68 2.72 317.82 C 3.60 320.00 2.06 321.28 0.00 321.36 L 0.00 249.00 Z" />
</g>
<g id="#f1f1f3ff">
<path fill="#f1f1f3" opacity="1.00" d=" M 516.93 308.59 C 517.62 289.03 517.50 269.43 518.00 249.85 L 518.00 429.87 C 517.07 430.70 516.14 431.53 515.20 432.34 C 515.20 428.88 515.21 425.41 515.38 421.96 C 516.11 410.67 515.01 399.34 516.23 388.08 C 516.38 371.05 516.56 354.02 517.06 337.00 C 516.96 327.53 517.53 318.05 516.93 308.59 Z" />
</g>
<g id="#6274a4ff">
<path fill="#6274a4" opacity="1.00" d=" M 137.86 259.48 C 137.55 257.07 136.42 253.70 138.89 252.08 C 139.24 255.03 139.36 258.00 139.56 260.97 C 139.92 267.37 142.78 273.23 145.21 279.05 C 139.75 274.18 139.91 266.04 137.86 259.48 Z" />
</g>
<g id="#0d1644ff">
<path fill="#0d1644" opacity="1.00" d=" M 404.36 255.27 C 405.44 255.34 406.53 255.41 407.63 255.49 C 407.52 260.20 407.59 264.92 407.41 269.64 C 411.83 269.94 416.28 270.41 420.70 269.72 C 420.71 264.92 420.42 260.08 421.39 255.34 C 422.55 255.29 423.71 255.24 424.89 255.19 C 425.66 266.99 424.42 278.80 424.52 290.61 C 423.53 290.58 421.54 290.52 420.55 290.49 C 420.61 285.15 420.66 279.80 420.61 274.45 C 416.23 274.50 411.86 274.49 407.48 274.49 C 407.44 279.86 407.39 285.23 407.43 290.61 C 406.46 290.57 404.54 290.50 403.58 290.47 C 403.68 278.72 404.57 267.02 404.36 255.27 Z" />
</g>
<g id="#aacdf8ff">
<path fill="#aacdf8" opacity="1.00" d=" M 382.34 270.48 C 384.41 268.93 387.38 265.81 389.95 268.23 C 393.71 271.00 392.34 276.04 392.52 280.02 C 392.68 283.19 390.83 287.92 387.07 287.71 C 385.37 287.95 383.91 286.98 382.46 286.32 C 381.11 281.15 382.66 275.76 382.34 270.48 Z" />
</g>
<g id="#0f1344ff">
<path fill="#0f1344" opacity="1.00" d=" M 201.44 280.88 C 203.01 276.30 208.24 275.82 212.35 276.51 C 214.86 278.97 216.72 282.33 216.40 285.93 C 216.72 289.41 214.26 292.10 212.13 294.50 C 209.16 294.24 205.31 295.61 203.21 292.81 C 200.08 289.69 201.32 284.83 201.44 280.88 Z" />
</g>
<g id="#171616ff">
<path fill="#171616" opacity="1.00" d=" M 20.65 289.06 C 20.80 285.77 19.73 281.95 22.27 279.29 C 22.30 281.34 22.32 283.40 22.24 285.46 C 21.67 301.85 22.61 318.26 22.35 334.67 C 21.51 333.21 20.62 331.72 20.78 329.97 C 20.63 316.33 20.66 302.69 20.65 289.06 Z" />
</g>
<g id="#949393ff">
<path fill="#949393" opacity="1.00" d=" M 23.54 281.38 C 23.21 298.55 23.65 315.77 23.78 332.96 C 23.74 339.20 24.37 345.47 23.53 351.69 C 21.53 346.29 23.26 340.29 22.35 334.67 C 22.61 318.26 21.67 301.85 22.24 285.46 C 22.62 284.08 23.06 282.72 23.54 281.38 Z" />
</g>
<g id="#b5b5b5ff">
<path fill="#b5b5b5" opacity="1.00" d=" M 2.68 281.62 C 3.78 294.36 3.14 307.18 3.65 319.96 C 3.35 326.48 5.15 333.04 3.65 339.50 C 2.81 335.03 3.19 330.48 2.79 325.99 C 2.82 324.38 0.94 324.00 0.00 323.11 L 0.00 321.36 C 2.06 321.28 3.60 320.00 2.72 317.82 C 0.90 310.68 2.21 303.34 1.85 296.09 C 1.69 291.25 2.03 286.41 2.68 281.62 Z" />
</g>
<g id="#888889ff">
<path fill="#888889" opacity="1.00" d=" M 515.71 336.00 C 516.95 326.90 515.88 317.70 516.93 308.59 C 517.53 318.05 516.96 327.53 517.06 337.00 C 516.56 354.02 516.38 371.05 516.23 388.08 C 515.01 399.34 516.11 410.67 515.38 421.96 C 515.05 422.85 514.71 423.73 514.36 424.61 C 514.36 415.74 514.46 406.85 515.28 398.02 C 514.70 377.35 515.55 356.67 515.71 336.00 Z" />
</g>
<g id="#f9f9f9ff">
<path fill="#f9f9f9" opacity="1.00" d=" M 0.00 323.11 C 0.94 324.00 2.82 324.38 2.79 325.99 C 3.19 330.48 2.81 335.03 3.65 339.50 C 4.01 343.20 4.33 346.91 4.40 350.63 C 4.11 382.09 4.89 413.56 4.86 445.02 C 4.82 449.36 5.33 453.69 5.88 458.00 L 0.00 458.00 L 0.00 323.11 Z" />
</g>
<g id="#9aa4c5ff">
<path fill="#9aa4c5" opacity="1.00" d=" M 320.39 326.48 C 320.96 326.47 322.11 326.43 322.68 326.41 C 323.45 330.86 322.88 335.42 323.69 339.87 C 322.57 339.48 320.42 339.77 320.43 338.07 C 320.10 334.21 320.38 330.34 320.39 326.48 Z" />
<path fill="#9aa4c5" opacity="1.00" d=" M 391.01 455.99 C 394.26 455.15 397.64 455.27 400.97 455.33 C 411.97 455.33 422.97 455.49 433.96 454.92 C 453.26 455.62 472.58 454.78 491.88 455.26 C 491.98 455.62 492.18 456.34 492.28 456.70 C 478.51 456.37 464.73 456.63 450.96 456.66 C 449.40 456.45 448.05 457.15 446.81 458.00 L 446.22 458.00 C 442.65 455.58 438.11 456.83 434.07 456.55 C 419.57 456.24 405.13 457.99 390.62 457.36 L 391.01 455.99 Z" />
</g>
<g id="#9eb4ecff">
<path fill="#9eb4ec" opacity="1.00" d=" M 327.36 326.48 C 327.92 326.47 329.05 326.46 329.61 326.45 C 329.83 330.78 329.66 335.13 329.92 339.46 C 329.29 339.41 328.03 339.31 327.40 339.27 C 327.20 335.08 327.33 330.89 327.36 326.71 L 327.36 326.48 Z" />
</g>
<g id="#bed1fbff">
<path fill="#bed1fb" opacity="1.00" d=" M 207.80 327.61 C 209.70 327.59 211.61 327.58 213.51 327.58 C 214.77 329.52 216.56 331.47 216.17 333.98 C 216.33 336.78 213.91 338.98 211.39 339.66 L 212.17 338.16 C 214.10 335.37 214.92 330.20 211.00 328.76 C 209.37 327.93 208.37 330.15 207.09 330.74 C 207.21 333.27 207.15 335.97 208.73 338.12 L 209.65 339.64 C 208.03 339.49 206.81 338.40 205.51 337.58 C 205.57 334.95 205.58 332.32 205.60 329.69 C 206.33 328.99 207.07 328.30 207.80 327.61 Z" />
</g>
<g id="#9da4caff">
<path fill="#9da4ca" opacity="1.00" d=" M 219.82 327.78 C 221.99 326.95 224.46 327.56 226.75 327.43 C 227.86 328.69 229.36 330.08 228.81 331.98 C 228.17 333.11 227.33 334.12 226.57 335.18 C 227.28 336.55 230.27 339.74 226.93 339.64 C 225.04 338.75 224.50 335.93 222.45 334.93 C 222.16 336.54 221.90 338.15 221.64 339.78 C 221.13 339.66 220.09 339.44 219.57 339.33 C 219.60 335.50 218.90 331.52 219.82 327.78 M 222.25 329.14 C 222.30 330.69 222.36 332.25 222.42 333.82 C 223.68 333.17 224.94 332.53 226.20 331.92 C 225.96 329.72 224.18 329.19 222.25 329.14 Z" />
</g>
<g id="#acbdedff">
<path fill="#acbded" opacity="1.00" d=" M 232.53 327.61 C 235.14 327.80 239.10 326.26 240.35 329.48 C 240.60 330.96 240.57 332.53 240.18 333.99 C 238.76 335.23 236.74 335.30 235.07 336.01 C 234.51 337.53 234.33 339.39 232.53 339.95 C 232.38 335.83 232.40 331.72 232.53 327.61 M 234.41 329.76 C 234.15 331.48 234.43 334.45 236.99 333.55 C 239.54 333.23 238.21 329.85 237.31 328.49 C 236.58 328.80 235.13 329.44 234.41 329.76 Z" />
<path fill="#acbded" opacity="1.00" d=" M 291.48 331.55 C 292.40 330.57 292.84 328.81 294.16 328.38 C 294.96 329.36 295.90 330.17 296.97 330.83 C 294.10 332.34 294.83 335.58 295.28 338.24 C 294.74 338.57 293.67 339.23 293.13 339.56 C 293.13 337.02 293.21 334.46 292.81 331.95 C 292.48 331.85 291.81 331.65 291.48 331.55 Z" />
<path fill="#acbded" opacity="1.00" d=" M 338.36 329.54 C 339.48 330.22 340.68 330.83 341.56 331.85 C 340.98 333.03 340.41 334.23 339.81 335.40 C 339.15 333.80 339.45 330.91 336.89 331.54 C 334.80 333.01 335.63 335.76 335.69 337.87 C 336.24 338.07 337.35 338.48 337.91 338.69 C 337.18 338.86 335.74 339.20 335.01 339.37 C 332.88 336.72 332.64 333.00 335.39 330.67 C 336.38 330.30 337.37 329.92 338.36 329.54 Z" />
<path fill="#acbded" opacity="1.00" d=" M 269.50 330.43 C 271.62 330.54 274.50 329.75 275.81 331.98 C 277.72 335.41 275.71 339.77 271.91 340.69 C 269.78 339.53 267.31 337.80 267.30 335.10 C 267.57 333.37 268.72 331.95 269.50 330.43 M 271.32 332.18 C 270.68 333.17 270.04 334.16 269.40 335.14 C 270.25 336.28 271.10 337.43 271.94 338.58 C 273.01 337.58 273.86 336.39 274.57 335.11 C 274.25 334.47 273.62 333.17 273.30 332.53 C 272.81 332.44 271.82 332.27 271.32 332.18 Z" />
</g>
<g id="#abb9dcff">
<path fill="#abb9dc" opacity="1.00" d=" M 258.30 327.41 C 260.68 327.63 263.95 326.56 264.94 329.49 C 262.61 329.61 259.11 328.03 257.99 330.95 C 257.26 333.76 257.36 337.65 260.76 338.55 C 262.06 337.78 263.52 337.44 264.99 337.20 C 264.51 338.22 264.19 339.49 262.93 339.82 C 260.27 341.72 257.69 338.82 255.75 337.24 C 255.87 333.79 254.99 329.66 258.30 327.41 Z" />
<path fill="#abb9dc" opacity="1.00" d=" M 182.64 328.36 C 183.60 328.33 184.56 328.31 185.53 328.29 C 185.54 329.03 185.57 330.52 185.58 331.26 C 186.19 331.56 187.42 332.18 188.04 332.48 C 188.66 332.17 189.89 331.55 190.50 331.24 C 190.49 330.47 190.48 328.92 190.47 328.14 C 190.98 328.21 192.00 328.34 192.51 328.41 C 192.89 332.19 192.57 336.00 192.57 339.79 C 192.11 339.66 191.19 339.38 190.73 339.24 C 190.72 337.79 190.72 336.34 190.73 334.90 C 189.07 335.24 185.47 333.56 185.33 336.09 C 185.62 336.55 186.20 337.48 186.49 337.94 C 185.84 338.80 185.19 339.66 184.55 340.53 C 183.92 339.84 183.29 339.15 182.67 338.47 C 182.80 335.10 182.79 331.73 182.64 328.36 Z" />
<path fill="#abb9dc" opacity="1.00" d=" M 308.71 337.28 C 307.21 334.38 309.26 329.31 313.08 330.30 C 316.73 330.03 318.08 334.98 316.49 337.62 C 315.45 338.78 314.19 339.72 313.00 340.73 C 311.42 339.79 309.43 339.15 308.71 337.28 M 311.23 331.94 C 310.62 334.21 310.69 336.55 311.86 338.63 C 314.62 337.92 315.29 335.10 314.34 332.69 C 313.32 332.36 312.28 332.11 311.23 331.94 Z" />
</g>
<g id="#243c79ff">
<path fill="#243c79" opacity="1.00" d=" M 325.68 327.81 C 326.10 327.53 326.94 326.98 327.36 326.71 C 327.33 330.89 327.20 335.08 327.40 339.27 C 326.84 339.42 325.73 339.74 325.17 339.90 C 325.29 335.87 324.95 331.78 325.68 327.81 Z" />
</g>
<g id="#2e4a94ff">
<path fill="#2e4a94" opacity="1.00" d=" M 207.09 330.74 C 208.37 330.15 209.37 327.93 211.00 328.76 C 214.92 330.20 214.10 335.37 212.17 338.16 C 211.31 338.15 209.59 338.13 208.73 338.12 C 207.15 335.97 207.21 333.27 207.09 330.74 Z" />
</g>
<g id="#2f4884ff">
<path fill="#2f4884" opacity="1.00" d=" M 222.25 329.14 C 224.18 329.19 225.96 329.72 226.20 331.92 C 224.94 332.53 223.68 333.17 222.42 333.82 C 222.36 332.25 222.30 330.69 222.25 329.14 Z" />
<path fill="#2f4884" opacity="1.00" d=" M 311.23 331.94 C 312.28 332.11 313.32 332.36 314.34 332.69 C 315.29 335.10 314.62 337.92 311.86 338.63 C 310.69 336.55 310.62 334.21 311.23 331.94 Z" />
</g>
<g id="#3d5284ff">
<path fill="#3d5284" opacity="1.00" d=" M 234.41 329.76 C 235.13 329.44 236.58 328.80 237.31 328.49 C 238.21 329.85 239.54 333.23 236.99 333.55 C 234.43 334.45 234.15 331.48 234.41 329.76 Z" />
</g>
<g id="#d5e7fdff">
<path fill="#d5e7fd" opacity="1.00" d=" M 304.38 329.32 C 305.04 329.77 305.32 330.61 305.81 331.24 C 304.30 331.55 303.06 332.48 302.34 333.84 C 302.14 336.05 302.91 338.81 300.76 340.33 C 300.51 337.05 300.46 333.76 300.43 330.48 C 301.87 330.47 303.60 330.91 304.38 329.32 Z" />
</g>
<g id="#879acdff">
<path fill="#879acd" opacity="1.00" d=" M 171.00 330.35 C 173.34 330.24 175.70 330.28 178.03 330.66 C 178.76 332.70 180.10 334.85 179.20 337.08 C 178.60 340.02 175.31 340.49 172.94 341.27 C 172.99 340.38 173.10 338.60 173.15 337.71 C 173.88 337.75 175.35 337.82 176.08 337.85 C 176.40 336.00 176.31 334.12 175.93 332.28 C 175.11 332.41 174.29 332.53 173.47 332.63 C 171.61 330.97 171.21 334.53 173.37 333.51 C 173.27 334.40 173.06 336.19 172.96 337.08 C 171.38 338.24 171.24 340.39 172.52 341.84 L 173.34 343.27 C 172.80 343.38 171.73 343.60 171.19 343.71 C 169.82 339.45 170.32 334.72 171.00 330.35 Z" />
</g>
<g id="#c2d5fbff">
<path fill="#c2d5fb" opacity="1.00" d=" M 280.34 330.53 C 282.68 330.58 285.04 330.58 287.39 330.61 C 287.24 333.57 288.35 337.04 286.86 339.69 C 286.59 339.57 286.05 339.32 285.78 339.20 C 285.44 336.38 286.76 332.62 283.79 330.84 C 282.48 333.34 282.25 336.14 282.31 338.91 C 281.81 339.13 280.82 339.58 280.32 339.80 C 280.08 336.71 280.09 333.61 280.34 330.53 Z" />
<path fill="#c2d5fb" opacity="1.00" d=" M 345.05 330.47 C 346.89 330.52 348.74 330.56 350.59 330.59 C 350.60 330.74 350.62 331.04 350.63 331.20 C 346.39 331.94 346.46 336.60 346.41 339.95 C 343.33 337.91 345.32 333.55 345.05 330.47 Z" />
</g>
<g id="#364c88ff">
<path fill="#364c88" opacity="1.00" d=" M 296.97 330.83 C 298.08 330.42 299.27 330.50 300.43 330.48 C 300.46 333.76 300.51 337.05 300.76 340.33 C 299.95 339.85 299.16 339.36 298.37 338.87 C 297.46 337.98 296.43 337.77 295.28 338.24 C 294.83 335.58 294.10 332.34 296.97 330.83 Z" />
</g>
<g id="#bccff8ff">
<path fill="#bccff8" opacity="1.00" d=" M 173.37 333.51 C 171.21 334.53 171.61 330.97 173.47 332.63 L 173.37 333.51 Z" />
</g>
<g id="#293a6fff">
<path fill="#293a6f" opacity="1.00" d=" M 173.47 332.63 C 174.29 332.53 175.11 332.41 175.93 332.28 C 176.31 334.12 176.40 336.00 176.08 337.85 C 175.35 337.82 173.88 337.75 173.15 337.71 L 172.96 337.08 C 173.06 336.19 173.27 334.40 173.37 333.51 L 173.47 332.63 Z" />
</g>
<g id="#233773ff">
<path fill="#233773" opacity="1.00" d=" M 271.32 332.18 C 271.82 332.27 272.81 332.44 273.30 332.53 C 273.62 333.17 274.25 334.47 274.57 335.11 C 273.86 336.39 273.01 337.58 271.94 338.58 C 271.10 337.43 270.25 336.28 269.40 335.14 C 270.04 334.16 270.68 333.17 271.32 332.18 Z" />
<path fill="#233773" opacity="1.00" d=" M 30.02 350.32 C 30.19 346.88 30.37 343.45 30.52 340.01 C 30.58 342.59 30.52 345.21 31.10 347.76 C 34.98 348.72 39.01 348.23 42.96 348.30 C 141.62 348.21 240.28 348.10 338.94 348.16 C 390.40 348.03 441.86 348.60 493.32 348.01 L 493.20 349.38 C 458.06 349.99 422.88 349.14 387.75 349.90 C 370.18 350.62 352.56 350.03 334.98 350.24 C 233.32 350.22 131.67 350.47 30.02 350.32 Z" />
<path fill="#233773" opacity="1.00" d=" M 204.78 362.92 C 205.28 362.65 206.29 362.11 206.79 361.84 C 207.02 363.11 207.24 364.39 207.45 365.68 C 208.80 365.64 210.15 365.60 211.51 365.57 C 211.54 364.07 211.32 362.40 213.00 361.70 C 213.12 365.00 213.75 368.49 212.90 371.70 C 212.55 371.74 211.85 371.83 211.50 371.87 C 211.44 370.34 212.35 368.10 210.18 367.70 C 209.54 367.61 208.26 367.44 207.62 367.36 C 207.13 369.01 207.73 371.40 206.06 372.43 C 203.42 370.13 204.87 366.01 204.78 362.92 Z" />
</g>
<g id="#30456dff">
<path fill="#30456d" opacity="1.00" d=" M 282.31 338.91 C 282.25 336.14 282.48 333.34 283.79 330.84 C 286.76 332.62 285.44 336.38 285.78 339.20 C 284.64 339.76 283.44 339.12 282.31 338.91 Z" />
</g>
<g id="#b1c3f2ff">
<path fill="#b1c3f2" opacity="1.00" d=" M 172.52 341.84 C 171.24 340.39 171.38 338.24 172.96 337.08 L 173.15 337.71 C 173.10 338.60 172.99 340.38 172.94 341.27 L 172.52 341.84 Z" />
</g>
<g id="#5a72b0ff">
<path fill="#5a72b0" opacity="1.00" d=" M 295.28 338.24 C 296.43 337.77 297.46 337.98 298.37 338.87 C 298.22 341.84 294.62 340.90 293.13 339.56 C 293.67 339.23 294.74 338.57 295.28 338.24 Z" />
</g>
<g id="#a9b7daff">
<path fill="#a9b7da" opacity="1.00" d=" M 28.41 350.26 C 28.82 350.28 29.62 350.31 30.02 350.32 C 131.67 350.47 233.32 350.22 334.98 350.24 C 352.56 350.03 370.18 350.62 387.75 349.90 C 391.07 350.91 394.57 350.83 398.01 350.77 C 426.33 350.68 454.65 350.65 482.97 350.65 C 486.57 350.67 490.21 350.44 493.78 351.05 L 494.21 351.57 C 350.49 351.59 206.76 351.55 63.03 351.71 C 52.57 351.98 42.07 351.31 31.63 352.23 C 30.55 352.04 29.49 351.82 28.43 351.58 C 28.42 351.25 28.42 350.59 28.41 350.26 Z" />
</g>
<g id="#383838ff">
<path fill="#383838" opacity="1.00" d=" M 4.40 350.63 C 5.36 355.69 4.96 360.87 5.45 365.98 C 5.68 362.86 6.01 359.76 6.38 356.66 C 7.06 362.10 7.27 367.58 7.23 373.06 C 7.14 378.39 7.72 383.75 6.84 389.04 C 5.74 396.30 6.59 403.68 6.32 411.00 C 6.63 426.66 6.34 442.33 6.37 458.00 L 5.88 458.00 C 5.33 453.69 4.82 449.36 4.86 445.02 C 4.89 413.56 4.11 382.09 4.40 350.63 Z" />
</g>
<g id="#16151dff">
<path fill="#16151d" opacity="1.00" d=" M 181.28 363.77 C 183.17 361.36 185.59 358.73 189.00 359.36 C 192.91 358.82 196.12 362.37 196.78 365.93 C 197.23 368.98 194.85 371.31 192.93 373.31 C 189.72 373.73 185.69 374.49 183.26 371.73 C 180.66 369.87 181.45 366.49 181.28 363.77 Z" />
</g>
<g id="#111218ff">
<path fill="#111218" opacity="1.00" d=" M 330.40 363.73 C 331.74 362.13 333.22 360.65 334.84 359.33 C 337.43 359.57 340.49 358.53 342.67 360.37 C 344.70 361.62 345.33 364.04 346.44 366.01 C 345.43 368.24 344.95 371.02 342.61 372.31 C 338.56 375.24 332.90 373.24 330.45 369.20 C 330.46 367.37 330.45 365.55 330.40 363.73 Z" />
<path fill="#111218" opacity="1.00" d=" M 163.48 398.66 C 176.50 398.58 189.53 398.69 202.55 398.59 C 202.54 398.78 202.51 399.14 202.50 399.32 C 203.56 400.31 204.61 401.32 205.67 402.32 C 205.69 415.34 206.04 428.38 205.50 441.38 C 204.73 442.12 203.97 442.87 203.22 443.62 C 190.15 444.00 177.06 443.82 163.99 443.75 C 160.93 444.25 159.27 440.67 159.56 438.09 C 159.61 426.31 159.48 414.52 159.55 402.73 C 160.82 401.34 162.14 399.99 163.48 398.66 M 170.35 415.43 C 170.05 419.19 170.09 422.97 170.29 426.73 C 172.69 426.75 175.09 426.73 177.50 426.63 C 177.48 426.10 177.44 425.04 177.42 424.51 L 178.86 424.39 L 179.76 426.48 L 178.88 426.46 C 181.07 427.24 183.52 427.78 185.69 426.58 C 187.42 424.38 186.54 421.48 186.36 418.95 C 186.46 417.69 186.82 416.26 185.41 415.59 C 182.70 414.93 179.61 415.19 178.35 418.08 C 178.20 417.99 177.90 417.81 177.75 417.72 C 177.11 413.96 173.00 415.73 170.35 415.43 M 189.54 416.39 C 188.72 417.24 187.55 418.65 188.23 419.88 L 188.62 420.37 C 188.44 420.84 188.08 421.79 187.90 422.27 C 188.36 423.82 189.02 425.49 190.46 426.39 C 192.11 427.05 193.92 426.63 195.65 426.63 C 195.60 425.55 195.56 424.46 195.52 423.39 C 194.12 423.64 192.72 423.69 191.33 423.54 C 189.92 422.29 189.99 419.79 191.30 418.48 C 192.66 417.85 194.18 418.39 195.60 418.50 C 195.58 417.47 195.56 416.45 195.55 415.43 C 193.57 415.56 191.07 414.71 189.54 416.39 Z" />
</g>
<g id="#5d6686ff">
<path fill="#5d6686" opacity="1.00" d=" M 222.55 361.57 C 224.71 361.78 227.79 360.46 228.79 363.23 C 227.26 363.33 225.74 363.41 224.21 363.48 C 223.30 365.14 223.28 367.05 223.16 368.89 C 224.16 369.86 225.35 370.40 226.72 370.52 C 226.47 369.01 226.02 367.57 225.36 366.20 C 226.37 366.54 228.33 365.63 228.71 366.96 C 230.11 369.01 228.89 372.88 226.01 372.47 C 222.51 372.88 220.81 369.59 219.51 366.98 C 220.53 365.18 221.54 363.38 222.55 361.57 Z" />
</g>
<g id="#4f5a95ff">
<path fill="#4f5a95" opacity="1.00" d=" M 231.35 361.53 C 231.87 361.53 232.89 361.54 233.40 361.54 C 233.45 363.18 233.78 366.06 236.13 365.60 C 237.38 364.60 237.25 362.89 237.55 361.49 C 238.09 361.48 239.18 361.46 239.73 361.45 C 240.30 364.91 240.52 368.46 240.01 371.94 C 237.13 373.96 237.25 370.08 237.33 368.26 C 236.02 368.31 234.73 368.40 233.44 368.51 C 233.49 369.31 233.61 370.91 233.67 371.71 C 233.06 371.75 231.85 371.84 231.24 371.88 C 231.24 368.42 231.23 364.97 231.35 361.53 Z" />
</g>
<g id="#7483a8ff">
<path fill="#7483a8" opacity="1.00" d=" M 310.74 361.40 C 311.62 361.39 312.52 361.39 313.41 361.40 C 313.65 362.61 313.91 363.82 314.21 365.03 C 316.07 365.16 315.64 362.46 316.42 361.33 C 316.89 361.36 317.84 361.42 318.32 361.45 C 318.85 362.70 319.30 364.05 320.28 365.06 C 320.64 363.81 321.00 362.57 321.35 361.32 C 321.95 361.36 323.15 361.42 323.75 361.45 C 323.42 364.86 322.39 368.18 322.49 371.63 C 321.48 371.98 320.52 372.60 319.42 372.53 C 318.56 371.37 317.80 370.15 316.91 369.02 C 316.31 370.53 315.45 371.92 314.06 372.82 C 309.81 371.17 312.77 366.03 310.04 363.25 C 309.46 365.50 310.28 368.28 308.70 370.20 C 308.76 368.09 308.79 365.98 308.86 363.88 C 309.33 363.26 310.27 362.02 310.74 361.40 M 313.21 368.48 C 312.10 369.43 313.35 371.94 314.76 370.88 C 315.84 369.94 314.54 367.56 313.21 368.48 Z" />
</g>
<g id="#ebecf1ff">
<path fill="#ebecf1" opacity="1.00" d=" M 303.58 363.56 C 305.27 362.43 306.43 364.47 307.71 365.27 C 307.64 366.29 307.57 367.32 307.51 368.35 C 306.64 369.16 305.77 369.98 304.90 370.81 C 302.07 369.63 300.98 365.53 303.58 363.56 Z" />
</g>
<g id="#292728ff">
<path fill="#292728" opacity="1.00" d=" M 497.69 362.36 C 499.68 365.18 499.28 368.71 499.34 371.96 C 499.31 383.63 499.39 395.30 499.22 406.96 C 499.37 408.77 498.59 410.39 497.36 411.67 C 497.44 395.23 497.39 378.80 497.69 362.36 Z" />
</g>
<g id="#526187ff">
<path fill="#526187" opacity="1.00" d=" M 313.21 368.48 C 314.54 367.56 315.84 369.94 314.76 370.88 C 313.35 371.94 312.10 369.43 313.21 368.48 Z" />
</g>
<g id="#161721ff">
<path fill="#161721" opacity="1.00" d=" M 238.41 398.60 C 251.47 398.60 264.53 398.53 277.58 398.61 C 278.89 400.13 280.41 401.81 280.29 403.99 C 280.46 414.67 280.30 425.36 280.36 436.05 C 280.21 438.55 280.46 441.82 278.08 443.37 C 273.76 444.13 269.36 443.66 265.01 443.79 C 255.98 443.69 246.93 444.04 237.91 443.63 C 235.40 443.88 234.66 440.90 234.41 439.00 C 234.28 428.00 234.41 416.99 234.35 406.00 C 233.92 402.86 236.38 400.57 238.41 398.60 M 248.67 413.20 C 248.79 418.18 248.55 423.16 248.77 428.14 C 249.46 431.14 252.29 428.57 253.91 427.82 C 257.86 426.17 261.19 423.32 265.34 422.06 C 265.43 421.49 265.62 420.34 265.72 419.77 C 259.75 418.34 255.23 412.51 248.67 413.20 Z" />
</g>
<g id="#111219ff">
<path fill="#111219" opacity="1.00" d=" M 389.70 398.54 C 403.16 398.51 416.64 398.21 430.10 398.65 C 430.83 399.75 431.58 400.84 432.36 401.93 C 432.49 413.59 432.44 425.27 432.25 436.93 C 431.85 438.39 431.60 439.90 431.23 441.38 C 429.75 443.90 426.56 443.60 424.05 443.66 C 413.01 443.60 401.96 443.72 390.92 443.62 C 388.26 444.12 385.96 441.55 386.40 438.97 C 386.32 427.63 386.39 416.28 386.48 404.94 C 386.36 402.37 388.57 400.63 389.70 398.54 M 404.42 415.56 C 404.52 418.92 404.45 422.28 404.36 425.65 C 405.13 425.66 406.66 425.69 407.43 425.71 C 407.42 424.11 407.44 422.51 407.49 420.91 C 408.72 422.10 409.58 423.59 410.39 425.10 C 409.61 427.22 411.87 426.80 413.20 427.09 C 414.20 423.90 412.47 419.68 414.92 417.23 C 415.54 417.43 416.78 417.82 417.40 418.02 C 417.62 420.81 417.47 423.63 417.52 426.43 C 418.49 426.42 419.48 426.42 420.47 426.43 C 420.47 426.08 420.48 425.37 420.48 425.02 C 420.50 422.52 420.53 420.02 420.59 417.53 C 421.32 417.53 422.78 417.54 423.52 417.55 C 423.50 416.58 423.46 415.63 423.40 414.68 C 420.57 414.63 417.75 414.61 414.94 414.86 C 413.57 414.78 412.08 413.96 410.80 414.74 C 410.16 416.21 409.78 417.78 409.36 419.32 C 408.34 417.59 407.05 412.61 404.42 415.56 M 396.44 426.53 C 398.48 426.52 400.53 426.53 402.58 426.55 C 402.67 425.91 402.85 424.62 402.94 423.98 C 402.53 423.70 401.71 423.14 401.30 422.86 C 401.57 421.70 401.83 420.55 402.04 419.39 C 400.77 418.91 399.51 418.46 398.24 418.05 C 400.48 417.63 403.60 418.02 402.75 414.65 C 400.72 414.63 398.69 414.62 396.67 414.59 C 395.11 418.33 395.20 422.71 396.44 426.53 Z" />
</g>
<g id="#11121bff">
<path fill="#11121b" opacity="1.00" d=" M 86.40 404.00 C 86.24 401.31 89.07 400.07 90.82 398.61 C 102.57 398.75 114.32 398.59 126.08 398.66 C 128.02 398.54 129.51 399.97 131.03 400.94 C 131.48 401.87 131.94 402.80 132.41 403.73 C 132.63 414.50 132.53 425.28 132.65 436.06 C 132.75 439.36 131.98 443.63 128.14 444.40 C 115.37 444.74 102.58 444.49 89.80 444.56 C 88.75 443.73 87.71 442.90 86.65 442.10 C 86.18 429.41 86.29 416.70 86.40 404.00 M 100.55 416.30 C 99.64 416.35 98.76 416.53 97.91 416.84 C 97.22 418.85 97.32 421.93 94.10 420.46 C 94.24 422.09 94.46 423.71 94.76 425.32 C 96.87 426.15 97.78 424.37 98.57 422.82 C 98.76 424.43 97.97 426.80 100.39 426.99 C 104.18 427.76 108.11 428.03 111.91 427.23 L 112.64 426.25 L 111.47 426.06 C 111.78 424.33 111.60 422.58 111.57 420.84 C 111.89 421.41 112.53 422.55 112.86 423.12 L 113.85 422.18 C 112.82 423.73 114.96 425.11 115.52 426.41 L 115.31 426.70 C 115.81 426.68 116.81 426.63 117.31 426.61 C 117.78 425.42 118.28 424.25 118.80 423.09 C 119.46 424.18 120.11 425.29 120.76 426.40 C 121.34 426.66 122.51 427.17 123.09 427.43 C 123.63 427.16 124.71 426.62 125.25 426.36 C 125.92 425.60 126.60 424.85 127.29 424.11 C 127.35 421.54 127.35 418.97 127.37 416.41 C 126.90 416.39 125.94 416.36 125.46 416.34 C 124.05 418.45 125.89 420.81 124.68 422.88 C 124.24 424.36 122.58 424.58 121.44 423.68 C 121.49 421.27 121.51 418.87 121.54 416.47 C 119.71 416.49 117.87 416.52 116.03 416.49 L 115.68 416.03 C 115.41 417.95 115.21 419.95 114.12 421.63 C 113.78 419.88 113.34 418.16 112.99 416.43 C 111.63 415.58 110.01 415.70 108.49 415.67 C 106.01 414.42 103.07 415.71 100.55 416.30 M 91.53 416.41 C 91.63 419.67 91.40 422.95 91.75 426.20 L 93.15 427.02 C 93.48 424.64 93.14 422.07 94.32 419.88 C 94.37 418.74 94.42 417.62 94.46 416.50 C 93.48 416.46 92.50 416.43 91.53 416.41 Z" />
</g>
<g id="#11131aff">
<path fill="#11131a" opacity="1.00" d=" M 309.46 402.77 C 310.59 401.44 311.65 400.04 313.01 398.95 C 314.54 398.17 316.36 398.66 318.01 398.51 C 329.42 398.52 340.84 398.55 352.25 398.47 C 353.85 400.29 355.93 402.24 355.52 404.93 C 355.46 416.30 355.57 427.68 355.35 439.05 C 354.54 440.42 353.80 441.82 353.10 443.25 C 347.10 444.11 341.04 443.57 335.01 443.72 C 326.98 443.58 318.92 444.06 310.91 443.41 C 310.56 442.83 309.88 441.67 309.54 441.09 C 309.38 428.32 309.56 415.54 309.46 402.77 M 324.23 412.39 C 324.55 413.85 324.07 415.71 325.32 416.83 C 326.58 419.24 328.09 421.52 328.97 424.11 C 330.61 425.19 330.51 427.67 332.22 428.71 C 333.74 428.91 334.49 427.11 334.76 425.91 C 336.99 422.04 338.90 417.99 341.36 414.26 C 341.44 413.80 341.59 412.87 341.67 412.41 C 335.85 412.41 330.04 412.44 324.23 412.39 Z" />
</g>
<g id="#fdfeffff">
<path fill="#fdfeff" opacity="1.00" d=" M 324.23 412.39 C 330.04 412.44 335.85 412.41 341.67 412.41 C 341.59 412.87 341.44 413.80 341.36 414.26 C 338.90 417.99 336.99 422.04 334.76 425.91 C 334.49 427.11 333.74 428.91 332.22 428.71 C 330.51 427.67 330.61 425.19 328.97 424.11 C 328.09 421.52 326.58 419.24 325.32 416.83 C 324.07 415.71 324.55 413.85 324.23 412.39 Z" />
</g>
<g id="#feffffff">
<path fill="#feffff" opacity="1.00" d=" M 248.67 413.20 C 255.23 412.51 259.75 418.34 265.72 419.77 C 265.62 420.34 265.43 421.49 265.34 422.06 C 261.19 423.32 257.86 426.17 253.91 427.82 C 252.29 428.57 249.46 431.14 248.77 428.14 C 248.55 423.16 248.79 418.18 248.67 413.20 Z" />
</g>
<g id="#d4d5d8ff">
<path fill="#d4d5d8" opacity="1.00" d=" M 404.42 415.56 C 407.05 412.61 408.34 417.59 409.36 419.32 C 409.87 419.97 410.41 420.61 410.96 421.24 C 411.22 419.49 411.40 417.73 411.86 416.03 C 411.96 419.20 411.93 422.39 411.01 425.46 L 410.39 425.10 C 409.58 423.59 408.72 422.10 407.49 420.91 C 407.44 422.51 407.42 424.11 407.43 425.71 C 406.66 425.69 405.13 425.66 404.36 425.65 C 404.45 422.28 404.52 418.92 404.42 415.56 Z" />
</g>
<g id="#5d5e63ff">
<path fill="#5d5e63" opacity="1.00" d=" M 410.80 414.74 C 412.08 413.96 413.57 414.78 414.94 414.86 C 414.94 415.45 414.93 416.64 414.92 417.23 C 412.47 419.68 414.20 423.90 413.20 427.09 C 411.87 426.80 409.61 427.22 410.39 425.10 L 411.01 425.46 C 411.51 425.47 412.52 425.50 413.03 425.51 C 413.18 421.95 413.12 418.38 412.71 414.85 L 411.86 416.03 C 411.40 417.73 411.22 419.49 410.96 421.24 C 410.41 420.61 409.87 419.97 409.36 419.32 C 409.78 417.78 410.16 416.21 410.80 414.74 Z" />
</g>
<g id="#eeeff3ff">
<path fill="#eeeff3" opacity="1.00" d=" M 414.94 414.86 C 417.75 414.61 420.57 414.63 423.40 414.68 C 423.46 415.63 423.50 416.58 423.52 417.55 C 422.78 417.54 421.32 417.53 420.59 417.53 C 420.53 420.02 420.50 422.52 420.48 425.02 C 419.81 425.00 418.47 424.95 417.81 424.93 C 417.76 421.95 417.77 418.98 417.82 416.01 C 419.50 416.32 421.19 417.10 422.95 416.85 C 422.91 416.44 422.83 415.63 422.79 415.22 C 420.22 414.61 417.55 414.93 414.94 414.86 Z" />
</g>
<g id="#48494eff">
<path fill="#48494e" opacity="1.00" d=" M 100.55 416.30 C 103.07 415.71 106.01 414.42 108.49 415.67 L 108.54 416.36 C 106.44 416.39 104.35 416.52 102.26 416.72 C 102.29 419.90 102.07 423.13 102.63 426.29 C 104.49 427.17 106.61 426.98 108.60 427.16 C 109.70 427.19 110.81 427.22 111.91 427.23 C 108.11 428.03 104.18 427.76 100.39 426.99 C 100.57 423.43 100.55 419.86 100.55 416.30 Z" />
</g>
<g id="#cdced4ff">
<path fill="#cdced4" opacity="1.00" d=" M 170.35 415.43 C 173.00 415.73 177.11 413.96 177.75 417.72 C 176.64 417.73 174.41 417.75 173.30 417.76 L 173.31 419.59 C 173.89 419.59 175.05 419.59 175.63 419.59 C 175.64 420.05 175.67 420.97 175.68 421.43 C 174.87 421.88 173.26 422.78 172.45 423.24 C 176.00 424.95 179.82 423.62 183.53 423.53 C 182.10 422.23 180.50 421.14 178.94 420.01 C 178.80 419.53 178.50 418.56 178.35 418.08 C 179.61 415.19 182.70 414.93 185.41 415.59 C 185.37 416.15 185.31 417.25 185.27 417.81 C 184.24 417.85 182.17 417.92 181.13 417.96 C 182.13 419.55 183.63 420.64 185.32 421.41 C 185.43 422.59 185.48 423.78 185.49 424.98 C 184.24 427.00 181.74 426.39 179.76 426.48 L 178.86 424.39 L 177.42 424.51 C 177.44 425.04 177.48 426.10 177.50 426.63 C 175.09 426.73 172.69 426.75 170.29 426.73 C 170.09 422.97 170.05 419.19 170.35 415.43 Z" />
</g>
<g id="#c5c6cbff">
<path fill="#c5c6cb" opacity="1.00" d=" M 189.54 416.39 C 191.07 414.71 193.57 415.56 195.55 415.43 C 195.56 416.45 195.58 417.47 195.60 418.50 C 194.18 418.39 192.66 417.85 191.30 418.48 C 189.99 419.79 189.92 422.29 191.33 423.54 C 192.72 423.69 194.12 423.64 195.52 423.39 C 195.56 424.46 195.60 425.55 195.65 426.63 C 193.92 426.63 192.11 427.05 190.46 426.39 C 189.02 425.49 188.36 423.82 187.90 422.27 C 188.08 421.79 188.44 420.84 188.62 420.37 L 188.23 419.88 C 187.55 418.65 188.72 417.24 189.54 416.39 Z" />
</g>
<g id="#bbbcc2ff">
<path fill="#bbbcc2" opacity="1.00" d=" M 396.44 426.53 C 395.20 422.71 395.11 418.33 396.67 414.59 C 398.69 414.62 400.72 414.63 402.75 414.65 C 403.60 418.02 400.48 417.63 398.24 418.05 C 398.48 419.36 399.80 419.80 400.69 420.64 C 400.10 420.90 398.93 421.44 398.35 421.70 C 398.31 422.24 398.25 423.31 398.22 423.84 C 399.78 423.89 401.36 423.94 402.94 423.98 C 402.85 424.62 402.67 425.91 402.58 426.55 C 400.53 426.53 398.48 426.52 396.44 426.53 Z" />
<path fill="#bbbcc2" opacity="1.00" d=" M 414.94 414.86 C 417.55 414.93 420.22 414.61 422.79 415.22 C 422.83 415.63 422.91 416.44 422.95 416.85 C 421.19 417.10 419.50 416.32 417.82 416.01 C 417.77 418.98 417.76 421.95 417.81 424.93 C 418.47 424.95 419.81 425.00 420.48 425.02 C 420.48 425.37 420.47 426.08 420.47 426.43 C 419.48 426.42 418.49 426.42 417.52 426.43 C 417.47 423.63 417.62 420.81 417.40 418.02 C 416.78 417.82 415.54 417.43 414.92 417.23 C 414.93 416.64 414.94 415.45 414.94 414.86 Z" />
</g>
<g id="#fcfdffff">
<path fill="#fcfdff" opacity="1.00" d=" M 91.53 416.41 C 92.50 416.43 93.48 416.46 94.46 416.50 C 94.42 417.62 94.37 418.74 94.32 419.88 C 93.14 422.07 93.48 424.64 93.15 427.02 L 91.75 426.20 C 91.40 422.95 91.63 419.67 91.53 416.41 Z" />
</g>
<g id="#cecfd2ff">
<path fill="#cecfd2" opacity="1.00" d=" M 97.91 416.84 C 98.76 416.53 99.64 416.35 100.55 416.30 C 100.55 419.86 100.57 423.43 100.39 426.99 C 97.97 426.80 98.76 424.43 98.57 422.82 C 97.78 424.37 96.87 426.15 94.76 425.32 C 94.46 423.71 94.24 422.09 94.10 420.46 C 97.32 421.93 97.22 418.85 97.91 416.84 Z" />
</g>
<g id="#252628ff">
<path fill="#252628" opacity="1.00" d=" M 108.49 415.67 C 110.01 415.70 111.63 415.58 112.99 416.43 C 112.14 416.44 110.44 416.47 109.59 416.48 C 109.57 419.57 109.39 422.68 109.72 425.76 L 111.47 426.06 L 112.64 426.25 L 111.91 427.23 C 110.81 427.22 109.70 427.19 108.60 427.16 C 108.84 424.60 107.11 424.05 104.95 424.11 C 105.54 423.12 106.14 422.14 106.74 421.17 C 106.13 420.35 105.51 419.55 104.90 418.74 C 107.01 418.95 108.23 418.15 108.54 416.36 L 108.49 415.67 Z" />
</g>
<g id="#b1b2b5ff">
<path fill="#b1b2b5" opacity="1.00" d=" M 115.68 416.03 L 116.03 416.49 C 118.81 418.82 117.24 422.47 116.30 425.33 C 116.11 425.60 115.71 426.14 115.52 426.41 C 114.96 425.11 112.82 423.73 113.85 422.18 L 114.12 421.63 C 115.21 419.95 115.41 417.95 115.68 416.03 Z" />
</g>
<g id="#d5d6daff">
<path fill="#d5d6da" opacity="1.00" d=" M 116.03 416.49 C 117.87 416.52 119.71 416.49 121.54 416.47 C 121.51 418.87 121.49 421.27 121.44 423.68 C 122.58 424.58 124.24 424.36 124.68 422.88 C 125.89 420.81 124.05 418.45 125.46 416.34 C 125.94 416.36 126.90 416.39 127.37 416.41 C 127.35 418.97 127.35 421.54 127.29 424.11 C 126.60 424.85 125.92 425.60 125.25 426.36 C 124.71 426.62 123.63 427.16 123.09 427.43 C 122.51 427.17 121.34 426.66 120.76 426.40 C 120.11 425.29 119.46 424.18 118.80 423.09 C 118.28 424.25 117.78 425.42 117.31 426.61 C 116.81 426.63 115.81 426.68 115.31 426.70 L 115.52 426.41 C 115.71 426.14 116.11 425.60 116.30 425.33 C 117.24 422.47 118.81 418.82 116.03 416.49 Z" />
</g>
<g id="#64656aff">
<path fill="#64656a" opacity="1.00" d=" M 185.41 415.59 C 186.82 416.26 186.46 417.69 186.36 418.95 C 186.54 421.48 187.42 424.38 185.69 426.58 C 183.52 427.78 181.07 427.24 178.88 426.46 L 179.76 426.48 C 181.74 426.39 184.24 427.00 185.49 424.98 C 185.48 423.78 185.43 422.59 185.32 421.41 C 183.63 420.64 182.13 419.55 181.13 417.96 C 182.17 417.92 184.24 417.85 185.27 417.81 C 185.31 417.25 185.37 416.15 185.41 415.59 Z" />
</g>
<g id="#f1f2f7ff">
<path fill="#f1f2f7" opacity="1.00" d=" M 411.86 416.03 L 412.71 414.85 C 413.12 418.38 413.18 421.95 413.03 425.51 C 412.52 425.50 411.51 425.47 411.01 425.46 C 411.93 422.39 411.96 419.20 411.86 416.03 Z" />
</g>
<g id="#b2b3b6ff">
<path fill="#b2b3b6" opacity="1.00" d=" M 102.26 416.72 C 104.35 416.52 106.44 416.39 108.54 416.36 C 108.23 418.15 107.01 418.95 104.90 418.74 C 105.51 419.55 106.13 420.35 106.74 421.17 C 106.14 422.14 105.54 423.12 104.95 424.11 C 107.11 424.05 108.84 424.60 108.60 427.16 C 106.61 426.98 104.49 427.17 102.63 426.29 C 102.07 423.13 102.29 419.90 102.26 416.72 Z" />
</g>
<g id="#c5c7c9ff">
<path fill="#c5c7c9" opacity="1.00" d=" M 109.59 416.48 C 110.44 416.47 112.14 416.44 112.99 416.43 C 113.34 418.16 113.78 419.88 114.12 421.63 L 113.85 422.18 L 112.86 423.12 C 112.53 422.55 111.89 421.41 111.57 420.84 C 111.60 422.58 111.78 424.33 111.47 426.06 L 109.72 425.76 C 109.39 422.68 109.57 419.57 109.59 416.48 Z" />
</g>
<g id="#121318ff">
<path fill="#121318" opacity="1.00" d=" M 173.30 417.76 C 174.41 417.75 176.64 417.73 177.75 417.72 C 177.90 417.81 178.20 417.99 178.35 418.08 C 178.50 418.56 178.80 419.53 178.94 420.01 C 180.50 421.14 182.10 422.23 183.53 423.53 C 179.82 423.62 176.00 424.95 172.45 423.24 C 173.26 422.78 174.87 421.88 175.68 421.43 C 175.67 420.97 175.64 420.05 175.63 419.59 C 175.05 419.59 173.89 419.59 173.31 419.59 L 173.30 417.76 Z" />
</g>
<g id="#6f7076ff">
<path fill="#6f7076" opacity="1.00" d=" M 400.69 420.64 C 399.80 419.80 398.48 419.36 398.24 418.05 C 399.51 418.46 400.77 418.91 402.04 419.39 C 401.83 420.55 401.57 421.70 401.30 422.86 C 401.71 423.14 402.53 423.70 402.94 423.98 C 401.36 423.94 399.78 423.89 398.22 423.84 C 398.25 423.31 398.31 422.24 398.35 421.70 C 398.93 421.44 400.10 420.90 400.69 420.64 Z" />
</g>
<g id="#e3e3e3ff">
<path fill="#e3e3e3" opacity="1.00" d=" M 515.20 432.34 C 516.14 431.53 517.07 430.70 518.00 429.87 L 518.00 458.00 L 514.27 458.00 C 514.30 452.63 514.15 447.25 514.57 441.90 C 515.35 438.77 515.21 435.53 515.20 432.34 Z" />
</g>
<g id="#4c5c8eff">
<path fill="#4c5c8e" opacity="1.00" d=" M 34.02 456.58 C 141.67 456.49 249.31 456.45 356.96 456.20 C 364.65 455.47 372.33 456.75 380.02 456.01 C 383.68 455.76 387.36 456.68 391.01 455.99 L 390.62 457.36 C 388.58 457.45 386.57 457.74 384.55 458.00 L 29.53 458.00 C 30.96 457.34 32.39 456.50 34.02 456.58 Z" />
</g>
</svg>
