<?xml version="1.0" encoding="UTF-8" ?>
<!DOCTYPE svg PUBLIC "-//W3C//DTD SVG 1.1//EN" "http://www.w3.org/Graphics/SVG/1.1/DTD/svg11.dtd">
<svg width="500pt" height="135pt" viewBox="0 0 500 135" version="1.1" xmlns="http://www.w3.org/2000/svg">
<g id="#6c6d76ff">
<path fill="#6c6d76" opacity="1.00" d=" M 0.00 0.00 L 500.00 0.00 L 500.00 8.04 C 474.00 8.37 448.00 8.02 422.00 8.22 C 410.07 9.13 398.08 9.71 386.14 8.71 C 376.43 7.60 366.73 10.05 357.01 8.92 C 349.34 7.97 341.63 8.98 333.95 8.45 C 325.66 7.76 317.34 7.99 309.04 8.03 C 302.76 8.03 296.38 8.75 290.21 7.26 C 287.08 6.51 283.82 5.63 280.63 6.61 C 275.17 8.03 269.52 7.79 263.93 7.79 C 235.63 8.32 207.31 7.72 179.01 7.65 C 171.03 7.60 162.96 9.62 155.10 7.41 C 151.18 6.13 147.16 7.18 143.39 8.42 C 126.62 8.13 109.80 9.13 93.06 7.68 C 85.69 7.06 78.36 8.38 70.99 8.38 C 47.33 8.30 23.66 8.37 0.00 8.34 L 0.00 0.00 Z" />
</g>
<g id="#717c83ff">
<path fill="#717c83" opacity="1.00" d=" M 143.39 8.42 C 147.16 7.18 151.18 6.13 155.10 7.41 C 162.96 9.62 171.03 7.60 179.01 7.65 C 207.31 7.72 235.63 8.32 263.93 7.79 C 269.52 7.79 275.17 8.03 280.63 6.61 C 283.82 5.63 287.08 6.51 290.21 7.26 C 296.38 8.75 302.76 8.03 309.04 8.03 C 317.34 7.99 325.66 7.76 333.95 8.45 C 341.63 8.98 349.34 7.97 357.01 8.92 C 366.73 10.05 376.43 7.60 386.14 8.71 C 398.08 9.71 410.07 9.13 422.00 8.22 C 448.00 8.02 474.00 8.37 500.00 8.04 L 500.00 11.12 C 497.02 11.52 494.01 11.70 491.01 11.71 C 471.33 11.59 451.65 11.69 431.96 11.66 C 415.90 11.78 399.83 11.02 383.77 11.77 C 374.50 11.79 365.24 10.92 355.96 11.46 C 339.32 11.73 322.66 11.71 306.03 11.00 C 298.34 10.12 290.66 11.84 282.97 11.19 C 270.33 10.09 257.62 10.63 244.96 10.94 C 236.31 10.54 227.66 10.29 219.03 9.63 C 213.32 9.25 207.66 10.20 201.97 10.40 C 195.64 10.64 189.36 9.45 183.03 9.53 C 176.33 9.51 169.69 10.74 162.99 10.59 C 156.40 10.53 149.88 9.47 143.39 8.42 Z" />
</g>
<g id="#819699ff">
<path fill="#819699" opacity="1.00" d=" M 0.00 8.34 C 23.66 8.37 47.33 8.30 70.99 8.38 C 78.36 8.38 85.69 7.06 93.06 7.68 C 109.80 9.13 126.62 8.13 143.39 8.42 C 149.88 9.47 156.40 10.53 162.99 10.59 C 169.69 10.74 176.33 9.51 183.03 9.53 C 189.36 9.45 195.64 10.64 201.97 10.40 C 207.66 10.20 213.32 9.25 219.03 9.63 C 227.66 10.29 236.31 10.54 244.96 10.94 C 257.62 10.63 270.33 10.09 282.97 11.19 C 290.66 11.84 298.34 10.12 306.03 11.00 C 322.66 11.71 339.32 11.73 355.96 11.46 C 365.24 10.92 374.50 11.79 383.77 11.77 C 383.90 13.27 384.02 14.76 384.15 16.26 C 368.08 16.27 352.02 16.35 335.95 16.23 C 326.00 15.47 316.01 14.69 306.03 15.56 C 298.06 16.39 290.08 14.67 282.11 15.44 C 270.88 16.51 259.55 16.63 248.31 15.62 C 242.18 15.08 236.10 16.39 229.98 16.34 C 214.01 16.11 198.03 16.35 182.05 16.31 C 178.30 16.49 175.39 13.80 171.95 12.83 C 169.23 13.73 166.90 15.56 164.12 16.30 C 161.02 15.83 158.08 13.70 154.87 14.69 C 150.35 15.90 145.67 16.26 141.02 15.76 C 132.67 14.99 124.34 16.58 115.99 16.10 C 112.00 15.91 108.01 15.64 104.02 15.61 C 69.35 15.53 34.67 15.71 0.00 15.51 L 0.00 8.34 Z" />
</g>
<g id="#8596a2ff">
<path fill="#8596a2" opacity="1.00" d=" M 383.77 11.77 C 399.83 11.02 415.90 11.78 431.96 11.66 C 451.65 11.69 471.33 11.59 491.01 11.71 C 494.01 11.70 497.02 11.52 500.00 11.12 L 500.00 21.10 C 495.33 21.32 490.66 21.12 485.99 21.24 C 481.41 21.17 477.64 24.59 473.03 24.33 C 459.03 24.13 445.03 24.23 431.03 24.24 C 426.34 24.14 421.35 25.10 416.95 23.02 C 414.67 22.22 412.17 20.29 409.77 21.81 C 406.85 23.55 403.59 24.46 400.18 24.25 C 399.96 21.64 399.72 19.03 399.50 16.41 C 394.38 16.36 389.27 16.31 384.15 16.26 C 384.02 14.76 383.90 13.27 383.77 11.77 Z" />
</g>
<g id="#8fa1afff">
<path fill="#8fa1af" opacity="1.00" d=" M 164.12 16.30 C 166.90 15.56 169.23 13.73 171.95 12.83 C 175.39 13.80 178.30 16.49 182.05 16.31 C 198.03 16.35 214.01 16.11 229.98 16.34 C 236.10 16.39 242.18 15.08 248.31 15.62 C 259.55 16.63 270.88 16.51 282.11 15.44 C 290.08 14.67 298.06 16.39 306.03 15.56 C 316.01 14.69 326.00 15.47 335.95 16.23 C 352.02 16.35 368.08 16.27 384.15 16.26 C 389.27 16.31 394.38 16.36 399.50 16.41 C 399.72 19.03 399.96 21.64 400.18 24.25 C 403.59 24.46 406.85 23.55 409.77 21.81 C 412.17 20.29 414.67 22.22 416.95 23.02 C 421.35 25.10 426.34 24.14 431.03 24.24 C 445.03 24.23 459.03 24.13 473.03 24.33 C 477.64 24.59 481.41 21.17 485.99 21.24 C 490.66 21.12 495.33 21.32 500.00 21.10 L 500.00 53.47 C 485.34 53.09 470.68 53.32 456.03 53.34 C 450.23 53.29 444.82 50.46 438.98 50.86 C 430.32 51.21 421.65 50.52 413.00 51.00 C 398.66 51.68 384.32 50.59 369.99 51.03 C 339.99 51.11 309.98 51.05 279.98 50.90 C 274.77 51.20 270.15 48.17 264.99 48.18 C 226.32 48.48 187.63 48.17 148.98 47.91 C 145.20 47.85 142.79 51.68 139.03 51.73 C 132.67 52.11 126.36 50.96 120.02 50.78 C 114.32 50.47 108.62 51.02 102.92 50.82 C 98.76 50.76 95.11 48.37 91.02 47.96 C 60.69 48.36 30.33 48.34 0.00 48.04 L 0.00 15.51 C 34.67 15.71 69.35 15.53 104.02 15.61 C 108.01 15.64 112.00 15.91 115.99 16.10 C 124.34 16.58 132.67 14.99 141.02 15.76 C 145.67 16.26 150.35 15.90 154.87 14.69 C 158.08 13.70 161.02 15.83 164.12 16.30 Z" />
</g>
<g id="#8b949bff">
<path fill="#8b949b" opacity="1.00" d=" M 0.00 48.04 C 30.33 48.34 60.69 48.36 91.02 47.96 C 95.11 48.37 98.76 50.76 102.92 50.82 C 108.62 51.02 114.32 50.47 120.02 50.78 C 126.36 50.96 132.67 52.11 139.03 51.73 C 142.79 51.68 145.20 47.85 148.98 47.91 C 187.63 48.17 226.32 48.48 264.99 48.18 C 270.15 48.17 274.77 51.20 279.98 50.90 C 309.98 51.05 339.99 51.11 369.99 51.03 C 384.32 50.59 398.66 51.68 413.00 51.00 C 421.65 50.52 430.32 51.21 438.98 50.86 C 444.82 50.46 450.23 53.29 456.03 53.34 C 470.68 53.32 485.34 53.09 500.00 53.47 L 500.00 63.59 C 489.33 62.97 478.61 64.22 467.97 62.86 C 458.69 61.84 449.31 63.41 440.06 61.96 C 435.40 61.21 430.68 60.57 425.95 60.90 C 414.66 61.63 403.34 61.22 392.04 61.39 C 382.00 61.62 372.00 60.11 361.97 60.64 C 356.40 60.91 350.78 61.52 345.24 60.54 C 338.87 59.44 332.39 59.44 325.94 59.57 C 286.31 59.61 246.68 59.54 207.05 59.61 C 201.02 59.58 195.05 58.46 189.02 58.49 C 169.03 58.62 149.03 58.45 129.04 58.63 C 118.73 59.25 108.37 59.95 98.05 59.01 C 89.37 58.17 80.65 58.64 71.95 58.54 C 53.62 58.57 35.29 58.48 16.97 58.59 C 11.30 58.60 5.68 57.57 0.00 57.74 L 0.00 48.04 Z" />
</g>
<g id="#737c83ff">
<path fill="#737c83" opacity="1.00" d=" M 0.00 57.74 C 5.68 57.57 11.30 58.60 16.97 58.59 C 35.29 58.48 53.62 58.57 71.95 58.54 C 80.65 58.64 89.37 58.17 98.05 59.01 C 108.37 59.95 118.73 59.25 129.04 58.63 C 149.03 58.45 169.03 58.62 189.02 58.49 C 195.05 58.46 201.02 59.58 207.05 59.61 C 246.68 59.54 286.31 59.61 325.94 59.57 C 332.39 59.44 338.87 59.44 345.24 60.54 C 350.78 61.52 356.40 60.91 361.97 60.64 C 372.00 60.11 382.00 61.62 392.04 61.39 C 403.34 61.22 414.66 61.63 425.95 60.90 C 430.68 60.57 435.40 61.21 440.06 61.96 C 449.31 63.41 458.69 61.84 467.97 62.86 C 478.61 64.22 489.33 62.97 500.00 63.59 L 500.00 70.55 C 461.49 70.46 422.98 70.46 384.47 70.39 C 388.27 69.68 392.07 68.84 395.95 68.75 C 413.37 68.59 430.80 69.02 448.23 68.50 C 423.80 68.09 399.36 68.41 374.94 68.34 C 355.97 66.94 336.94 67.94 317.95 67.43 C 309.62 67.41 301.32 66.43 292.99 66.59 C 263.33 66.80 233.67 66.20 204.00 66.49 C 153.36 66.51 102.71 66.30 52.06 66.49 C 42.48 66.33 32.90 66.72 23.33 66.25 C 28.92 64.64 34.76 64.69 40.51 64.37 C 33.70 63.50 26.82 63.69 19.97 63.96 C 13.29 64.23 6.64 63.32 0.00 62.79 L 0.00 57.74 Z" />
</g>
<g id="#696f6dff">
<path fill="#696f6d" opacity="1.00" d=" M 0.00 62.79 C 6.64 63.32 13.29 64.23 19.97 63.96 C 26.82 63.69 33.70 63.50 40.51 64.37 C 34.76 64.69 28.92 64.64 23.33 66.25 C 15.56 66.73 7.78 66.40 0.00 66.48 L 0.00 62.79 Z" />
</g>
<g id="#456f99ff">
<path fill="#456f99" opacity="1.00" d=" M 0.00 66.48 C 7.78 66.40 15.56 66.73 23.33 66.25 C 32.90 66.72 42.48 66.33 52.06 66.49 C 102.71 66.30 153.36 66.51 204.00 66.49 C 233.67 66.20 263.33 66.80 292.99 66.59 C 301.32 66.43 309.62 67.41 317.95 67.43 C 336.94 67.94 355.97 66.94 374.94 68.34 C 399.36 68.41 423.80 68.09 448.23 68.50 C 430.80 69.02 413.37 68.59 395.95 68.75 C 392.07 68.84 388.27 69.68 384.47 70.39 C 366.97 70.71 349.47 70.31 331.96 70.52 C 327.71 70.62 323.46 70.39 319.24 69.83 C 313.50 69.13 307.71 69.44 301.95 69.39 C 289.98 69.36 278.01 69.34 266.05 69.40 C 258.35 69.55 250.70 68.21 242.99 68.58 C 229.65 68.95 216.27 68.08 202.95 69.20 C 189.97 69.74 176.99 68.98 164.01 69.15 C 150.34 68.05 136.63 69.89 122.97 68.65 C 112.31 68.99 101.62 69.28 90.96 68.70 C 86.66 68.47 82.37 69.13 78.07 69.08 C 61.70 68.19 45.29 68.81 28.91 68.84 C 19.26 68.03 9.65 69.88 0.00 69.27 L 0.00 66.48 Z" />
</g>
<g id="#0f6fdbff">
<path fill="#0f6fdb" opacity="1.00" d=" M 0.00 69.27 C 9.65 69.88 19.26 68.03 28.91 68.84 C 45.29 68.81 61.70 68.19 78.07 69.08 C 82.37 69.13 86.66 68.47 90.96 68.70 C 101.62 69.28 112.31 68.99 122.97 68.65 C 136.63 69.89 150.34 68.05 164.01 69.15 C 176.99 68.98 189.97 69.74 202.95 69.20 C 216.27 68.08 229.65 68.95 242.99 68.58 C 250.70 68.21 258.35 69.55 266.05 69.40 C 278.01 69.34 289.98 69.36 301.95 69.39 C 307.71 69.44 313.50 69.13 319.24 69.83 C 323.46 70.39 327.71 70.62 331.96 70.52 C 349.47 70.31 366.97 70.71 384.47 70.39 C 422.98 70.46 461.49 70.46 500.00 70.55 L 500.00 72.12 C 491.66 72.84 483.30 72.51 474.95 72.56 C 427.98 72.70 381.02 72.09 334.05 72.13 C 329.50 72.14 324.92 71.76 320.41 72.46 C 320.31 73.64 320.53 74.82 320.66 76.00 C 320.45 75.98 320.03 75.93 319.81 75.91 C 316.58 75.16 313.31 74.47 309.98 74.52 C 302.32 74.57 294.66 74.45 287.01 74.48 C 279.00 74.61 270.91 73.81 263.00 75.48 C 175.34 75.19 87.67 75.47 0.00 75.32 L 0.00 69.27 Z" />
</g>
<g id="#0072e6ff">
<path fill="#0072e6" opacity="1.00" d=" M 320.41 72.46 C 324.92 71.76 329.50 72.14 334.05 72.13 C 381.02 72.09 427.98 72.70 474.95 72.56 C 483.30 72.51 491.66 72.84 500.00 72.12 L 500.00 75.91 C 486.68 76.58 473.34 76.29 460.01 76.21 C 444.69 75.30 429.35 75.85 414.02 75.75 C 398.99 75.69 383.96 75.82 368.93 75.64 C 365.68 75.63 362.44 76.03 359.21 76.35 C 346.37 76.07 333.50 76.55 320.66 76.00 C 320.53 74.82 320.31 73.64 320.41 72.46 Z" />
</g>
<g id="#1e4872ff">
<path fill="#1e4872" opacity="1.00" d=" M 0.00 75.32 C 87.67 75.47 175.34 75.19 263.00 75.48 C 273.95 76.78 284.98 75.88 295.97 76.05 C 303.92 76.11 311.87 76.22 319.81 75.91 C 320.03 75.93 320.45 75.98 320.66 76.00 C 333.50 76.55 346.37 76.07 359.21 76.35 C 377.10 77.72 395.08 76.98 413.00 77.23 C 424.96 77.45 436.94 76.98 448.89 77.83 C 445.29 78.36 441.66 78.81 438.02 78.71 C 416.35 78.16 394.67 78.86 373.00 78.08 C 359.31 77.41 345.60 77.91 331.90 77.74 C 323.23 77.56 314.59 78.91 305.92 78.36 C 290.98 77.21 275.98 77.57 261.03 78.02 C 243.37 77.10 225.67 77.73 208.00 77.55 C 138.67 77.57 69.33 77.51 0.00 77.58 L 0.00 75.32 Z" />
</g>
<g id="#2d74b3ff">
<path fill="#2d74b3" opacity="1.00" d=" M 263.00 75.48 C 270.91 73.81 279.00 74.61 287.01 74.48 C 294.66 74.45 302.32 74.57 309.98 74.52 C 313.31 74.47 316.58 75.16 319.81 75.91 C 311.87 76.22 303.92 76.11 295.97 76.05 C 284.98 75.88 273.95 76.78 263.00 75.48 Z" />
</g>
<g id="#2469acff">
<path fill="#2469ac" opacity="1.00" d=" M 359.21 76.35 C 362.44 76.03 365.68 75.63 368.93 75.64 C 383.96 75.82 398.99 75.69 414.02 75.75 C 429.35 75.85 444.69 75.30 460.01 76.21 C 473.34 76.29 486.68 76.58 500.00 75.91 L 500.00 78.37 C 490.67 78.45 481.34 78.35 472.01 78.37 C 464.29 78.46 456.61 77.24 448.89 77.83 C 436.94 76.98 424.96 77.45 413.00 77.23 C 395.08 76.98 377.10 77.72 359.21 76.35 Z" />
</g>
<g id="#4c4c4cff">
<path fill="#4c4c4c" opacity="1.00" d=" M 0.00 77.58 C 69.33 77.51 138.67 77.57 208.00 77.55 C 225.67 77.73 243.37 77.10 261.03 78.02 C 275.98 77.57 290.98 77.21 305.92 78.36 C 314.59 78.91 323.23 77.56 331.90 77.74 C 345.60 77.91 359.31 77.41 373.00 78.08 C 394.67 78.86 416.35 78.16 438.02 78.71 C 441.66 78.81 445.29 78.36 448.89 77.83 C 456.61 77.24 464.29 78.46 472.01 78.37 C 481.34 78.35 490.67 78.45 500.00 78.37 L 500.00 105.52 C 458.35 105.60 416.69 105.47 375.04 105.59 C 369.63 105.50 364.47 103.45 359.05 103.50 C 343.37 103.65 327.68 103.60 312.00 103.53 C 307.89 103.48 304.03 105.13 299.96 105.38 C 295.61 105.09 291.46 103.36 287.06 103.47 C 252.36 103.65 217.66 103.47 182.97 103.57 C 172.30 104.32 161.57 105.01 150.89 103.91 C 146.04 103.36 141.14 103.47 136.30 104.02 C 129.84 104.71 123.41 103.38 116.95 103.49 C 108.64 103.57 100.33 103.58 92.02 103.50 C 84.66 103.36 77.36 104.55 70.00 104.44 C 62.58 104.33 55.14 104.71 47.74 104.01 C 42.83 103.55 37.90 103.43 32.98 103.52 C 21.98 103.67 10.99 103.30 0.00 103.75 L 0.00 77.58 M 200.02 80.20 C 200.01 82.76 200.01 85.31 200.01 87.87 C 205.25 88.00 210.50 87.97 215.75 88.13 C 215.91 90.70 216.07 93.28 216.24 95.85 C 221.39 96.12 226.55 96.14 231.70 95.85 C 231.90 93.29 232.09 90.73 232.29 88.17 C 242.84 87.72 253.39 88.21 263.94 87.87 C 263.95 85.32 263.95 82.76 263.94 80.21 C 242.64 80.06 221.33 80.01 200.02 80.20 Z" />
</g>
<g id="#515151ff">
<path fill="#515151" opacity="1.00" d=" M 200.02 80.20 C 221.33 80.01 242.64 80.06 263.94 80.21 C 263.95 82.76 263.95 85.32 263.94 87.87 C 253.39 88.21 242.84 87.72 232.29 88.17 C 232.09 90.73 231.90 93.29 231.70 95.85 C 226.55 96.14 221.39 96.12 216.24 95.85 C 216.07 93.28 215.91 90.70 215.75 88.13 C 210.50 87.97 205.25 88.00 200.01 87.87 C 200.01 85.31 200.01 82.76 200.02 80.20 Z" />
</g>
<g id="#383838ff">
<path fill="#383838" opacity="1.00" d=" M 0.00 103.75 C 10.99 103.30 21.98 103.67 32.98 103.52 C 37.90 103.43 42.83 103.55 47.74 104.01 C 55.14 104.71 62.58 104.33 70.00 104.44 C 77.36 104.55 84.66 103.36 92.02 103.50 C 100.33 103.58 108.64 103.57 116.95 103.49 C 123.41 103.38 129.84 104.71 136.30 104.02 C 141.14 103.47 146.04 103.36 150.89 103.91 C 161.57 105.01 172.30 104.32 182.97 103.57 C 217.66 103.47 252.36 103.65 287.06 103.47 C 291.46 103.36 295.61 105.09 299.96 105.38 C 304.03 105.13 307.89 103.48 312.00 103.53 C 327.68 103.60 343.37 103.65 359.05 103.50 C 364.47 103.45 369.63 105.50 375.04 105.59 C 416.69 105.47 458.35 105.60 500.00 105.52 L 500.00 110.05 C 464.99 109.79 429.98 109.91 394.97 110.16 C 388.65 110.17 382.32 109.69 376.00 109.78 C 370.56 109.84 365.47 112.25 360.02 112.27 C 344.02 112.16 328.01 112.15 312.00 112.26 C 308.49 112.28 305.12 111.21 301.74 110.43 C 298.10 109.49 294.73 112.08 291.12 111.99 C 287.81 110.71 284.70 108.47 280.96 108.94 C 269.29 109.61 257.61 108.64 245.93 109.17 C 225.61 109.20 205.29 109.12 184.97 109.19 C 173.01 108.43 160.99 107.57 149.03 108.84 C 141.61 109.72 134.21 107.79 126.79 108.65 C 120.54 109.33 114.24 109.48 107.98 108.85 C 98.36 107.92 88.69 108.41 79.04 108.29 C 52.69 108.15 26.34 108.53 0.00 108.15 L 0.00 103.75 Z" />
</g>
<g id="#2b2932ff">
<path fill="#2b2932" opacity="1.00" d=" M 0.00 108.15 C 26.34 108.53 52.69 108.15 79.04 108.29 C 88.69 108.41 98.36 107.92 107.98 108.85 C 114.24 109.48 120.54 109.33 126.79 108.65 C 134.21 107.79 141.61 109.72 149.03 108.84 C 160.99 107.57 173.01 108.43 184.97 109.19 C 205.29 109.12 225.61 109.20 245.93 109.17 C 257.61 108.64 269.29 109.61 280.96 108.94 C 284.70 108.47 287.81 110.71 291.12 111.99 C 294.73 112.08 298.10 109.49 301.74 110.43 C 305.12 111.21 308.49 112.28 312.00 112.26 C 328.01 112.15 344.02 112.16 360.02 112.27 C 365.47 112.25 370.56 109.84 376.00 109.78 C 382.32 109.69 388.65 110.17 394.97 110.16 C 429.98 109.91 464.99 109.79 500.00 110.05 L 500.00 125.28 C 442.33 125.22 384.65 125.31 326.98 125.26 C 320.18 125.36 314.19 122.00 307.98 119.81 C 304.34 121.01 300.99 123.36 296.99 123.07 C 282.64 122.90 268.29 122.61 253.94 122.77 C 229.97 123.03 205.98 122.45 182.02 123.07 C 177.69 123.30 174.33 119.73 170.05 119.74 C 166.52 119.65 163.01 120.13 159.50 120.46 L 160.53 122.56 C 154.01 122.95 147.46 123.28 140.92 123.00 C 137.39 122.82 134.58 120.13 131.04 120.01 C 126.68 119.84 122.32 119.91 117.97 119.89 C 114.28 119.65 111.36 122.20 108.01 123.23 C 105.21 122.35 102.81 120.55 100.02 119.64 C 97.19 120.46 94.80 122.31 91.99 123.18 C 88.61 122.16 85.66 119.76 82.01 119.72 C 77.01 119.49 72.02 120.06 67.02 120.06 C 60.33 120.19 53.65 119.53 46.97 119.73 C 42.39 119.71 38.55 122.87 33.97 122.83 C 22.65 123.18 11.32 122.58 0.00 123.06 L 0.00 108.15 Z" />
</g>
<g id="#1c1a25ff">
<path fill="#1c1a25" opacity="1.00" d=" M 33.97 122.83 C 38.55 122.87 42.39 119.71 46.97 119.73 C 53.65 119.53 60.33 120.19 67.02 120.06 C 72.02 120.06 77.01 119.49 82.01 119.72 C 85.66 119.76 88.61 122.16 91.99 123.18 C 94.80 122.31 97.19 120.46 100.02 119.64 C 102.81 120.55 105.21 122.35 108.01 123.23 C 111.36 122.20 114.28 119.65 117.97 119.89 C 122.32 119.91 126.68 119.84 131.04 120.01 C 134.58 120.13 137.39 122.82 140.92 123.00 C 147.46 123.28 154.01 122.95 160.53 122.56 L 159.50 120.46 C 163.01 120.13 166.52 119.65 170.05 119.74 C 174.33 119.73 177.69 123.30 182.02 123.07 C 205.98 122.45 229.97 123.03 253.94 122.77 C 268.29 122.61 282.64 122.90 296.99 123.07 C 300.99 123.36 304.34 121.01 307.98 119.81 C 314.19 122.00 320.18 125.36 326.98 125.26 C 384.65 125.31 442.33 125.22 500.00 125.28 L 500.00 135.00 L 0.00 135.00 L 0.00 123.06 C 11.32 122.58 22.65 123.18 33.97 122.83 Z" />
</g>
</svg>
