<?xml version="1.0" encoding="UTF-8" ?>
<!DOCTYPE svg PUBLIC "-//W3C//DTD SVG 1.1//EN" "http://www.w3.org/Graphics/SVG/1.1/DTD/svg11.dtd">
<svg width="808pt" height="192pt" viewBox="0 0 808 192" version="1.1" xmlns="http://www.w3.org/2000/svg">
<g id="#282a2d89">
<path fill="#282a2d" opacity="0.54" d=" M 18.86 64.09 C 19.03 62.99 18.26 60.41 19.77 60.22 L 20.09 60.94 C 20.09 61.44 20.09 62.43 20.09 62.93 C 20.02 64.29 19.95 65.65 19.87 67.01 L 19.24 66.92 C 19.15 66.21 18.95 64.80 18.86 64.09 Z" />
</g>
<g id="#656669d2">
<path fill="#656669" opacity="0.82" d=" M 19.77 60.22 C 84.84 59.74 149.93 60.08 215.00 60.04 L 215.00 61.00 C 150.03 60.96 85.06 61.08 20.09 60.94 L 19.77 60.22 Z" />
</g>
<g id="#68696cdd">
<path fill="#68696c" opacity="0.87" d=" M 215.00 60.04 C 321.00 59.96 427.00 59.98 533.00 60.04 L 533.00 61.00 C 427.00 61.00 321.00 61.00 215.00 61.00 L 215.00 60.04 Z" />
</g>
<g id="#606063cd">
<path fill="#606063" opacity="0.80" d=" M 533.00 60.04 C 590.66 59.97 648.33 59.97 706.00 60.04 L 706.00 61.00 C 648.33 61.00 590.67 61.00 533.00 61.00 L 533.00 60.04 Z" />
</g>
<g id="#58595bc5">
<path fill="#58595b" opacity="0.77" d=" M 706.00 60.04 C 733.66 59.99 761.33 59.94 788.99 60.06 C 788.97 60.57 788.94 61.58 788.93 62.09 L 788.18 61.75 C 760.94 59.98 733.36 61.51 706.00 61.00 L 706.00 60.04 Z" />
</g>
<g id="#989899fe">
<path fill="#989899" opacity="1.00" d=" M 20.09 60.94 C 85.06 61.08 150.03 60.96 215.00 61.00 C 321.00 61.00 427.00 61.00 533.00 61.00 C 590.67 61.00 648.33 61.00 706.00 61.00 C 733.36 61.51 760.94 59.98 788.18 61.75 L 788.27 62.75 L 787.28 62.71 C 778.89 61.56 770.42 62.09 762.00 61.99 C 553.67 62.02 345.34 61.99 137.01 62.01 C 134.29 62.00 131.57 62.10 128.87 62.30 L 128.13 62.32 C 97.76 61.58 67.37 62.23 37.00 61.97 C 31.66 62.25 26.10 61.38 20.86 62.71 L 20.09 62.93 C 20.09 62.43 20.09 61.44 20.09 60.94 Z" />
</g>
<g id="#a2a3a4ff">
<path fill="#a2a3a4" opacity="1.00" d=" M 20.86 62.71 C 26.10 61.38 31.66 62.25 37.00 61.97 C 67.37 62.23 97.76 61.58 128.13 62.32 C 92.43 63.70 56.60 62.94 20.86 62.71 Z" />
</g>
<g id="#b0b0b1ff">
<path fill="#b0b0b1" opacity="1.00" d=" M 128.13 62.32 L 128.87 62.30 C 131.40 62.48 136.46 62.82 138.99 63.00 C 352.32 63.00 565.66 63.01 778.99 62.99 C 781.75 62.99 784.51 62.89 787.28 62.71 L 788.27 62.75 L 788.40 63.72 C 788.31 64.30 788.14 65.47 788.05 66.05 C 787.20 64.66 785.90 63.85 784.24 64.18 C 529.89 63.82 275.53 64.00 21.18 64.08 L 21.09 65.01 C 21.05 65.44 20.97 66.31 20.93 66.75 C 20.69 67.07 20.22 67.73 19.98 68.06 L 19.87 67.01 C 19.95 65.65 20.02 64.29 20.09 62.93 L 20.86 62.71 C 56.60 62.94 92.43 63.70 128.13 62.32 Z" />
</g>
<g id="#a1a2a2ff">
<path fill="#a1a2a2" opacity="1.00" d=" M 128.87 62.30 C 131.57 62.10 134.29 62.00 137.01 62.01 C 345.34 61.99 553.67 62.02 762.00 61.99 C 770.42 62.09 778.89 61.56 787.28 62.71 C 784.51 62.89 781.75 62.99 778.99 62.99 C 565.66 63.01 352.32 63.00 138.99 63.00 C 136.46 62.82 131.40 62.48 128.87 62.30 Z" />
</g>
<g id="#24262743">
<path fill="#242627" opacity="0.26" d=" M 788.18 61.75 L 788.93 62.09 C 789.19 62.58 789.73 63.55 789.99 64.03 C 789.97 67.68 789.98 71.35 790.01 75.00 C 790.01 76.75 790.01 80.25 790.01 82.00 C 789.97 86.01 789.96 90.02 789.98 94.03 L 789.01 93.99 L 788.98 93.00 C 788.48 83.28 790.03 73.35 788.40 63.72 L 788.27 62.75 L 788.18 61.75 Z" />
</g>
<g id="#0e0f102b">
<path fill="#0e0f10" opacity="0.17" d=" M 17.99 63.99 L 18.86 64.09 C 18.95 64.80 19.15 66.21 19.24 66.92 C 19.09 71.61 18.99 76.32 19.01 81.02 L 18.98 82.00 L 18.02 82.00 C 17.99 76.00 17.90 69.99 17.99 63.99 Z" />
</g>
<g id="#bbbcbcff">
<path fill="#bbbcbc" opacity="1.00" d=" M 21.18 64.08 C 275.53 64.00 529.89 63.82 784.24 64.18 C 758.34 66.51 732.27 65.12 706.30 65.36 C 685.31 66.22 664.29 63.97 643.30 65.29 C 627.55 65.94 611.74 66.42 596.01 64.98 C 552.73 65.72 509.41 66.70 466.11 65.62 C 442.85 65.94 419.52 66.60 396.27 65.45 C 382.82 63.78 369.42 67.39 355.99 65.51 C 337.35 66.49 318.66 65.80 300.00 66.00 C 269.99 66.58 239.98 63.20 209.99 65.85 C 200.40 67.14 190.94 64.06 181.37 65.45 C 175.56 66.52 169.82 64.73 164.00 64.98 C 152.68 65.28 141.30 66.98 129.99 65.49 C 112.01 66.86 94.08 64.81 76.10 65.23 C 57.80 66.87 39.40 65.96 21.09 65.01 L 21.18 64.08 Z" />
</g>
<g id="#c4c5c5ff">
<path fill="#c4c5c5" opacity="1.00" d=" M 784.24 64.18 C 785.90 63.85 787.20 64.66 788.05 66.05 C 788.01 68.05 788.01 70.04 788.01 72.03 L 787.14 71.82 C 787.12 71.34 787.08 70.37 787.07 69.88 C 787.04 69.41 786.98 68.45 786.96 67.98 C 785.67 63.23 778.93 68.40 775.99 66.85 C 524.31 67.04 272.61 67.24 20.93 66.75 C 20.97 66.31 21.05 65.44 21.09 65.01 C 39.40 65.96 57.80 66.87 76.10 65.23 C 94.08 64.81 112.01 66.86 129.99 65.49 C 141.30 66.98 152.68 65.28 164.00 64.98 C 169.82 64.73 175.56 66.52 181.37 65.45 C 190.94 64.06 200.40 67.14 209.99 65.85 C 239.98 63.20 269.99 66.58 300.00 66.00 C 318.66 65.80 337.35 66.49 355.99 65.51 C 369.42 67.39 382.82 63.78 396.27 65.45 C 419.52 66.60 442.85 65.94 466.11 65.62 C 509.41 66.70 552.73 65.72 596.01 64.98 C 611.74 66.42 627.55 65.94 643.30 65.29 C 664.29 63.97 685.31 66.22 706.30 65.36 C 732.27 65.12 758.34 66.51 784.24 64.18 Z" />
</g>
<g id="#4b4d509f">
<path fill="#4b4d50" opacity="0.62" d=" M 788.40 63.72 C 790.03 73.35 788.48 83.28 788.98 93.00 L 788.01 92.99 C 787.93 86.00 788.03 79.02 788.01 72.03 C 788.01 70.04 788.01 68.05 788.05 66.05 C 788.14 65.47 788.31 64.30 788.40 63.72 Z" />
</g>
<g id="#1415161c">
<path fill="#141516" opacity="0.11" d=" M 789.99 64.03 L 790.98 63.99 C 790.98 66.74 790.98 72.24 790.98 74.99 L 790.01 75.00 C 789.98 71.35 789.97 67.68 789.99 64.03 Z" />
</g>
<g id="#ccceceff">
<path fill="#cccece" opacity="1.00" d=" M 20.93 66.75 C 272.61 67.24 524.31 67.04 775.99 66.85 C 778.93 68.40 785.67 63.23 786.96 67.98 C 782.71 66.94 778.28 68.23 774.01 67.95 C 639.01 68.06 504.00 67.98 369.00 67.99 C 350.08 68.75 330.97 70.10 312.12 68.26 C 300.78 69.98 289.38 67.97 278.01 68.98 C 262.00 69.67 246.09 66.74 230.08 68.35 C 204.43 69.82 178.65 66.62 153.03 68.85 C 139.41 67.41 125.67 69.52 111.99 68.51 C 93.34 69.49 74.66 68.78 56.00 69.03 C 44.68 69.53 33.49 67.06 22.17 68.09 C 21.65 68.95 21.19 69.84 20.78 70.77 C 20.60 71.13 20.25 71.85 20.07 72.21 C 20.05 70.82 20.02 69.44 19.98 68.06 C 20.22 67.73 20.69 67.07 20.93 66.75 Z" />
</g>
<g id="#5254579d">
<path fill="#525457" opacity="0.62" d=" M 19.24 66.92 L 19.87 67.01 L 19.98 68.06 C 20.02 69.44 20.05 70.82 20.07 72.21 C 20.07 72.70 20.05 73.68 20.04 74.17 C 20.02 75.87 20.00 79.28 19.98 80.98 L 19.01 81.02 C 18.99 76.32 19.09 71.61 19.24 66.92 Z" />
</g>
<g id="#d3d4d5ff">
<path fill="#d3d4d5" opacity="1.00" d=" M 774.01 67.95 C 778.28 68.23 782.71 66.94 786.96 67.98 C 786.98 68.45 787.04 69.41 787.07 69.88 C 777.14 68.30 767.03 70.60 757.00 69.83 C 746.32 68.59 735.52 71.39 724.89 69.39 C 718.92 69.69 712.95 69.98 707.00 69.24 C 691.31 70.67 675.69 68.07 660.01 70.00 C 615.46 69.62 570.82 70.81 526.32 69.33 C 506.26 70.66 486.09 69.91 466.00 69.80 C 458.44 68.75 450.84 70.69 443.31 69.49 C 435.80 71.22 428.45 68.22 420.99 69.82 C 289.00 70.24 156.98 69.89 24.98 69.99 C 23.55 70.02 22.15 70.38 20.78 70.77 C 21.19 69.84 21.65 68.95 22.17 68.09 C 33.49 67.06 44.68 69.53 56.00 69.03 C 74.66 68.78 93.34 69.49 111.99 68.51 C 125.67 69.52 139.41 67.41 153.03 68.85 C 178.65 66.62 204.43 69.82 230.08 68.35 C 246.09 66.74 262.00 69.67 278.01 68.98 C 289.38 67.97 300.78 69.98 312.12 68.26 C 330.97 70.10 350.08 68.75 369.00 67.99 C 504.00 67.98 639.01 68.06 774.01 67.95 Z" />
</g>
<g id="#d9dadbff">
<path fill="#d9dadb" opacity="1.00" d=" M 420.99 69.82 C 428.45 68.22 435.80 71.22 443.31 69.49 C 450.84 70.69 458.44 68.75 466.00 69.80 C 486.09 69.91 506.26 70.66 526.32 69.33 C 570.82 70.81 615.46 69.62 660.01 70.00 C 675.69 68.07 691.31 70.67 707.00 69.24 C 712.95 69.98 718.92 69.69 724.89 69.39 C 735.52 71.39 746.32 68.59 757.00 69.83 C 767.03 70.60 777.14 68.30 787.07 69.88 C 787.08 70.37 787.12 71.34 787.14 71.82 C 781.12 70.27 775.05 72.21 769.01 72.00 C 520.67 72.01 272.33 71.99 23.99 72.00 C 22.57 71.77 21.68 72.92 20.77 73.77 L 20.04 74.17 C 20.05 73.68 20.07 72.70 20.07 72.21 C 20.25 71.85 20.60 71.13 20.78 70.77 C 22.15 70.38 23.55 70.02 24.98 69.99 C 156.98 69.89 289.00 70.24 420.99 69.82 Z" />
</g>
<g id="#e0e1e1ff">
<path fill="#e0e1e1" opacity="1.00" d=" M 769.01 72.00 C 775.05 72.21 781.12 70.27 787.14 71.82 C 787.12 72.33 787.08 73.34 787.06 73.85 C 780.75 72.01 774.37 74.30 768.01 74.00 C 518.94 73.85 269.84 74.30 20.77 73.77 C 21.68 72.92 22.57 71.77 23.99 72.00 C 272.33 71.99 520.67 72.01 769.01 72.00 Z" />
</g>
<g id="#dcdddfeb">
<path fill="#dcdddf" opacity="0.92" d=" M 787.14 71.82 L 788.01 72.03 C 788.03 79.02 787.93 86.00 788.01 92.99 C 787.99 95.66 787.98 98.33 788.00 101.01 L 787.07 101.03 L 787.05 100.11 L 787.04 99.06 C 787.04 98.58 787.04 97.61 787.04 97.12 C 787.01 91.03 787.04 84.94 787.04 78.84 C 787.04 78.36 787.04 77.38 787.04 76.89 C 787.04 76.40 787.04 75.41 787.04 74.91 L 787.06 73.85 C 787.08 73.34 787.12 72.33 787.14 71.82 Z" />
</g>
<g id="#e7e9e8ff">
<path fill="#e7e9e8" opacity="1.00" d=" M 20.77 73.77 C 269.84 74.30 518.94 73.85 768.01 74.00 C 774.37 74.30 780.75 72.01 787.06 73.85 L 787.04 74.91 C 769.81 75.70 752.53 76.69 735.29 75.61 C 691.22 76.47 647.09 75.78 603.00 76.00 C 452.73 75.88 302.32 76.08 151.99 76.01 C 138.94 74.82 125.84 76.93 112.77 75.67 C 83.89 76.32 54.89 76.16 26.09 75.39 C 24.38 75.57 22.69 75.88 20.98 76.07 C 20.93 75.50 20.83 74.35 20.77 73.77 Z" />
</g>
<g id="#e2e4e5ed">
<path fill="#e2e4e5" opacity="0.93" d=" M 20.04 74.17 L 20.77 73.77 C 20.83 74.35 20.93 75.50 20.98 76.07 C 20.99 76.58 21.01 77.59 21.03 78.10 C 21.03 78.59 21.02 79.56 21.02 80.04 C 20.99 83.44 21.00 86.86 21.25 90.26 C 21.06 92.22 20.96 94.19 20.89 96.16 L 20.84 97.10 L 19.97 96.98 C 19.96 94.98 20.00 92.99 19.99 90.99 C 20.02 87.65 20.02 84.32 19.98 80.98 C 20.00 79.28 20.02 75.87 20.04 74.17 Z" />
</g>
<g id="#eff0efff">
<path fill="#eff0ef" opacity="1.00" d=" M 20.98 76.07 C 22.69 75.88 24.38 75.57 26.09 75.39 C 54.89 76.16 83.89 76.32 112.77 75.67 C 125.84 76.93 138.94 74.82 151.99 76.01 C 302.32 76.08 452.73 75.88 603.00 76.00 C 647.09 75.78 691.22 76.47 735.29 75.61 C 752.53 76.69 769.81 75.70 787.04 74.91 C 787.04 75.41 787.04 76.40 787.04 76.89 C 781.78 75.05 776.25 78.46 770.88 77.35 C 746.32 78.37 721.60 77.94 696.99 77.97 C 684.67 76.43 672.28 79.23 659.99 77.49 C 644.80 78.28 629.56 78.24 614.37 77.60 C 572.29 78.25 530.16 78.27 488.08 77.62 C 440.42 78.47 392.69 77.75 345.00 78.03 C 334.95 78.47 325.02 76.58 315.01 77.98 C 268.34 78.03 221.67 77.99 175.00 77.99 C 150.31 76.70 125.73 78.43 101.00 78.00 C 77.35 77.80 53.68 78.43 30.03 77.67 C 27.01 77.14 24.01 77.58 21.03 78.10 C 21.01 77.59 20.99 76.58 20.98 76.07 Z" />
</g>
<g id="#f6f7f5ff">
<path fill="#f6f7f5" opacity="1.00" d=" M 770.88 77.35 C 776.25 78.46 781.78 75.05 787.04 76.89 C 787.04 77.38 787.04 78.36 787.04 78.84 C 781.01 77.58 775.00 79.67 768.97 79.82 C 654.67 80.19 540.31 79.94 425.99 79.97 C 412.01 78.46 397.95 81.33 383.99 79.49 C 359.66 81.19 335.31 78.72 311.00 80.02 C 257.89 79.68 204.72 80.61 151.65 79.52 C 128.78 80.89 105.88 79.14 83.00 80.02 C 62.34 80.76 41.59 78.32 21.02 80.04 C 21.02 79.56 21.03 78.59 21.03 78.10 C 24.01 77.58 27.01 77.14 30.03 77.67 C 53.68 78.43 77.35 77.80 101.00 78.00 C 125.73 78.43 150.31 76.70 175.00 77.99 C 221.67 77.99 268.34 78.03 315.01 77.98 C 325.02 76.58 334.95 78.47 345.00 78.03 C 392.69 77.75 440.42 78.47 488.08 77.62 C 530.16 78.27 572.29 78.25 614.37 77.60 C 629.56 78.24 644.80 78.28 659.99 77.49 C 672.28 79.23 684.67 76.43 696.99 77.97 C 721.60 77.94 746.32 78.37 770.88 77.35 Z" />
</g>
<g id="#fcfcfbff">
<path fill="#fcfcfb" opacity="1.00" d=" M 768.97 79.82 C 775.00 79.67 781.01 77.58 787.04 78.84 C 787.04 84.94 787.01 91.03 787.04 97.12 C 784.17 97.80 781.21 98.13 778.31 97.71 C 767.01 96.19 755.59 97.53 744.26 96.80 C 743.11 96.38 741.97 95.99 740.82 95.64 C 755.48 94.19 770.26 95.05 784.92 95.99 C 784.62 91.13 789.09 82.48 782.92 80.02 C 764.04 84.31 744.62 82.03 725.61 82.61 C 675.22 80.93 624.70 82.93 574.29 81.61 C 536.90 82.30 499.43 82.09 462.01 81.79 C 454.17 80.26 446.18 83.22 438.30 81.63 C 416.00 81.51 393.60 82.74 371.29 81.46 C 327.54 82.61 283.76 81.72 240.00 82.00 C 170.56 81.96 100.96 82.24 31.61 81.56 C 29.29 82.70 23.84 78.91 22.36 82.34 C 22.08 84.96 22.06 87.71 21.25 90.26 C 21.00 86.86 20.99 83.44 21.02 80.04 C 41.59 78.32 62.34 80.76 83.00 80.02 C 105.88 79.14 128.78 80.89 151.65 79.52 C 204.72 80.61 257.89 79.68 311.00 80.02 C 335.31 78.72 359.66 81.19 383.99 79.49 C 397.95 81.33 412.01 78.46 425.99 79.97 C 540.31 79.94 654.67 80.19 768.97 79.82 Z" />
</g>
<g id="#ffffffff">
<path fill="#ffffff" opacity="1.00" d=" M 725.61 82.61 C 744.62 82.03 764.04 84.31 782.92 80.02 C 789.09 82.48 784.62 91.13 784.92 95.99 C 770.26 95.05 755.48 94.19 740.82 95.64 C 651.57 96.58 562.27 95.55 473.02 96.16 C 467.74 97.57 462.35 95.73 457.01 96.01 C 368.67 96.00 280.33 95.98 191.99 96.02 C 185.97 96.01 179.99 97.30 174.00 96.20 C 129.00 95.74 83.99 96.11 38.99 96.02 C 32.93 95.67 26.88 97.86 20.89 96.16 C 20.96 94.19 21.06 92.22 21.25 90.26 C 22.06 87.71 22.08 84.96 22.36 82.34 C 23.84 78.91 29.29 82.70 31.61 81.56 C 100.96 82.24 170.56 81.96 240.00 82.00 C 283.76 81.72 327.54 82.61 371.29 81.46 C 393.60 82.74 416.00 81.51 438.30 81.63 C 446.18 83.22 454.17 80.26 462.01 81.79 C 499.43 82.09 536.90 82.30 574.29 81.61 C 624.70 82.93 675.22 80.93 725.61 82.61 Z" />
</g>
<g id="#4547477a">
<path fill="#454747" opacity="0.48" d=" M 19.01 81.02 L 19.98 80.98 C 20.02 84.32 20.02 87.65 19.99 90.99 L 19.03 91.01 C 19.01 90.26 18.99 88.75 18.98 88.00 C 18.97 86.00 18.95 84.00 18.98 82.00 L 19.01 81.02 Z" />
</g>
<g id="#13131315">
<path fill="#131313" opacity="0.08" d=" M 790.01 82.00 L 790.99 82.00 C 789.78 85.12 793.10 92.58 789.98 94.03 C 789.96 90.02 789.97 86.01 790.01 82.00 Z" />
</g>
<g id="#0f101133">
<path fill="#0f1011" opacity="0.20" d=" M 18.02 88.00 L 18.98 88.00 C 18.99 88.75 19.01 90.26 19.03 91.01 C 19.00 95.67 18.97 100.34 19.01 105.01 C 19.00 106.34 18.99 107.67 18.98 109.00 L 18.03 109.00 C 17.92 102.00 17.96 95.00 18.02 88.00 Z" />
</g>
<g id="#4b4d50ae">
<path fill="#4b4d50" opacity="0.68" d=" M 19.03 91.01 L 19.99 90.99 C 20.00 92.99 19.96 94.98 19.97 96.98 C 19.98 97.71 20.00 99.18 20.01 99.91 C 20.02 100.38 20.05 101.33 20.06 101.80 C 20.04 102.60 20.00 104.20 19.98 105.00 L 19.01 105.01 C 18.97 100.34 19.00 95.67 19.03 91.01 Z" />
</g>
<g id="#47494a82">
<path fill="#47494a" opacity="0.51" d=" M 788.01 92.99 L 788.98 93.00 L 789.01 93.99 C 789.05 100.96 788.83 107.95 789.09 114.93 L 788.05 114.82 C 788.04 113.56 788.03 112.30 788.03 111.04 C 787.97 107.68 788.04 104.35 788.00 101.01 C 787.98 98.33 787.99 95.66 788.01 92.99 Z" />
</g>
<g id="#1516173c">
<path fill="#151617" opacity="0.24" d=" M 789.01 93.99 L 789.98 94.03 C 788.99 106.75 791.52 119.30 790.95 131.99 C 790.21 131.98 788.74 131.95 788.01 131.94 L 787.88 131.01 C 788.82 130.18 790.14 129.44 790.04 127.96 C 789.89 123.93 790.44 119.71 789.32 115.78 L 789.09 114.93 C 788.83 107.95 789.05 100.96 789.01 93.99 Z" />
</g>
<g id="#f6f7f8ff">
<path fill="#f6f7f8" opacity="1.00" d=" M 20.89 96.16 C 26.88 97.86 32.93 95.67 38.99 96.02 C 83.99 96.11 129.00 95.74 174.00 96.20 C 179.99 97.30 185.97 96.01 191.99 96.02 C 280.33 95.98 368.67 96.00 457.01 96.01 C 462.35 95.73 467.74 97.57 473.02 96.16 C 562.27 95.55 651.57 96.58 740.82 95.64 C 741.97 95.99 743.11 96.38 744.26 96.80 C 720.50 97.23 696.74 96.91 672.98 96.97 C 670.46 96.64 668.04 96.90 665.73 97.76 C 458.42 98.47 251.09 97.54 43.78 98.22 C 36.22 97.52 28.74 99.12 21.20 98.95 C 21.11 98.48 20.93 97.56 20.84 97.10 L 20.89 96.16 Z" />
</g>
<g id="#e4e6e8ff">
<path fill="#e4e6e8" opacity="1.00" d=" M 19.97 96.98 L 20.84 97.10 C 20.93 97.56 21.11 98.48 21.20 98.95 C 28.74 99.12 36.22 97.52 43.78 98.22 C 52.12 99.53 60.59 98.87 69.00 99.01 C 290.67 98.99 512.33 99.01 734.00 99.00 C 744.06 98.76 754.22 99.71 764.22 98.18 C 771.83 98.31 779.39 99.35 787.04 99.06 L 787.05 100.11 C 780.76 102.07 774.36 99.63 768.01 100.00 C 518.94 100.14 269.85 99.72 20.78 100.21 L 20.01 99.91 C 20.00 99.18 19.98 97.71 19.97 96.98 Z" />
</g>
<g id="#f1f2f2ff">
<path fill="#f1f2f2" opacity="1.00" d=" M 665.73 97.76 C 668.04 96.90 670.46 96.64 672.98 96.97 C 696.74 96.91 720.50 97.23 744.26 96.80 C 755.59 97.53 767.01 96.19 778.31 97.71 C 781.21 98.13 784.17 97.80 787.04 97.12 C 787.04 97.61 787.04 98.58 787.04 99.06 C 779.39 99.35 771.83 98.31 764.22 98.18 C 731.40 97.61 698.56 98.43 665.73 97.76 Z" />
</g>
<g id="#ebedeeff">
<path fill="#ebedee" opacity="1.00" d=" M 43.78 98.22 C 251.09 97.54 458.42 98.47 665.73 97.76 C 698.56 98.43 731.40 97.61 764.22 98.18 C 754.22 99.71 744.06 98.76 734.00 99.00 C 512.33 99.01 290.67 98.99 69.00 99.01 C 60.59 98.87 52.12 99.53 43.78 98.22 Z" />
</g>
<g id="#d7d8dbff">
<path fill="#d7d8db" opacity="1.00" d=" M 20.01 99.91 L 20.78 100.21 C 22.30 102.09 24.38 102.67 27.00 101.96 C 37.67 101.97 48.41 102.53 59.03 101.11 C 93.19 102.45 127.67 102.03 161.89 101.30 C 195.54 102.90 229.30 101.56 263.00 102.00 C 332.33 101.47 401.66 102.39 471.01 101.90 C 481.28 100.47 491.66 102.99 502.01 102.03 C 515.00 100.60 527.96 102.54 541.00 102.01 C 568.56 101.70 596.14 102.61 623.68 101.50 C 634.76 102.15 645.92 102.41 657.01 101.51 C 669.98 102.07 683.05 102.60 696.01 101.28 C 710.02 102.36 723.96 100.57 737.99 102.01 C 751.80 101.57 765.62 101.08 779.41 102.38 C 781.86 103.45 784.61 102.61 787.03 102.00 L 787.02 102.98 C 784.17 105.08 780.64 104.62 777.33 104.59 C 763.57 103.76 749.78 102.93 736.01 103.98 C 714.33 103.87 692.67 102.87 671.00 104.06 C 656.67 102.59 642.25 105.36 627.99 103.10 C 612.98 103.66 597.89 104.98 582.89 103.40 C 558.40 104.41 533.80 104.23 509.29 103.61 C 479.27 104.01 449.12 104.68 419.12 103.27 C 413.86 104.02 408.56 104.10 403.31 103.49 C 389.21 105.14 375.10 102.56 361.01 103.97 C 307.67 104.05 254.34 103.96 201.00 104.01 C 192.55 103.99 184.08 104.26 175.67 103.38 C 144.14 104.40 112.55 103.50 80.98 103.92 C 60.94 102.07 40.70 105.51 20.78 103.23 C 20.60 102.87 20.24 102.16 20.06 101.80 C 20.05 101.33 20.02 100.38 20.01 99.91 Z" />
</g>
<g id="#dedfe2ff">
<path fill="#dedfe2" opacity="1.00" d=" M 20.78 100.21 C 269.85 99.72 518.94 100.14 768.01 100.00 C 774.36 99.63 780.76 102.07 787.05 100.11 L 787.07 101.03 L 787.03 102.00 C 784.61 102.61 781.86 103.45 779.41 102.38 C 765.62 101.08 751.80 101.57 737.99 102.01 C 723.96 100.57 710.02 102.36 696.01 101.28 C 683.05 102.60 669.98 102.07 657.01 101.51 C 645.92 102.41 634.76 102.15 623.68 101.50 C 596.14 102.61 568.56 101.70 541.00 102.01 C 527.96 102.54 515.00 100.60 502.01 102.03 C 491.66 102.99 481.28 100.47 471.01 101.90 C 401.66 102.39 332.33 101.47 263.00 102.00 C 229.30 101.56 195.54 102.90 161.89 101.30 C 127.67 102.03 93.19 102.45 59.03 101.11 C 48.41 102.53 37.67 101.97 27.00 101.96 C 24.38 102.67 22.30 102.09 20.78 100.21 Z" />
</g>
<g id="#b6babbe4">
<path fill="#b6babb" opacity="0.89" d=" M 787.07 101.03 L 788.00 101.01 C 788.04 104.35 787.97 107.68 788.03 111.04 L 787.15 111.01 C 787.13 110.53 787.08 109.59 787.06 109.12 L 787.03 108.06 C 787.03 107.30 787.02 105.78 787.01 105.02 C 787.01 104.51 787.02 103.49 787.02 102.98 L 787.03 102.00 L 787.07 101.03 Z" />
</g>
<g id="#cbcbcdff">
<path fill="#cbcbcd" opacity="1.00" d=" M 20.06 101.80 C 20.24 102.16 20.60 102.87 20.78 103.23 C 21.78 108.52 28.51 104.88 31.99 106.05 C 53.00 105.04 73.97 106.35 95.00 106.00 C 293.99 105.88 493.01 106.25 691.99 105.81 C 697.65 106.11 703.34 104.88 709.00 105.80 C 732.96 106.48 756.96 105.47 780.93 106.27 C 783.05 106.74 785.09 105.82 787.01 105.02 C 787.02 105.78 787.03 107.30 787.03 108.06 C 533.01 107.98 278.98 107.96 24.98 107.98 C 23.14 107.95 21.61 106.73 20.00 105.98 L 19.98 105.00 C 20.00 104.20 20.04 102.60 20.06 101.80 Z" />
</g>
<g id="#d1d2d4ff">
<path fill="#d1d2d4" opacity="1.00" d=" M 20.78 103.23 C 40.70 105.51 60.94 102.07 80.98 103.92 C 112.55 103.50 144.14 104.40 175.67 103.38 C 184.08 104.26 192.55 103.99 201.00 104.01 C 254.34 103.96 307.67 104.05 361.01 103.97 C 375.10 102.56 389.21 105.14 403.31 103.49 C 408.56 104.10 413.86 104.02 419.12 103.27 C 449.12 104.68 479.27 104.01 509.29 103.61 C 533.80 104.23 558.40 104.41 582.89 103.40 C 597.89 104.98 612.98 103.66 627.99 103.10 C 642.25 105.36 656.67 102.59 671.00 104.06 C 692.67 102.87 714.33 103.87 736.01 103.98 C 749.78 102.93 763.57 103.76 777.33 104.59 C 780.64 104.62 784.17 105.08 787.02 102.98 C 787.02 103.49 787.01 104.51 787.01 105.02 C 785.09 105.82 783.05 106.74 780.93 106.27 C 756.96 105.47 732.96 106.48 709.00 105.80 C 703.34 104.88 697.65 106.11 691.99 105.81 C 493.01 106.25 293.99 105.88 95.00 106.00 C 73.97 106.35 53.00 105.04 31.99 106.05 C 28.51 104.88 21.78 108.52 20.78 103.23 Z" />
</g>
<g id="#3b3d41d8">
<path fill="#3b3d41" opacity="0.85" d=" M 19.01 105.01 L 19.98 105.00 L 20.00 105.98 C 20.00 106.46 20.01 107.43 20.01 107.91 C 20.01 108.41 20.01 109.41 20.01 109.90 C 20.01 110.41 20.00 111.42 19.99 111.92 L 19.96 112.97 L 18.99 113.04 C 18.99 111.69 18.98 110.34 18.98 109.00 C 18.99 107.67 19.00 106.34 19.01 105.01 Z" />
</g>
<g id="#c4c4c5ff">
<path fill="#c4c4c5" opacity="1.00" d=" M 20.00 105.98 C 21.61 106.73 23.14 107.95 24.98 107.98 C 278.98 107.96 533.01 107.98 787.03 108.06 L 787.06 109.12 C 783.40 109.86 779.72 110.17 776.01 110.03 C 525.34 109.95 274.67 110.04 24.00 109.98 C 22.34 110.12 21.23 108.77 20.01 107.91 C 20.01 107.43 20.00 106.46 20.00 105.98 Z" />
</g>
<g id="#bcbcbcff">
<path fill="#bcbcbc" opacity="1.00" d=" M 20.01 107.91 C 21.23 108.77 22.34 110.12 24.00 109.98 C 274.67 110.04 525.34 109.95 776.01 110.03 C 779.72 110.17 783.40 109.86 787.06 109.12 C 787.08 109.59 787.13 110.53 787.15 111.01 C 782.79 111.53 778.39 112.14 774.01 112.01 C 524.00 111.98 273.99 112.01 23.99 112.00 C 22.33 112.17 21.24 110.73 20.01 109.90 C 20.01 109.41 20.01 108.41 20.01 107.91 Z" />
</g>
<g id="#0c0c0e61">
<path fill="#0c0c0e" opacity="0.38" d=" M 18.03 109.00 L 18.98 109.00 C 18.98 110.34 18.99 111.69 18.99 113.04 C 19.15 118.74 18.49 124.58 19.66 130.21 L 19.86 131.06 L 20.05 131.99 C 17.60 132.84 17.90 130.71 17.98 129.00 C 18.02 123.33 18.03 117.66 17.98 112.00 C 17.99 111.25 18.02 109.75 18.03 109.00 Z" />
</g>
<g id="#b2b2b2ff">
<path fill="#b2b2b2" opacity="1.00" d=" M 20.01 109.90 C 21.24 110.73 22.33 112.17 23.99 112.00 C 273.99 112.01 524.00 111.98 774.01 112.01 C 778.39 112.14 782.79 111.53 787.15 111.01 L 787.00 111.99 C 782.72 114.31 777.69 113.96 773.01 114.03 C 524.67 113.98 276.32 113.98 27.98 114.03 C 24.78 115.33 22.18 113.78 19.99 111.92 C 20.00 111.42 20.01 110.41 20.01 109.90 Z" />
</g>
<g id="#9c9c9cff">
<path fill="#9c9c9c" opacity="1.00" d=" M 787.15 111.01 L 788.03 111.04 C 788.03 112.30 788.04 113.56 788.05 114.82 C 785.72 116.62 783.70 119.68 780.00 117.96 C 758.56 117.70 737.06 118.68 715.67 117.55 C 695.76 118.31 675.73 118.15 655.87 117.34 C 644.05 117.87 632.13 118.59 620.29 117.67 C 610.19 117.17 600.06 118.71 590.00 117.24 C 573.48 118.72 556.83 117.99 540.32 117.33 C 501.93 118.90 463.43 117.53 425.00 118.03 C 413.18 118.52 401.42 115.95 389.60 117.39 C 363.09 119.48 336.51 116.37 310.00 118.02 C 286.65 118.45 263.35 116.86 240.01 117.97 C 220.97 117.91 201.92 118.44 182.91 117.38 C 161.36 118.74 139.77 117.39 118.22 117.79 C 86.18 116.05 53.96 117.32 21.85 117.16 C 21.38 116.86 20.44 116.26 19.97 115.97 C 19.97 115.48 19.97 114.52 19.97 114.03 C 25.11 115.84 30.58 116.12 35.99 116.02 C 284.99 115.96 534.00 116.02 783.01 116.00 C 785.20 116.29 786.96 114.04 787.00 111.99 L 787.15 111.01 Z" />
</g>
<g id="#0e0e0f25">
<path fill="#0e0e0f" opacity="0.15" d=" M 17.03 112.02 L 17.98 112.00 C 18.03 117.66 18.02 123.33 17.98 129.00 L 17.02 129.00 C 16.99 123.34 16.85 117.68 17.03 112.02 Z" />
</g>
<g id="#a7a7a8ff">
<path fill="#a7a7a8" opacity="1.00" d=" M 19.99 111.92 C 22.18 113.78 24.78 115.33 27.98 114.03 C 276.32 113.98 524.67 113.98 773.01 114.03 C 777.69 113.96 782.72 114.31 787.00 111.99 C 786.96 114.04 785.20 116.29 783.01 116.00 C 534.00 116.02 284.99 115.96 35.99 116.02 C 30.58 116.12 25.11 115.84 19.97 114.03 L 19.96 112.97 L 19.99 111.92 Z" />
</g>
<g id="#212226e8">
<path fill="#212226" opacity="0.91" d=" M 18.99 113.04 L 19.96 112.97 L 19.97 114.03 C 19.97 114.52 19.97 115.48 19.97 115.97 C 19.97 116.46 19.98 117.44 19.98 117.94 C 19.98 118.43 19.99 119.41 19.99 119.91 C 19.99 120.69 19.99 122.27 19.99 123.06 C 19.99 123.53 19.99 124.48 19.99 124.95 C 19.97 125.73 19.93 127.27 19.91 128.05 C 19.85 128.59 19.72 129.67 19.66 130.21 C 18.49 124.58 19.15 118.74 18.99 113.04 Z" />
</g>
<g id="#929292ff">
<path fill="#929292" opacity="1.00" d=" M 780.00 117.96 C 783.70 119.68 785.72 116.62 788.05 114.82 C 788.04 115.34 788.01 116.38 787.99 116.90 C 786.06 118.38 783.88 120.47 781.00 118.96 C 527.95 119.15 274.90 118.78 21.85 119.14 C 21.38 118.84 20.45 118.24 19.98 117.94 C 19.98 117.44 19.97 116.46 19.97 115.97 C 20.44 116.26 21.38 116.86 21.85 117.16 C 28.32 118.81 35.33 117.69 42.00 118.02 C 67.41 117.86 92.81 118.25 118.22 117.79 C 139.77 117.39 161.36 118.74 182.91 117.38 C 201.92 118.44 220.97 117.91 240.01 117.97 C 263.35 116.86 286.65 118.45 310.00 118.02 C 336.51 116.37 363.09 119.48 389.60 117.39 C 401.42 115.95 413.18 118.52 425.00 118.03 C 463.43 117.53 501.93 118.90 540.32 117.33 C 556.83 117.99 573.48 118.72 590.00 117.24 C 600.06 118.71 610.19 117.17 620.29 117.67 C 632.13 118.59 644.05 117.87 655.87 117.34 C 675.73 118.15 695.76 118.31 715.67 117.55 C 737.06 118.68 758.56 117.70 780.00 117.96 Z" />
</g>
<g id="#2e3032cd">
<path fill="#2e3032" opacity="0.80" d=" M 788.05 114.82 L 789.09 114.93 L 789.32 115.78 C 789.08 118.95 789.11 122.16 788.51 125.29 C 788.37 124.43 788.10 122.70 787.96 121.83 C 787.96 121.38 787.97 120.48 787.97 120.03 C 787.98 119.25 787.99 117.68 787.99 116.90 C 788.01 116.38 788.04 115.34 788.05 114.82 Z" />
</g>
<g id="#1f212284">
<path fill="#1f2122" opacity="0.52" d=" M 789.32 115.78 C 790.44 119.71 789.89 123.93 790.04 127.96 C 789.56 128.00 788.59 128.07 788.11 128.10 L 788.24 127.24 C 788.33 126.59 788.42 125.94 788.51 125.29 C 789.11 122.16 789.08 118.95 789.32 115.78 Z" />
</g>
<g id="#979797ff">
<path fill="#979797" opacity="1.00" d=" M 21.85 117.16 C 53.96 117.32 86.18 116.05 118.22 117.79 C 92.81 118.25 67.41 117.86 42.00 118.02 C 35.33 117.69 28.32 118.81 21.85 117.16 Z" />
</g>
<g id="#868787ff">
<path fill="#868787" opacity="1.00" d=" M 781.00 118.96 C 783.88 120.47 786.06 118.38 787.99 116.90 C 787.99 117.68 787.98 119.25 787.97 120.03 L 787.16 120.22 C 772.11 120.24 756.99 119.10 742.01 120.80 C 723.70 119.34 705.33 120.23 687.00 120.00 C 472.00 120.01 257.00 119.98 42.00 120.02 C 35.33 119.68 28.30 120.83 21.85 119.14 C 274.90 118.78 527.95 119.15 781.00 118.96 Z" />
</g>
<g id="#7c7c7cff">
<path fill="#7c7c7c" opacity="1.00" d=" M 19.98 117.94 C 20.45 118.24 21.38 118.84 21.85 119.14 C 28.30 120.83 35.33 119.68 42.00 120.02 C 257.00 119.98 472.00 120.01 687.00 120.00 C 705.33 120.23 723.70 119.34 742.01 120.80 C 756.99 119.10 772.11 120.24 787.16 120.22 C 780.67 122.49 773.72 121.93 767.00 122.03 C 745.00 121.98 722.99 122.00 701.00 122.01 C 513.26 122.13 325.52 121.73 137.78 122.21 C 127.83 120.92 117.90 123.76 107.99 122.18 C 79.70 121.67 51.39 122.27 23.10 121.92 C 21.86 121.63 21.02 120.58 19.99 119.91 C 19.99 119.41 19.98 118.43 19.98 117.94 Z" />
</g>
<g id="#6e6d6dff">
<path fill="#6e6d6d" opacity="1.00" d=" M 19.99 119.91 C 21.02 120.58 21.86 121.63 23.10 121.92 C 51.39 122.27 79.70 121.67 107.99 122.18 C 117.90 123.76 127.83 120.92 137.78 122.21 C 146.12 123.54 154.60 122.86 163.00 123.01 C 342.34 122.98 521.67 123.02 701.01 122.99 C 728.74 123.17 756.49 122.67 784.23 123.25 C 775.87 124.50 767.40 123.88 759.00 124.01 C 537.33 123.99 315.67 124.01 94.00 124.00 C 70.59 124.22 47.15 123.59 23.75 124.25 C 22.45 124.00 21.21 123.55 19.99 123.06 C 19.99 122.27 19.99 120.69 19.99 119.91 Z" />
</g>
<g id="#737373ff">
<path fill="#737373" opacity="1.00" d=" M 787.16 120.22 L 787.97 120.03 C 787.97 120.48 787.96 121.38 787.96 121.83 C 787.73 122.14 787.28 122.74 787.05 123.05 C 786.34 123.10 784.93 123.20 784.23 123.25 C 756.49 122.67 728.74 123.17 701.01 122.99 L 701.00 122.01 C 722.99 122.00 745.00 121.98 767.00 122.03 C 773.72 121.93 780.67 122.49 787.16 120.22 Z" />
</g>
<g id="#757474ff">
<path fill="#757474" opacity="1.00" d=" M 137.78 122.21 C 325.52 121.73 513.26 122.13 701.00 122.01 L 701.01 122.99 C 521.67 123.02 342.34 122.98 163.00 123.01 C 154.60 122.86 146.12 123.54 137.78 122.21 Z" />
</g>
<g id="#565556ff">
<path fill="#565556" opacity="1.00" d=" M 787.05 123.05 C 787.28 122.74 787.73 122.14 787.96 121.83 C 788.10 122.70 788.37 124.43 788.51 125.29 C 784.68 125.78 780.84 126.03 777.01 126.01 C 525.29 126.08 273.57 125.82 21.85 126.14 C 21.38 125.84 20.45 125.25 19.99 124.95 C 19.99 124.48 19.99 123.53 19.99 123.06 C 21.21 123.55 22.45 124.00 23.75 124.25 C 26.31 124.44 31.43 124.83 33.99 125.03 C 283.99 124.96 534.00 125.03 784.01 124.99 C 785.53 125.33 786.34 124.18 787.05 123.05 Z" />
</g>
<g id="#626061ff">
<path fill="#626061" opacity="1.00" d=" M 784.23 123.25 C 784.93 123.20 786.34 123.10 787.05 123.05 C 786.34 124.18 785.53 125.33 784.01 124.99 C 534.00 125.03 283.99 124.96 33.99 125.03 C 31.43 124.83 26.31 124.44 23.75 124.25 C 47.15 123.59 70.59 124.22 94.00 124.00 C 315.67 124.01 537.33 123.99 759.00 124.01 C 767.40 123.88 775.87 124.50 784.23 123.25 Z" />
</g>
<g id="#3f3f40ff">
<path fill="#3f3f40" opacity="1.00" d=" M 19.99 124.95 C 20.45 125.25 21.38 125.84 21.85 126.14 C 28.31 127.83 35.33 126.68 42.00 127.02 C 262.00 126.98 482.00 127.01 702.00 127.00 C 730.09 127.20 758.20 126.61 786.29 127.26 C 777.90 128.48 769.42 127.89 761.00 128.01 C 539.33 127.99 317.67 128.01 96.00 128.00 C 71.26 128.18 46.52 127.65 21.79 128.23 C 21.32 128.19 20.38 128.09 19.91 128.05 C 19.93 127.27 19.97 125.73 19.99 124.95 Z" />
</g>
<g id="#4a4a4bff">
<path fill="#4a4a4b" opacity="1.00" d=" M 777.01 126.01 C 780.84 126.03 784.68 125.78 788.51 125.29 C 788.42 125.94 788.33 126.59 788.24 127.24 C 787.75 127.24 786.77 127.26 786.29 127.26 C 758.20 126.61 730.09 127.20 702.00 127.00 C 482.00 127.01 262.00 126.98 42.00 127.02 C 35.33 126.68 28.31 127.83 21.85 126.14 C 273.57 125.82 525.29 126.08 777.01 126.01 Z" />
</g>
<g id="#353536ff">
<path fill="#353536" opacity="1.00" d=" M 786.29 127.26 C 786.77 127.26 787.75 127.24 788.24 127.24 L 788.11 128.10 C 787.15 128.51 786.19 128.87 785.22 129.21 C 582.74 128.88 380.25 128.82 177.78 129.24 C 135.86 128.68 93.93 129.16 52.00 129.00 C 41.93 128.78 31.79 129.67 21.79 128.23 C 46.52 127.65 71.26 128.18 96.00 128.00 C 317.67 128.01 539.33 127.99 761.00 128.01 C 769.42 127.89 777.90 128.48 786.29 127.26 Z" />
</g>
<g id="#252629ff">
<path fill="#252629" opacity="1.00" d=" M 19.91 128.05 C 20.38 128.09 21.32 128.19 21.79 128.23 C 31.79 129.67 41.93 128.78 52.00 129.00 C 93.93 129.16 135.86 128.68 177.78 129.24 C 216.45 131.01 255.27 129.49 294.00 130.01 L 294.00 130.99 C 202.62 131.05 111.24 130.91 19.86 131.06 L 19.66 130.21 C 19.72 129.67 19.85 128.59 19.91 128.05 Z" />
</g>
<g id="#212326fe">
<path fill="#212326" opacity="1.00" d=" M 785.22 129.21 C 786.19 128.87 787.15 128.51 788.11 128.10 C 788.59 128.07 789.56 128.00 790.04 127.96 C 790.14 129.44 788.82 130.18 787.88 131.01 C 770.91 131.00 753.95 130.98 736.99 131.00 C 660.32 131.00 583.66 131.00 506.99 131.00 C 435.99 130.99 365.00 131.01 294.00 130.99 L 294.00 130.01 C 451.00 130.00 608.00 129.98 765.00 130.02 C 771.71 129.80 778.58 130.64 785.22 129.21 Z" />
</g>
<g id="#292b2dff">
<path fill="#292b2d" opacity="1.00" d=" M 177.78 129.24 C 380.25 128.82 582.74 128.88 785.22 129.21 C 778.58 130.64 771.71 129.80 765.00 130.02 C 608.00 129.98 451.00 130.00 294.00 130.01 C 255.27 129.49 216.45 131.01 177.78 129.24 Z" />
</g>
<g id="#080b0ec9">
<path fill="#080b0e" opacity="0.79" d=" M 19.86 131.06 C 111.24 130.91 202.62 131.05 294.00 130.99 C 365.00 131.01 435.99 130.99 506.99 131.00 L 507.01 131.96 C 344.69 132.05 182.37 131.99 20.05 131.99 L 19.86 131.06 Z" />
</g>
<g id="#07090dc2">
<path fill="#07090d" opacity="0.76" d=" M 506.99 131.00 C 583.66 131.00 660.32 131.00 736.99 131.00 L 737.01 131.96 C 660.34 132.03 583.67 132.03 507.01 131.96 L 506.99 131.00 Z" />
</g>
<g id="#0c0f16cb">
<path fill="#0c0f16" opacity="0.80" d=" M 736.99 131.00 C 753.95 130.98 770.91 131.00 787.88 131.01 L 788.01 131.94 C 771.00 132.02 754.00 132.08 737.01 131.96 L 736.99 131.00 Z" />
</g>
</svg>
