<?xml version="1.0" encoding="UTF-8" ?>
<!DOCTYPE svg PUBLIC "-//W3C//DTD SVG 1.1//EN" "http://www.w3.org/Graphics/SVG/1.1/DTD/svg11.dtd">
<svg width="900pt" height="196pt" viewBox="0 0 900 196" version="1.1" xmlns="http://www.w3.org/2000/svg">
<g id="#ffffffff">
</g>
<g id="#c2a690ff">
<path fill="#c2a690" opacity="1.00" d=" M 199.02 55.96 C 201.37 55.81 203.62 54.97 206.00 55.00 C 233.33 55.09 260.67 54.98 288.01 55.06 C 291.69 54.84 295.38 54.99 298.96 55.92 C 305.81 56.19 312.68 55.79 319.54 56.04 L 318.57 57.26 C 313.96 57.60 309.26 58.15 304.72 56.93 C 304.63 57.14 304.44 57.56 304.35 57.78 C 292.26 57.85 280.17 57.85 268.08 57.84 C 233.73 57.49 199.36 58.00 165.00 57.66 C 159.32 57.42 153.64 57.63 147.96 57.59 C 146.22 57.69 144.59 57.04 143.13 56.17 C 161.75 55.74 180.39 56.16 199.02 55.96 Z" />
</g>
<g id="#b89378ff">
<path fill="#b89378" opacity="1.00" d=" M 29.73 57.81 C 31.06 56.25 33.01 55.81 34.99 56.02 C 58.80 56.55 82.62 55.99 106.44 56.29 C 100.29 57.32 94.06 57.62 87.88 58.35 C 89.25 58.79 90.63 59.24 92.00 59.68 C 87.86 59.76 83.72 59.96 79.58 60.14 C 82.54 60.85 85.63 61.55 87.85 63.79 C 82.30 63.79 76.71 63.99 71.35 65.59 C 65.36 65.20 59.32 65.87 53.38 64.85 C 55.27 63.44 57.52 62.73 59.82 62.32 C 59.30 62.20 58.28 61.96 57.76 61.85 C 57.62 61.50 57.34 60.82 57.20 60.48 C 55.67 60.38 54.14 60.28 52.62 60.18 C 52.51 59.72 52.31 58.79 52.21 58.33 C 44.61 60.31 37.23 55.31 29.73 57.81 Z" />
</g>
<g id="#b58c6fff">
<path fill="#b58c6f" opacity="1.00" d=" M 106.44 56.29 C 118.65 55.81 130.91 56.13 143.13 56.17 C 144.59 57.04 146.22 57.69 147.96 57.59 C 153.64 57.63 159.32 57.42 165.00 57.66 C 165.73 58.90 166.70 59.96 167.74 60.94 C 159.57 60.95 151.57 63.69 143.37 62.64 C 136.23 61.62 129.12 63.01 121.98 63.20 C 110.62 63.39 99.39 65.96 88.00 65.38 C 82.43 64.95 76.85 67.03 71.35 65.59 C 76.71 63.99 82.30 63.79 87.85 63.79 C 85.63 61.55 82.54 60.85 79.58 60.14 C 83.72 59.96 87.86 59.76 92.00 59.68 C 90.63 59.24 89.25 58.79 87.88 58.35 C 94.06 57.62 100.29 57.32 106.44 56.29 Z" />
</g>
<g id="#aa7b54ff">
<path fill="#aa7b54" opacity="1.00" d=" M 29.73 57.81 C 37.23 55.31 44.61 60.31 52.21 58.33 C 52.31 58.79 52.51 59.72 52.62 60.18 C 54.14 60.28 55.67 60.38 57.20 60.48 C 57.34 60.82 57.62 61.50 57.76 61.85 C 58.28 61.96 59.30 62.20 59.82 62.32 C 57.52 62.73 55.27 63.44 53.38 64.85 C 59.32 65.87 65.36 65.20 71.35 65.59 C 76.85 67.03 82.43 64.95 88.00 65.38 C 99.39 65.96 110.62 63.39 121.98 63.20 C 129.12 63.01 136.23 61.62 143.37 62.64 C 151.57 63.69 159.57 60.95 167.74 60.94 C 166.70 59.96 165.73 58.90 165.00 57.66 C 199.36 58.00 233.73 57.49 268.08 57.84 C 272.05 60.14 276.68 59.12 281.01 59.16 C 288.75 59.10 296.49 59.36 304.23 59.26 C 293.34 60.76 282.22 58.34 271.41 60.53 C 274.01 60.99 276.63 61.32 279.26 61.60 C 277.15 61.96 275.05 62.36 272.95 62.77 C 278.97 62.58 284.92 61.26 290.96 61.52 C 305.64 61.85 320.31 62.51 335.00 62.02 C 343.00 61.54 351.00 62.43 359.01 61.99 C 386.34 62.53 413.68 62.04 441.00 62.40 C 455.56 62.42 470.12 62.13 484.67 62.43 C 491.56 63.38 498.57 63.05 505.38 64.61 C 512.97 64.72 520.49 65.73 528.04 66.57 C 524.43 67.50 520.72 67.80 517.01 67.64 C 511.01 67.43 505.03 68.28 499.03 68.12 C 495.37 68.04 491.71 67.89 488.06 68.19 C 477.49 69.15 466.87 68.36 456.29 68.42 C 441.54 68.92 426.77 68.39 412.02 68.76 C 405.00 69.34 397.93 70.27 390.92 69.07 C 384.93 67.95 378.99 69.74 373.00 69.63 C 365.00 69.55 356.99 69.91 349.01 69.17 C 338.13 68.95 327.22 69.46 316.35 68.68 C 311.23 68.35 306.13 69.39 301.01 69.05 C 292.34 68.51 283.66 69.58 275.01 68.74 C 270.48 68.02 266.47 71.04 261.99 70.82 C 257.99 70.68 254.06 69.79 250.05 69.78 C 245.25 69.66 240.77 71.82 235.98 71.83 C 230.98 71.85 225.96 72.80 220.98 71.96 C 216.59 71.22 212.36 73.27 207.96 72.85 C 209.71 72.37 211.46 71.92 213.22 71.45 C 203.47 67.77 194.10 74.51 184.82 76.66 C 184.20 75.82 183.58 74.98 182.96 74.15 C 180.19 73.89 177.44 73.46 174.77 72.69 C 174.63 72.93 174.36 73.41 174.22 73.65 C 174.86 75.15 175.50 76.64 176.13 78.15 C 171.48 77.67 167.58 72.79 162.84 74.80 C 163.94 76.09 165.04 77.38 166.14 78.68 C 162.67 79.56 159.02 78.81 155.59 79.86 C 138.85 82.29 121.81 81.52 104.97 82.96 C 89.91 85.10 74.52 82.04 59.59 85.26 C 53.75 85.86 47.89 83.49 42.08 85.11 C 37.80 86.34 33.35 86.32 29.00 85.47 C 29.06 76.30 28.86 67.12 29.12 57.95 L 29.73 57.81 Z" />
</g>
<g id="#846043ff">
<path fill="#846043" opacity="1.00" d=" M 304.35 57.78 C 304.44 57.56 304.63 57.14 304.72 56.93 C 309.26 58.15 313.96 57.60 318.57 57.26 C 383.38 57.11 448.20 57.05 513.01 57.05 C 518.68 57.42 524.30 56.21 529.97 56.49 C 553.77 56.73 577.60 56.23 601.38 56.75 C 604.55 57.47 607.78 57.94 611.03 58.14 C 610.25 58.69 609.47 59.24 608.71 59.80 C 602.77 60.00 596.86 60.53 590.96 61.12 C 585.67 61.71 580.29 61.64 575.12 63.03 C 547.42 62.22 519.68 63.27 491.98 62.13 C 489.54 62.13 487.11 62.32 484.67 62.43 C 470.12 62.13 455.56 62.42 441.00 62.40 C 413.68 62.04 386.34 62.53 359.01 61.99 C 351.00 62.43 343.00 61.54 335.00 62.02 C 320.31 62.51 305.64 61.85 290.96 61.52 C 284.92 61.26 278.97 62.58 272.95 62.77 C 275.05 62.36 277.15 61.96 279.26 61.60 C 276.63 61.32 274.01 60.99 271.41 60.53 C 282.22 58.34 293.34 60.76 304.23 59.26 C 306.81 59.09 309.39 58.84 311.97 58.69 C 309.43 58.39 306.88 58.12 304.35 57.78 Z" />
</g>
<g id="#8f725bff">
<path fill="#8f725b" opacity="1.00" d=" M 601.38 56.75 C 615.58 56.22 629.81 56.70 644.03 56.46 C 648.10 56.26 652.15 57.49 656.21 56.74 C 660.46 55.98 664.71 57.28 668.98 57.04 C 688.56 57.02 708.13 56.92 727.71 57.14 C 736.19 56.84 744.54 58.89 753.03 58.45 C 760.05 58.13 766.99 59.72 774.01 59.42 C 779.05 59.14 783.98 60.55 789.02 60.41 C 794.72 60.11 800.29 61.96 806.01 61.49 C 812.71 60.87 819.30 62.82 826.00 62.45 C 831.35 62.27 836.64 64.10 841.99 63.15 C 845.94 62.50 849.95 62.46 853.95 62.41 C 859.83 62.36 865.21 59.67 870.68 57.82 C 871.09 61.57 871.02 65.34 871.00 69.11 C 867.54 69.23 864.09 69.43 860.69 70.02 C 860.91 69.44 861.35 68.27 861.57 67.69 C 862.16 67.31 863.34 66.55 863.92 66.17 C 858.86 63.90 853.42 65.93 848.15 65.53 C 844.60 65.28 841.04 65.23 837.50 65.49 C 831.04 64.62 824.53 64.15 818.01 64.36 C 798.68 64.62 779.39 63.37 760.07 63.15 C 752.45 62.57 744.82 62.57 737.19 62.74 C 729.68 62.47 722.13 63.03 714.67 61.87 C 705.48 61.44 696.26 61.72 687.13 62.84 C 685.69 61.54 683.93 60.82 681.99 61.21 C 667.37 62.63 652.62 60.78 638.02 62.50 C 628.16 63.35 618.29 61.87 608.42 62.03 C 608.49 61.47 608.64 60.36 608.71 59.80 C 609.47 59.24 610.25 58.69 611.03 58.14 C 607.78 57.94 604.55 57.47 601.38 56.75 Z" />
</g>
<g id="#bbab9cff">
<path fill="#bbab9c" opacity="1.00" d=" M 727.71 57.14 C 735.80 56.35 743.92 56.18 752.04 56.98 C 768.71 56.68 785.37 57.78 802.04 57.49 C 807.28 57.21 812.40 58.57 817.62 58.67 C 823.62 60.24 829.85 59.10 835.93 59.98 C 842.37 61.06 848.61 58.30 855.03 58.49 C 860.69 58.79 866.03 55.61 871.71 56.74 L 870.68 57.82 C 865.21 59.67 859.83 62.36 853.95 62.41 C 849.95 62.46 845.94 62.50 841.99 63.15 C 836.64 64.10 831.35 62.27 826.00 62.45 C 819.30 62.82 812.71 60.87 806.01 61.49 C 800.29 61.96 794.72 60.11 789.02 60.41 C 783.98 60.55 779.05 59.14 774.01 59.42 C 766.99 59.72 760.05 58.13 753.03 58.45 C 744.54 58.89 736.19 56.84 727.71 57.14 Z" />
</g>
<g id="#7a5638ff">
<path fill="#7a5638" opacity="1.00" d=" M 268.08 57.84 C 280.17 57.85 292.26 57.85 304.35 57.78 C 306.88 58.12 309.43 58.39 311.97 58.69 C 309.39 58.84 306.81 59.09 304.23 59.26 C 296.49 59.36 288.75 59.10 281.01 59.16 C 276.68 59.12 272.05 60.14 268.08 57.84 Z" />
</g>
<g id="#8d694cff">
<path fill="#8d694c" opacity="1.00" d=" M 590.96 61.12 C 596.86 60.53 602.77 60.00 608.71 59.80 C 608.64 60.36 608.49 61.47 608.42 62.03 C 618.29 61.87 628.16 63.35 638.02 62.50 C 652.62 60.78 667.37 62.63 681.99 61.21 C 683.93 60.82 685.69 61.54 687.13 62.84 C 682.66 65.98 677.02 64.38 671.97 64.95 C 657.67 65.98 643.29 64.50 629.02 65.98 C 620.03 66.78 610.97 66.03 601.99 67.02 C 594.69 67.80 587.34 67.28 580.04 67.88 C 570.91 68.54 561.74 68.34 552.62 68.97 C 544.62 68.39 536.61 68.99 528.61 68.60 C 541.27 65.68 554.34 67.86 567.14 66.34 C 575.20 66.00 583.26 65.10 591.16 63.47 C 585.82 63.05 580.46 63.41 575.12 63.03 C 580.29 61.64 585.67 61.71 590.96 61.12 Z" />
</g>
<g id="#6f4a2eff">
<path fill="#6f4a2e" opacity="1.00" d=" M 687.13 62.84 C 696.26 61.72 705.48 61.44 714.67 61.87 C 722.13 63.03 729.68 62.47 737.19 62.74 C 728.99 63.78 720.48 62.03 712.50 64.54 C 718.99 65.76 725.49 64.16 732.00 63.98 C 743.34 63.60 754.70 63.66 766.04 64.19 C 769.53 64.33 772.84 65.51 776.09 66.71 C 771.69 67.41 767.25 67.57 762.82 67.52 C 759.44 67.46 756.45 69.36 753.13 69.61 C 744.11 70.04 735.07 69.43 726.06 70.16 C 721.65 70.46 717.21 68.73 712.86 69.91 C 707.90 71.33 702.70 70.97 697.63 71.53 C 693.04 72.21 688.59 69.66 684.03 70.82 C 676.78 72.62 669.22 72.53 661.81 72.41 C 656.54 71.37 651.26 72.29 646.00 72.70 C 637.32 72.09 628.58 71.78 619.91 72.68 C 615.60 73.08 611.38 71.61 607.07 72.03 C 601.06 72.64 595.00 72.06 589.01 72.86 C 581.98 73.82 575.00 71.79 567.97 72.25 C 554.25 73.39 540.46 72.86 526.71 72.77 C 527.31 71.98 527.91 71.19 528.51 70.40 C 536.53 69.70 544.76 71.25 552.62 68.97 C 561.74 68.34 570.91 68.54 580.04 67.88 C 587.34 67.28 594.69 67.80 601.99 67.02 C 610.97 66.03 620.03 66.78 629.02 65.98 C 643.29 64.50 657.67 65.98 671.97 64.95 C 677.02 64.38 682.66 65.98 687.13 62.84 Z" />
</g>
<g id="#9c6c48ff">
<path fill="#9c6c48" opacity="1.00" d=" M 484.67 62.43 C 487.11 62.32 489.54 62.13 491.98 62.13 C 519.68 63.27 547.42 62.22 575.12 63.03 C 580.46 63.41 585.82 63.05 591.16 63.47 C 583.26 65.10 575.20 66.00 567.14 66.34 C 554.34 67.86 541.27 65.68 528.61 68.60 C 514.79 70.35 500.86 70.68 486.94 70.30 C 473.29 70.67 459.60 69.74 445.99 70.98 C 442.21 71.10 438.45 70.29 434.68 70.80 C 427.13 71.76 419.50 71.36 411.92 71.47 C 401.53 70.74 391.29 73.21 380.94 73.26 C 372.59 72.26 364.30 74.26 355.96 74.40 C 341.56 74.44 327.15 74.40 312.75 74.62 C 302.75 73.82 292.96 76.96 282.95 76.43 C 279.06 76.09 275.11 76.58 271.78 78.76 C 267.91 78.57 264.04 78.62 260.20 79.14 C 250.82 80.31 241.38 79.10 231.98 79.27 C 224.93 79.52 217.87 77.30 210.88 79.13 C 206.91 80.22 202.93 78.35 198.94 79.06 C 188.13 80.68 177.18 81.02 166.27 80.93 C 162.66 81.23 158.99 81.26 155.59 79.86 C 159.02 78.81 162.67 79.56 166.14 78.68 C 165.04 77.38 163.94 76.09 162.84 74.80 C 167.58 72.79 171.48 77.67 176.13 78.15 C 175.50 76.64 174.86 75.15 174.22 73.65 C 174.36 73.41 174.63 72.93 174.77 72.69 C 177.44 73.46 180.19 73.89 182.96 74.15 C 183.58 74.98 184.20 75.82 184.82 76.66 C 194.10 74.51 203.47 67.77 213.22 71.45 C 211.46 71.92 209.71 72.37 207.96 72.85 C 212.36 73.27 216.59 71.22 220.98 71.96 C 225.96 72.80 230.98 71.85 235.98 71.83 C 240.77 71.82 245.25 69.66 250.05 69.78 C 254.06 69.79 257.99 70.68 261.99 70.82 C 266.47 71.04 270.48 68.02 275.01 68.74 C 283.66 69.58 292.34 68.51 301.01 69.05 C 306.13 69.39 311.23 68.35 316.35 68.68 C 327.22 69.46 338.13 68.95 349.01 69.17 C 356.99 69.91 365.00 69.55 373.00 69.63 C 378.99 69.74 384.93 67.95 390.92 69.07 C 397.93 70.27 405.00 69.34 412.02 68.76 C 426.77 68.39 441.54 68.92 456.29 68.42 C 466.87 68.36 477.49 69.15 488.06 68.19 C 491.71 67.89 495.37 68.04 499.03 68.12 C 505.03 68.28 511.01 67.43 517.01 67.64 C 520.72 67.80 524.43 67.50 528.04 66.57 C 520.49 65.73 512.97 64.72 505.38 64.61 C 498.57 63.05 491.56 63.38 484.67 62.43 Z" />
</g>
<g id="#7f543cff">
<path fill="#7f543c" opacity="1.00" d=" M 712.50 64.54 C 720.48 62.03 728.99 63.78 737.19 62.74 C 744.82 62.57 752.45 62.57 760.07 63.15 C 779.39 63.37 798.68 64.62 818.01 64.36 C 824.53 64.15 831.04 64.62 837.50 65.49 C 840.03 65.89 842.56 66.31 845.10 66.75 C 843.03 67.45 840.96 68.14 838.81 68.45 C 830.70 69.42 822.64 70.78 814.62 72.26 C 811.66 72.53 808.75 71.52 805.78 71.77 C 797.30 71.95 788.66 69.97 780.29 71.82 C 772.08 68.74 763.57 74.21 755.26 72.38 C 754.86 73.34 754.48 74.31 754.10 75.28 C 759.11 76.26 764.08 74.50 769.12 74.81 C 768.98 76.10 768.94 77.39 769.00 78.68 C 765.92 78.94 762.58 79.23 760.49 81.81 C 760.20 81.20 759.61 79.97 759.32 79.36 C 757.02 79.26 754.73 79.22 752.45 79.12 C 753.01 79.91 753.58 80.71 754.15 81.51 C 750.61 82.27 746.92 82.69 743.47 81.34 C 739.31 79.77 735.07 82.18 730.83 81.66 C 724.48 81.04 718.08 79.37 711.68 80.65 C 705.86 81.97 699.86 81.71 693.96 82.17 C 686.96 81.79 679.97 80.74 672.94 80.91 C 657.39 82.99 641.68 81.54 626.06 81.74 C 619.22 80.70 612.41 82.66 605.57 81.74 C 596.37 82.10 587.16 82.28 577.97 83.00 C 554.62 83.37 531.26 82.91 507.94 84.09 C 496.35 84.57 484.75 84.11 473.16 84.62 C 465.76 83.65 458.41 85.35 451.00 84.99 C 445.02 84.67 439.12 86.27 433.15 85.76 C 430.13 85.55 427.10 85.67 424.09 85.97 C 417.70 86.60 411.23 85.58 404.89 86.82 C 399.98 87.76 395.02 88.57 390.01 88.50 C 386.30 88.34 382.67 89.81 378.97 89.16 C 373.84 88.25 368.59 88.81 363.47 87.79 C 369.84 86.13 376.49 86.62 382.97 85.73 C 389.31 84.77 395.75 86.34 402.07 85.12 C 407.99 84.02 414.02 83.64 420.03 83.84 C 426.72 84.13 433.32 82.27 440.01 83.01 C 451.35 84.11 462.60 80.85 473.95 82.03 C 480.63 81.30 487.30 82.86 493.97 81.85 C 498.64 81.24 503.35 81.34 508.05 81.64 C 512.72 81.98 517.29 79.69 521.94 80.90 C 526.48 81.97 531.11 80.59 535.69 81.25 C 539.45 81.80 543.31 81.83 547.01 80.82 C 553.09 79.24 559.40 80.01 565.60 79.68 C 565.98 78.60 566.34 77.51 566.66 76.40 C 559.85 74.52 552.92 75.80 546.03 75.90 C 541.52 75.24 537.45 77.72 533.05 78.10 C 529.52 78.54 525.96 78.19 522.49 77.53 C 523.19 76.77 523.90 76.02 524.62 75.28 C 521.72 75.31 518.81 75.09 516.10 74.02 C 519.31 71.99 523.14 72.72 526.71 72.77 C 540.46 72.86 554.25 73.39 567.97 72.25 C 575.00 71.79 581.98 73.82 589.01 72.86 C 595.00 72.06 601.06 72.64 607.07 72.03 C 611.38 71.61 615.60 73.08 619.91 72.68 C 628.58 71.78 637.32 72.09 646.00 72.70 C 651.26 72.29 656.54 71.37 661.81 72.41 C 669.22 72.53 676.78 72.62 684.03 70.82 C 688.59 69.66 693.04 72.21 697.63 71.53 C 702.70 70.97 707.90 71.33 712.86 69.91 C 717.21 68.73 721.65 70.46 726.06 70.16 C 735.07 69.43 744.11 70.04 753.13 69.61 C 756.45 69.36 759.44 67.46 762.82 67.52 C 767.25 67.57 771.69 67.41 776.09 66.71 C 772.84 65.51 769.53 64.33 766.04 64.19 C 754.70 63.66 743.34 63.60 732.00 63.98 C 725.49 64.16 718.99 65.76 712.50 64.54 Z" />
</g>
<g id="#90644cff">
<path fill="#90644c" opacity="1.00" d=" M 837.50 65.49 C 841.04 65.23 844.60 65.28 848.15 65.53 C 853.42 65.93 858.86 63.90 863.92 66.17 C 863.34 66.55 862.16 67.31 861.57 67.69 C 861.35 68.27 860.91 69.44 860.69 70.02 C 855.16 71.25 849.58 69.38 844.02 70.21 C 839.90 70.92 834.18 69.37 831.96 74.00 C 833.11 74.36 834.27 74.67 835.46 74.95 C 836.46 76.17 837.36 77.50 838.65 78.45 C 840.25 78.38 841.50 77.07 842.91 76.39 C 843.33 76.60 844.18 77.03 844.61 77.25 C 844.61 78.72 844.63 80.18 844.66 81.65 C 840.67 83.10 836.83 85.68 832.43 85.34 C 829.49 85.19 826.55 84.91 823.62 85.12 C 819.59 85.43 815.73 83.71 811.69 84.10 C 809.87 84.08 808.06 84.10 806.25 84.10 C 805.26 85.06 804.39 86.41 802.87 86.48 C 797.52 87.30 792.31 85.16 786.96 85.45 C 770.74 85.53 754.54 87.09 738.31 86.21 C 731.54 86.67 724.78 86.33 718.04 85.64 C 707.05 86.40 695.95 87.27 684.96 85.95 C 679.13 85.00 673.28 86.04 667.45 86.11 C 660.47 85.31 653.51 86.62 646.52 86.42 C 628.81 86.35 611.06 85.72 593.41 87.49 C 584.28 87.63 575.14 87.60 566.01 87.52 C 560.97 87.42 555.98 88.70 550.95 88.12 C 548.31 87.86 545.65 87.62 543.00 87.84 C 531.36 88.90 519.65 88.39 507.98 88.40 C 500.67 89.08 493.29 87.84 486.01 89.06 C 477.97 90.29 469.69 89.05 461.76 91.18 C 470.38 93.11 479.27 92.42 488.03 92.90 C 496.38 92.16 504.67 93.81 513.03 93.40 C 524.03 93.73 535.01 94.86 546.04 94.44 C 556.41 93.89 566.66 96.02 577.02 95.67 C 583.69 95.46 590.31 96.47 596.96 96.72 C 602.84 96.94 608.63 98.30 614.52 98.21 C 623.28 97.33 632.14 97.28 640.91 98.04 C 648.90 99.17 656.97 98.37 665.00 98.65 C 670.26 98.91 675.47 97.14 680.72 98.08 C 685.88 98.94 690.96 97.09 696.13 97.27 C 709.08 97.84 722.05 97.52 735.01 97.62 C 740.69 97.06 746.32 95.76 752.08 96.20 C 759.41 96.79 766.69 95.36 774.02 95.55 C 779.42 95.58 784.82 95.22 790.23 95.29 C 796.23 95.51 801.99 93.23 808.02 93.58 C 814.56 93.84 821.09 93.28 827.63 93.21 C 832.46 93.63 837.57 92.96 841.98 95.41 C 845.43 93.64 849.34 92.56 853.17 93.74 C 855.83 94.65 858.41 93.54 860.47 91.86 C 863.69 93.96 867.52 93.86 870.97 92.39 C 870.90 95.56 870.97 98.73 871.02 101.90 C 865.02 101.42 859.03 100.52 853.00 100.71 C 846.69 100.88 840.34 100.91 834.12 99.67 C 836.78 98.66 839.53 97.95 842.33 97.43 C 837.28 96.54 832.15 96.54 827.07 95.95 C 821.62 95.28 816.18 96.52 810.73 96.29 C 802.59 95.77 794.75 98.48 786.73 99.29 C 786.13 99.17 784.95 98.95 784.36 98.83 C 774.00 97.19 763.42 98.41 752.99 98.78 C 745.67 98.77 738.35 99.49 731.03 98.94 C 726.31 98.49 721.66 99.56 716.97 99.70 C 706.34 98.87 695.65 99.21 685.02 99.86 C 670.00 99.71 654.98 100.25 639.97 99.93 C 633.82 99.72 627.83 101.88 621.69 101.23 C 615.12 100.56 608.48 101.06 601.94 100.13 C 580.03 97.66 557.96 99.03 535.98 98.78 C 519.34 97.15 502.58 97.50 485.92 96.12 C 478.02 96.16 470.11 95.06 462.25 96.49 C 459.30 92.47 455.15 97.69 451.42 96.29 C 446.12 94.68 440.58 94.41 435.07 94.72 C 427.70 95.13 420.39 93.07 413.04 94.13 C 406.72 94.97 400.48 93.09 394.17 93.40 C 388.59 93.60 383.02 93.72 377.44 93.89 C 368.35 93.30 359.18 93.74 350.13 92.45 C 346.53 91.90 342.91 91.53 339.26 91.54 C 339.26 91.27 339.26 90.75 339.26 90.48 C 347.28 89.07 355.56 89.88 363.47 87.79 C 368.59 88.81 373.84 88.25 378.97 89.16 C 382.67 89.81 386.30 88.34 390.01 88.50 C 395.02 88.57 399.98 87.76 404.89 86.82 C 411.23 85.58 417.70 86.60 424.09 85.97 C 427.10 85.67 430.13 85.55 433.15 85.76 C 439.12 86.27 445.02 84.67 451.00 84.99 C 458.41 85.35 465.76 83.65 473.16 84.62 C 484.75 84.11 496.35 84.57 507.94 84.09 C 531.26 82.91 554.62 83.37 577.97 83.00 C 587.16 82.28 596.37 82.10 605.57 81.74 C 612.41 82.66 619.22 80.70 626.06 81.74 C 641.68 81.54 657.39 82.99 672.94 80.91 C 679.97 80.74 686.96 81.79 693.96 82.17 C 699.86 81.71 705.86 81.97 711.68 80.65 C 718.08 79.37 724.48 81.04 730.83 81.66 C 735.07 82.18 739.31 79.77 743.47 81.34 C 746.92 82.69 750.61 82.27 754.15 81.51 C 753.58 80.71 753.01 79.91 752.45 79.12 C 754.73 79.22 757.02 79.26 759.32 79.36 C 759.61 79.97 760.20 81.20 760.49 81.81 C 762.58 79.23 765.92 78.94 769.00 78.68 C 768.94 77.39 768.98 76.10 769.12 74.81 C 764.08 74.50 759.11 76.26 754.10 75.28 C 754.48 74.31 754.86 73.34 755.26 72.38 C 763.57 74.21 772.08 68.74 780.29 71.82 C 788.66 69.97 797.30 71.95 805.78 71.77 C 808.75 71.52 811.66 72.53 814.62 72.26 C 822.64 70.78 830.70 69.42 838.81 68.45 C 840.96 68.14 843.03 67.45 845.10 66.75 C 842.56 66.31 840.03 65.89 837.50 65.49 M 815.73 74.77 C 818.06 74.82 820.70 75.85 822.88 74.76 C 824.47 74.17 823.24 72.01 821.95 72.13 C 819.72 72.27 816.76 72.41 815.73 74.77 Z" />
</g>
<g id="#794f33ff">
<path fill="#794f33" opacity="1.00" d=" M 486.94 70.30 C 500.86 70.68 514.79 70.35 528.61 68.60 C 536.61 68.99 544.62 68.39 552.62 68.97 C 544.76 71.25 536.53 69.70 528.51 70.40 C 527.91 71.19 527.31 71.98 526.71 72.77 C 523.14 72.72 519.31 71.99 516.10 74.02 C 518.81 75.09 521.72 75.31 524.62 75.28 C 523.90 76.02 523.19 76.77 522.49 77.53 C 525.96 78.19 529.52 78.54 533.05 78.10 C 537.45 77.72 541.52 75.24 546.03 75.90 C 552.92 75.80 559.85 74.52 566.66 76.40 C 566.34 77.51 565.98 78.60 565.60 79.68 C 559.40 80.01 553.09 79.24 547.01 80.82 C 543.31 81.83 539.45 81.80 535.69 81.25 C 531.11 80.59 526.48 81.97 521.94 80.90 C 517.29 79.69 512.72 81.98 508.05 81.64 C 503.35 81.34 498.64 81.24 493.97 81.85 C 487.30 82.86 480.63 81.30 473.95 82.03 C 462.60 80.85 451.35 84.11 440.01 83.01 C 433.32 82.27 426.72 84.13 420.03 83.84 C 414.02 83.64 407.99 84.02 402.07 85.12 C 395.75 86.34 389.31 84.77 382.97 85.73 C 376.49 86.62 369.84 86.13 363.47 87.79 C 355.56 89.88 347.28 89.07 339.26 90.48 C 339.26 90.75 339.26 91.27 339.26 91.54 C 342.91 91.53 346.53 91.90 350.13 92.45 C 359.18 93.74 368.35 93.30 377.44 93.89 C 379.49 94.47 381.55 95.04 383.63 95.51 C 380.53 97.85 376.99 99.68 373.08 100.11 C 368.54 101.09 364.12 98.78 359.58 99.31 C 354.37 99.84 349.16 100.55 344.14 102.08 C 341.84 100.14 338.72 100.69 335.95 100.66 C 326.63 100.96 317.29 100.52 307.96 100.99 C 292.32 102.67 276.55 101.10 260.88 102.23 C 254.95 100.87 248.93 101.28 242.95 102.05 C 231.40 102.32 219.84 102.20 208.28 102.39 C 206.44 102.07 204.61 101.67 202.79 101.26 C 210.52 100.73 218.29 101.27 225.98 100.24 C 232.36 99.32 238.74 101.38 245.11 100.35 C 253.04 99.07 261.06 100.35 269.01 99.68 C 283.10 98.37 297.27 99.36 311.37 98.33 C 312.00 97.53 312.63 96.72 313.22 95.89 C 313.37 96.39 313.66 97.37 313.81 97.87 C 320.57 96.57 327.58 98.50 334.22 96.31 C 329.93 94.90 325.41 95.88 321.01 95.60 C 314.91 95.14 308.82 94.48 302.73 93.97 C 294.48 94.68 286.13 94.76 277.97 93.20 C 269.65 93.60 261.34 92.93 253.02 92.76 C 246.76 92.26 240.92 89.69 234.82 88.37 C 242.65 85.19 251.27 88.34 259.29 86.15 C 264.74 84.42 270.44 86.06 276.00 85.31 C 280.10 84.84 284.22 84.03 288.35 84.62 C 294.26 85.43 300.11 83.68 306.03 84.12 C 311.97 84.44 318.10 83.91 323.36 80.88 C 321.81 80.02 320.37 78.50 318.46 78.73 C 307.86 79.87 297.19 79.30 286.55 79.27 C 281.66 78.36 276.71 78.90 271.78 78.76 C 275.11 76.58 279.06 76.09 282.95 76.43 C 292.96 76.96 302.75 73.82 312.75 74.62 C 327.15 74.40 341.56 74.44 355.96 74.40 C 364.30 74.26 372.59 72.26 380.94 73.26 C 391.29 73.21 401.53 70.74 411.92 71.47 C 419.50 71.36 427.13 71.76 434.68 70.80 C 438.45 70.29 442.21 71.10 445.99 70.98 C 459.60 69.74 473.29 70.67 486.94 70.30 Z" />
</g>
<g id="#ae846bff">
<path fill="#ae846b" opacity="1.00" d=" M 844.02 70.21 C 849.58 69.38 855.16 71.25 860.69 70.02 C 864.09 69.43 867.54 69.23 871.00 69.11 C 870.99 69.63 870.98 70.67 870.97 71.19 C 865.80 71.80 860.25 71.10 855.44 73.45 C 860.57 74.40 865.81 74.42 871.01 74.53 C 871.00 75.46 870.99 77.30 870.99 78.22 C 866.14 76.28 860.95 75.54 855.76 75.56 C 854.75 74.81 853.77 74.06 852.72 73.40 C 852.59 74.79 852.54 76.18 852.50 77.58 C 847.81 73.11 841.23 74.86 835.46 74.95 C 834.27 74.67 833.11 74.36 831.96 74.00 C 834.18 69.37 839.90 70.92 844.02 70.21 Z" />
</g>
<g id="#d0a189ff">
<path fill="#d0a189" opacity="1.00" d=" M 855.44 73.45 C 860.25 71.10 865.80 71.80 870.97 71.19 C 870.98 72.31 871.00 73.42 871.01 74.53 C 865.81 74.42 860.57 74.40 855.44 73.45 Z" />
</g>
<g id="#a47b5fff">
<path fill="#a47b5f" opacity="1.00" d=" M 815.73 74.77 C 816.76 72.41 819.72 72.27 821.95 72.13 C 823.24 72.01 824.47 74.17 822.88 74.76 C 820.70 75.85 818.06 74.82 815.73 74.77 Z" />
</g>
<g id="#9d6f56ff">
<path fill="#9d6f56" opacity="1.00" d=" M 852.72 73.40 C 853.77 74.06 854.75 74.81 855.76 75.56 C 860.95 75.54 866.14 76.28 870.99 78.22 C 870.95 81.15 870.95 84.09 870.95 87.02 C 867.97 86.75 864.99 86.50 862.01 86.25 C 861.15 87.14 860.29 88.03 859.45 88.92 C 858.60 87.91 857.69 86.93 856.78 85.98 C 852.46 87.07 848.15 86.01 843.94 85.05 C 841.49 84.20 840.02 86.79 838.01 87.65 C 834.15 88.30 829.90 86.29 826.38 88.68 C 825.71 88.61 825.04 88.56 824.38 88.51 C 820.13 87.10 815.99 85.35 811.69 84.10 C 815.73 83.71 819.59 85.43 823.62 85.12 C 826.55 84.91 829.49 85.19 832.43 85.34 C 836.83 85.68 840.67 83.10 844.66 81.65 C 844.63 80.18 844.61 78.72 844.61 77.25 C 844.18 77.03 843.33 76.60 842.91 76.39 C 841.50 77.07 840.25 78.38 838.65 78.45 C 837.36 77.50 836.46 76.17 835.46 74.95 C 841.23 74.86 847.81 73.11 852.50 77.58 C 852.54 76.18 852.59 74.79 852.72 73.40 Z" />
</g>
<g id="#8a5c39ff">
<path fill="#8a5c39" opacity="1.00" d=" M 198.94 79.06 C 202.93 78.35 206.91 80.22 210.88 79.13 C 217.87 77.30 224.93 79.52 231.98 79.27 C 241.38 79.10 250.82 80.31 260.20 79.14 C 264.04 78.62 267.91 78.57 271.78 78.76 C 276.71 78.90 281.66 78.36 286.55 79.27 C 270.84 82.32 254.73 81.21 238.85 82.47 C 230.58 83.02 222.28 82.33 214.02 83.14 C 203.41 84.17 192.71 83.11 182.10 84.26 C 175.43 85.00 168.70 84.39 162.02 84.98 C 152.70 86.06 143.28 85.19 133.97 86.46 C 124.83 86.45 115.75 87.58 106.62 87.49 C 97.09 87.94 87.55 90.48 78.02 88.79 C 69.63 88.97 61.37 91.01 53.02 91.67 C 47.08 90.86 41.34 92.96 35.42 92.98 C 35.03 94.49 34.67 96.02 34.34 97.55 C 32.81 95.63 31.11 93.83 29.09 92.42 C 29.02 90.10 29.01 87.79 29.00 85.47 C 33.35 86.32 37.80 86.34 42.08 85.11 C 47.89 83.49 53.75 85.86 59.59 85.26 C 74.52 82.04 89.91 85.10 104.97 82.96 C 121.81 81.52 138.85 82.29 155.59 79.86 C 158.99 81.26 162.66 81.23 166.27 80.93 C 177.18 81.02 188.13 80.68 198.94 79.06 Z" />
</g>
<g id="#6b4427ff">
<path fill="#6b4427" opacity="1.00" d=" M 318.46 78.73 C 320.37 78.50 321.81 80.02 323.36 80.88 C 318.10 83.91 311.97 84.44 306.03 84.12 C 300.11 83.68 294.26 85.43 288.35 84.62 C 284.22 84.03 280.10 84.84 276.00 85.31 C 270.44 86.06 264.74 84.42 259.29 86.15 C 251.27 88.34 242.65 85.19 234.82 88.37 C 240.92 89.69 246.76 92.26 253.02 92.76 C 261.34 92.93 269.65 93.60 277.97 93.20 C 286.13 94.76 294.48 94.68 302.73 93.97 C 308.82 94.48 314.91 95.14 321.01 95.60 C 325.41 95.88 329.93 94.90 334.22 96.31 C 327.58 98.50 320.57 96.57 313.81 97.87 C 313.66 97.37 313.37 96.39 313.22 95.89 C 312.63 96.72 312.00 97.53 311.37 98.33 C 297.27 99.36 283.10 98.37 269.01 99.68 C 261.06 100.35 253.04 99.07 245.11 100.35 C 238.74 101.38 232.36 99.32 225.98 100.24 C 218.29 101.27 210.52 100.73 202.79 101.26 C 204.61 101.67 206.44 102.07 208.28 102.39 C 185.20 102.71 162.11 102.71 139.03 102.61 C 129.68 103.44 120.24 104.13 110.87 102.99 C 104.91 102.18 98.86 102.96 92.92 101.99 C 85.77 100.42 78.99 104.45 71.80 103.71 C 71.70 103.18 71.49 102.14 71.39 101.61 C 69.20 101.74 67.02 101.91 64.85 102.15 C 65.35 102.60 66.34 103.51 66.84 103.97 C 62.74 103.10 58.45 102.33 54.33 103.54 C 49.00 105.21 43.64 102.08 38.27 103.22 C 35.12 103.85 32.10 104.99 29.03 105.93 C 29.08 101.43 28.96 96.92 29.09 92.42 C 31.11 93.83 32.81 95.63 34.34 97.55 C 34.67 96.02 35.03 94.49 35.42 92.98 C 41.34 92.96 47.08 90.86 53.02 91.67 C 61.37 91.01 69.63 88.97 78.02 88.79 C 87.55 90.48 97.09 87.94 106.62 87.49 C 115.75 87.58 124.83 86.45 133.97 86.46 C 143.28 85.19 152.70 86.06 162.02 84.98 C 168.70 84.39 175.43 85.00 182.10 84.26 C 192.71 83.11 203.41 84.17 214.02 83.14 C 222.28 82.33 230.58 83.02 238.85 82.47 C 254.73 81.21 270.84 82.32 286.55 79.27 C 297.19 79.30 307.86 79.87 318.46 78.73 M 113.04 94.93 C 107.19 94.65 101.46 95.97 95.64 96.23 C 97.05 97.44 98.71 98.44 100.62 98.53 C 107.74 98.81 114.86 99.16 121.98 99.55 C 128.33 99.73 134.65 98.77 140.99 99.09 C 163.67 99.26 186.35 99.10 209.03 99.00 C 215.01 98.68 220.99 98.12 226.97 97.64 C 224.98 96.74 223.03 95.64 220.85 95.27 C 218.00 95.12 215.12 96.34 212.32 95.39 C 210.25 94.76 208.11 94.30 205.95 94.67 C 197.00 95.55 188.03 95.09 179.08 94.87 C 170.13 93.27 161.04 94.18 152.02 94.03 C 147.32 93.97 142.69 95.35 137.99 94.72 C 134.27 94.42 130.20 93.20 126.86 95.52 C 122.48 93.25 117.66 95.11 113.04 94.93 Z" />
</g>
<g id="#a98069ff">
<path fill="#a98069" opacity="1.00" d=" M 802.87 86.48 C 804.39 86.41 805.26 85.06 806.25 84.10 C 808.06 84.10 809.87 84.08 811.69 84.10 C 815.99 85.35 820.13 87.10 824.38 88.51 C 811.16 88.58 797.94 88.60 784.73 88.97 C 785.19 90.12 785.63 91.31 786.24 92.41 C 788.15 92.84 790.11 92.37 792.03 92.13 C 803.57 90.37 815.29 90.98 826.91 90.40 C 827.09 91.10 827.45 92.51 827.63 93.21 C 821.09 93.28 814.56 93.84 808.02 93.58 C 801.99 93.23 796.23 95.51 790.23 95.29 C 784.82 95.22 779.42 95.58 774.02 95.55 C 766.69 95.36 759.41 96.79 752.08 96.20 C 746.32 95.76 740.69 97.06 735.01 97.62 C 722.05 97.52 709.08 97.84 696.13 97.27 C 690.96 97.09 685.88 98.94 680.72 98.08 C 675.47 97.14 670.26 98.91 665.00 98.65 C 656.97 98.37 648.90 99.17 640.91 98.04 C 632.14 97.28 623.28 97.33 614.52 98.21 C 608.63 98.30 602.84 96.94 596.96 96.72 C 590.31 96.47 583.69 95.46 577.02 95.67 C 566.66 96.02 556.41 93.89 546.04 94.44 C 535.01 94.86 524.03 93.73 513.03 93.40 C 504.67 93.81 496.38 92.16 488.03 92.90 C 479.27 92.42 470.38 93.11 461.76 91.18 C 469.69 89.05 477.97 90.29 486.01 89.06 C 493.29 87.84 500.67 89.08 507.98 88.40 C 519.65 88.39 531.36 88.90 543.00 87.84 C 545.65 87.62 548.31 87.86 550.95 88.12 C 555.98 88.70 560.97 87.42 566.01 87.52 C 575.14 87.60 584.28 87.63 593.41 87.49 C 611.06 85.72 628.81 86.35 646.52 86.42 C 653.51 86.62 660.47 85.31 667.45 86.11 C 673.28 86.04 679.13 85.00 684.96 85.95 C 695.95 87.27 707.05 86.40 718.04 85.64 C 724.78 86.33 731.54 86.67 738.31 86.21 C 754.54 87.09 770.74 85.53 786.96 85.45 C 792.31 85.16 797.52 87.30 802.87 86.48 M 706.03 88.73 C 686.37 88.42 666.70 88.98 647.05 88.68 C 629.73 90.07 612.28 88.65 594.98 90.37 C 589.27 91.12 583.56 88.96 577.89 90.46 C 583.04 93.64 589.34 91.73 595.00 92.86 C 603.63 94.31 612.37 92.79 621.01 93.97 C 624.66 93.22 628.27 92.12 632.03 93.21 C 640.72 92.91 649.30 95.11 658.00 94.28 C 660.42 94.10 662.83 93.37 665.27 93.76 C 675.36 95.28 685.53 93.25 695.67 93.58 C 703.15 93.85 710.66 93.72 718.09 92.69 C 724.63 94.25 731.39 93.15 738.05 93.53 C 740.96 93.80 743.57 90.95 746.44 92.39 C 747.27 92.10 748.11 91.80 748.95 91.49 C 752.53 95.29 757.61 91.98 762.00 92.38 C 767.63 92.85 773.32 92.26 778.92 93.20 C 780.45 92.21 783.83 90.97 783.54 89.13 C 776.43 87.63 768.94 89.32 761.70 88.40 C 743.15 88.89 724.58 88.14 706.03 88.73 Z" />
</g>
<g id="#b78a73ff">
<path fill="#b78a73" opacity="1.00" d=" M 838.01 87.65 C 840.02 86.79 841.49 84.20 843.94 85.05 C 848.15 86.01 852.46 87.07 856.78 85.98 C 857.69 86.93 858.60 87.91 859.45 88.92 C 860.29 88.03 861.15 87.14 862.01 86.25 C 864.99 86.50 867.97 86.75 870.95 87.02 C 870.99 88.81 870.90 90.60 870.97 92.39 C 867.52 93.86 863.69 93.96 860.47 91.86 C 858.41 93.54 855.83 94.65 853.17 93.74 C 849.34 92.56 845.43 93.64 841.98 95.41 C 837.57 92.96 832.46 93.63 827.63 93.21 C 827.45 92.51 827.09 91.10 826.91 90.40 C 828.59 90.16 830.27 89.82 831.95 89.49 C 830.09 89.20 828.23 88.91 826.38 88.68 C 829.90 86.29 834.15 88.30 838.01 87.65 Z" />
</g>
<g id="#c69d87ff">
<path fill="#c69d87" opacity="1.00" d=" M 706.03 88.73 C 724.58 88.14 743.15 88.89 761.70 88.40 C 768.94 89.32 776.43 87.63 783.54 89.13 C 783.83 90.97 780.45 92.21 778.92 93.20 C 773.32 92.26 767.63 92.85 762.00 92.38 C 757.61 91.98 752.53 95.29 748.95 91.49 C 748.11 91.80 747.27 92.10 746.44 92.39 C 743.57 90.95 740.96 93.80 738.05 93.53 C 731.39 93.15 724.63 94.25 718.09 92.69 C 710.66 93.72 703.15 93.85 695.67 93.58 C 685.53 93.25 675.36 95.28 665.27 93.76 C 662.83 93.37 660.42 94.10 658.00 94.28 C 649.30 95.11 640.72 92.91 632.03 93.21 C 628.27 92.12 624.66 93.22 621.01 93.97 C 612.37 92.79 603.63 94.31 595.00 92.86 C 589.34 91.73 583.04 93.64 577.89 90.46 C 583.56 88.96 589.27 91.12 594.98 90.37 C 612.28 88.65 629.73 90.07 647.05 88.68 C 666.70 88.98 686.37 88.42 706.03 88.73 Z" />
</g>
<g id="#c19c82ff">
<path fill="#c19c82" opacity="1.00" d=" M 784.73 88.97 C 797.94 88.60 811.16 88.58 824.38 88.51 C 825.04 88.56 825.71 88.61 826.38 88.68 C 828.23 88.91 830.09 89.20 831.95 89.49 C 830.27 89.82 828.59 90.16 826.91 90.40 C 815.29 90.98 803.57 90.37 792.03 92.13 C 790.11 92.37 788.15 92.84 786.24 92.41 C 785.63 91.31 785.19 90.12 784.73 88.97 Z" />
</g>
<g id="#825840ff">
<path fill="#825840" opacity="1.00" d=" M 377.44 93.89 C 383.02 93.72 388.59 93.60 394.17 93.40 C 400.48 93.09 406.72 94.97 413.04 94.13 C 420.39 93.07 427.70 95.13 435.07 94.72 C 440.58 94.41 446.12 94.68 451.42 96.29 C 455.15 97.69 459.30 92.47 462.25 96.49 C 470.11 95.06 478.02 96.16 485.92 96.12 C 502.58 97.50 519.34 97.15 535.98 98.78 C 557.96 99.03 580.03 97.66 601.94 100.13 C 608.48 101.06 615.12 100.56 621.69 101.23 C 627.83 101.88 633.82 99.72 639.97 99.93 C 654.98 100.25 670.00 99.71 685.02 99.86 C 695.65 99.21 706.34 98.87 716.97 99.70 C 721.66 99.56 726.31 98.49 731.03 98.94 C 738.35 99.49 745.67 98.77 752.99 98.78 C 763.42 98.41 774.00 97.19 784.36 98.83 C 770.74 100.31 757.02 99.66 743.36 100.46 C 739.04 100.80 734.71 100.55 730.38 100.66 C 714.28 101.89 698.13 100.86 682.00 101.07 C 672.00 100.57 662.00 101.33 652.00 101.27 C 656.13 102.61 660.13 104.79 664.59 104.63 C 672.98 104.69 681.35 105.17 689.73 105.57 C 689.43 106.70 689.15 107.83 688.87 108.96 C 676.24 108.41 663.44 108.86 650.99 106.29 C 646.99 105.61 642.89 105.88 638.90 105.13 C 629.64 103.27 620.19 105.09 610.85 104.45 C 599.58 104.82 588.30 104.67 577.03 104.82 C 570.32 104.90 563.69 103.50 556.97 103.74 C 548.64 104.08 540.33 102.99 532.00 103.58 C 527.02 103.92 522.05 103.56 517.09 103.14 C 513.46 102.72 509.99 104.09 506.42 104.29 C 493.18 103.34 479.86 103.38 466.62 104.20 C 463.41 104.20 460.23 103.45 457.02 103.67 C 448.40 104.71 439.70 104.12 431.05 104.05 C 421.87 105.24 412.64 103.26 403.47 104.17 C 389.98 103.61 376.49 103.06 362.99 102.75 C 356.71 102.51 350.34 103.46 344.14 102.08 C 349.16 100.55 354.37 99.84 359.58 99.31 C 364.12 98.78 368.54 101.09 373.08 100.11 C 376.99 99.68 380.53 97.85 383.63 95.51 C 381.55 95.04 379.49 94.47 377.44 93.89 Z" />
</g>
<g id="#5a361fff">
<path fill="#5a361f" opacity="1.00" d=" M 113.04 94.93 C 117.66 95.11 122.48 93.25 126.86 95.52 C 130.20 93.20 134.27 94.42 137.99 94.72 C 142.69 95.35 147.32 93.97 152.02 94.03 C 161.04 94.18 170.13 93.27 179.08 94.87 C 188.03 95.09 197.00 95.55 205.95 94.67 C 208.11 94.30 210.25 94.76 212.32 95.39 C 215.12 96.34 218.00 95.12 220.85 95.27 C 223.03 95.64 224.98 96.74 226.97 97.64 C 220.99 98.12 215.01 98.68 209.03 99.00 C 186.35 99.10 163.67 99.26 140.99 99.09 C 134.65 98.77 128.33 99.73 121.98 99.55 C 114.86 99.16 107.74 98.81 100.62 98.53 C 98.71 98.44 97.05 97.44 95.64 96.23 C 101.46 95.97 107.19 94.65 113.04 94.93 Z" />
</g>
<g id="#83573eff">
<path fill="#83573e" opacity="1.00" d=" M 810.73 96.29 C 816.18 96.52 821.62 95.28 827.07 95.95 C 832.15 96.54 837.28 96.54 842.33 97.43 C 839.53 97.95 836.78 98.66 834.12 99.67 C 821.41 99.54 808.70 99.70 795.98 100.03 C 792.88 100.16 789.76 99.98 786.73 99.29 C 794.75 98.48 802.59 95.77 810.73 96.29 Z" />
</g>
<g id="#6e4832ff">
<path fill="#6e4832" opacity="1.00" d=" M 743.36 100.46 C 757.02 99.66 770.74 100.31 784.36 98.83 C 784.95 98.95 786.13 99.17 786.73 99.29 C 789.76 99.98 792.88 100.16 795.98 100.03 C 808.70 99.70 821.41 99.54 834.12 99.67 C 840.34 100.91 846.69 100.88 853.00 100.71 C 859.03 100.52 865.02 101.42 871.02 101.90 L 870.99 103.22 C 864.54 103.41 858.08 102.89 851.63 103.37 C 846.07 103.57 840.53 102.55 834.97 102.92 C 825.95 103.70 816.89 103.22 807.86 103.72 C 816.18 105.37 824.72 104.93 833.12 105.86 C 840.49 106.88 847.95 106.67 855.37 107.06 C 860.59 107.38 865.80 107.97 871.00 108.63 C 871.00 109.87 871.00 111.11 871.03 112.36 C 868.51 111.91 865.98 112.31 863.53 112.87 C 850.36 112.56 837.16 112.32 824.01 113.24 C 808.16 113.17 792.30 113.48 776.45 113.48 C 765.48 113.10 754.50 113.58 743.54 113.07 C 746.99 112.48 750.49 112.06 754.01 112.21 C 765.65 112.54 777.30 112.23 788.94 112.35 C 792.43 112.41 795.93 112.11 799.36 111.41 C 796.32 110.62 793.21 110.09 790.06 110.09 C 768.49 109.69 746.90 109.40 725.35 108.42 C 719.96 108.00 714.68 105.34 709.25 106.90 C 706.32 104.85 702.70 105.61 699.38 105.57 C 696.16 105.58 692.94 105.53 689.73 105.57 C 681.35 105.17 672.98 104.69 664.59 104.63 C 660.13 104.79 656.13 102.61 652.00 101.27 C 662.00 101.33 672.00 100.57 682.00 101.07 C 698.13 100.86 714.28 101.89 730.38 100.66 C 734.71 100.55 739.04 100.80 743.36 100.46 Z" />
</g>
<g id="#895b35ff">
<path fill="#895b35" opacity="1.00" d=" M 242.95 102.05 C 248.93 101.28 254.95 100.87 260.88 102.23 C 276.55 101.10 292.32 102.67 307.96 100.99 C 317.29 100.52 326.63 100.96 335.95 100.66 C 338.72 100.69 341.84 100.14 344.14 102.08 C 337.69 101.83 331.41 104.18 324.95 103.12 C 315.67 103.54 306.34 103.05 297.12 104.39 C 293.66 104.84 290.16 104.62 286.69 104.44 C 282.02 104.18 277.33 104.81 272.67 104.30 C 265.83 103.52 258.93 103.87 252.06 104.04 C 243.38 104.35 234.69 103.89 226.03 104.42 C 211.03 106.31 195.87 105.14 180.80 105.48 C 162.87 106.25 144.90 105.36 126.96 105.90 C 122.65 106.17 118.32 106.14 114.01 105.73 C 109.54 105.26 105.14 106.67 100.66 106.38 C 95.09 106.10 89.51 106.06 83.94 106.17 C 80.60 105.85 78.56 108.90 76.26 110.76 C 77.83 110.92 79.41 111.08 80.99 111.23 C 79.99 111.71 78.99 112.20 78.00 112.69 C 84.14 114.92 90.68 112.61 96.93 114.12 C 97.70 113.66 98.47 113.19 99.25 112.73 C 102.45 113.55 105.78 113.79 109.03 113.16 C 115.49 112.05 122.08 112.53 128.55 113.25 C 129.83 114.12 130.90 116.08 132.69 115.40 C 136.31 114.28 139.95 115.35 143.60 115.44 C 153.37 114.60 163.19 114.26 173.00 114.12 C 180.42 113.86 187.74 115.69 195.17 115.23 C 199.24 114.89 203.03 116.71 207.04 117.01 C 209.47 116.84 211.73 115.85 214.02 115.06 C 221.38 117.75 229.30 116.70 236.96 116.82 C 246.98 116.74 257.00 116.91 267.02 116.75 C 274.67 116.18 282.36 115.12 290.03 116.14 C 300.51 117.62 311.39 112.19 321.56 116.39 C 324.31 117.26 327.20 116.34 330.00 116.17 C 335.66 115.40 341.35 116.70 347.02 115.98 C 350.03 115.65 353.11 115.04 356.10 115.90 C 360.64 117.16 365.34 116.09 369.95 116.05 C 376.63 115.76 383.37 117.37 389.97 115.68 C 396.07 114.11 402.25 116.47 408.38 115.41 C 411.80 114.86 415.27 115.14 418.65 115.86 C 418.31 115.45 417.64 114.63 417.31 114.22 C 424.17 113.56 431.09 111.94 437.99 113.13 C 441.78 113.80 445.61 113.27 449.33 112.41 C 455.86 111.83 462.35 114.03 468.86 112.77 C 474.91 111.79 480.93 113.81 486.99 113.22 C 493.62 112.61 500.27 112.64 506.89 111.89 C 512.70 112.16 518.52 110.81 524.30 111.84 C 526.85 112.22 529.42 112.58 532.01 112.50 C 547.32 112.00 562.65 112.58 577.96 112.18 C 586.96 111.30 596.03 111.22 605.04 112.05 C 611.66 112.67 618.32 111.99 624.95 112.57 C 630.62 113.16 636.35 111.91 641.99 113.00 C 647.65 114.20 653.29 112.47 658.97 112.53 C 668.98 112.60 679.01 112.74 689.00 111.84 C 693.90 111.36 699.01 112.13 703.72 110.32 C 700.07 109.65 696.38 109.31 692.68 109.13 C 698.75 108.76 704.90 108.00 710.92 109.29 C 716.53 110.02 721.65 112.68 727.26 113.42 C 724.20 113.46 721.15 113.63 718.11 113.64 C 714.72 113.67 711.12 113.35 708.08 115.15 C 703.23 118.00 697.26 116.03 692.29 118.44 C 693.09 118.64 694.69 119.06 695.49 119.26 C 694.11 120.10 692.74 120.94 691.38 121.79 C 695.92 122.19 700.48 122.97 704.36 125.51 C 690.89 125.87 677.41 125.38 663.94 125.58 C 659.67 125.65 655.38 125.71 651.12 125.42 C 649.90 124.28 648.76 122.94 647.02 122.68 C 642.29 121.18 637.36 120.58 632.44 120.20 C 621.62 118.54 610.77 116.23 599.76 116.74 C 587.87 116.22 576.04 117.74 564.16 117.59 C 548.09 117.62 532.10 120.25 516.01 119.72 C 510.00 119.58 504.06 121.02 498.06 120.49 C 493.93 120.08 489.83 120.86 485.85 121.83 C 485.66 121.26 485.29 120.11 485.10 119.54 C 483.96 120.19 482.83 120.84 481.71 121.51 C 475.41 122.42 469.11 120.62 462.80 121.36 C 455.91 122.15 448.96 121.49 442.06 122.14 C 433.41 122.97 424.71 122.54 416.04 122.69 C 395.03 123.06 374.02 122.44 353.02 122.81 C 348.70 122.87 344.32 122.12 340.07 123.18 C 335.88 124.79 331.72 121.86 327.46 123.11 C 329.27 123.74 331.12 124.24 332.96 124.80 C 326.41 124.98 319.84 124.60 313.43 123.18 C 305.43 121.28 297.18 121.49 289.03 121.78 C 279.94 121.48 270.92 122.84 261.90 123.70 C 257.73 124.40 254.08 121.50 249.93 121.78 C 240.91 122.12 231.83 121.18 222.85 122.43 C 213.04 123.64 203.14 121.73 193.34 123.08 C 182.54 123.54 171.80 121.28 161.00 122.01 C 147.44 122.30 133.83 122.29 120.35 120.75 C 111.90 120.86 103.25 122.56 94.95 120.19 C 88.60 118.41 81.94 120.39 75.56 118.77 C 72.31 117.70 69.27 119.56 66.11 119.96 C 62.46 119.72 58.96 118.11 55.25 118.54 C 50.30 118.96 45.19 120.19 40.32 118.59 C 36.55 117.32 32.87 115.77 29.02 114.71 C 28.98 111.78 28.98 108.86 29.03 105.93 C 32.10 104.99 35.12 103.85 38.27 103.22 C 43.64 102.08 49.00 105.21 54.33 103.54 C 58.45 102.33 62.74 103.10 66.84 103.97 C 66.34 103.51 65.35 102.60 64.85 102.15 C 67.02 101.91 69.20 101.74 71.39 101.61 C 71.49 102.14 71.70 103.18 71.80 103.71 C 78.99 104.45 85.77 100.42 92.92 101.99 C 98.86 102.96 104.91 102.18 110.87 102.99 C 120.24 104.13 129.68 103.44 139.03 102.61 C 162.11 102.71 185.20 102.71 208.28 102.39 C 219.84 102.20 231.40 102.32 242.95 102.05 Z" />
</g>
<g id="#9e6d44ff">
<path fill="#9e6d44" opacity="1.00" d=" M 324.95 103.12 C 331.41 104.18 337.69 101.83 344.14 102.08 C 350.34 103.46 356.71 102.51 362.99 102.75 C 376.49 103.06 389.98 103.61 403.47 104.17 C 397.42 106.24 390.99 104.79 384.76 105.56 C 397.53 106.63 410.40 105.96 423.21 106.47 C 423.93 107.60 424.66 108.73 425.39 109.87 C 429.38 110.31 433.20 108.97 437.11 108.51 C 441.31 109.11 446.06 109.36 449.33 112.41 C 445.61 113.27 441.78 113.80 437.99 113.13 C 431.09 111.94 424.17 113.56 417.31 114.22 C 417.64 114.63 418.31 115.45 418.65 115.86 C 415.27 115.14 411.80 114.86 408.38 115.41 C 402.25 116.47 396.07 114.11 389.97 115.68 C 383.37 117.37 376.63 115.76 369.95 116.05 C 365.34 116.09 360.64 117.16 356.10 115.90 C 353.11 115.04 350.03 115.65 347.02 115.98 C 341.35 116.70 335.66 115.40 330.00 116.17 C 327.20 116.34 324.31 117.26 321.56 116.39 C 311.39 112.19 300.51 117.62 290.03 116.14 C 282.36 115.12 274.67 116.18 267.02 116.75 C 257.00 116.91 246.98 116.74 236.96 116.82 C 229.30 116.70 221.38 117.75 214.02 115.06 C 211.73 115.85 209.47 116.84 207.04 117.01 C 203.03 116.71 199.24 114.89 195.17 115.23 C 187.74 115.69 180.42 113.86 173.00 114.12 C 163.19 114.26 153.37 114.60 143.60 115.44 C 139.95 115.35 136.31 114.28 132.69 115.40 C 130.90 116.08 129.83 114.12 128.55 113.25 C 122.08 112.53 115.49 112.05 109.03 113.16 C 105.78 113.79 102.45 113.55 99.25 112.73 C 98.47 113.19 97.70 113.66 96.93 114.12 C 90.68 112.61 84.14 114.92 78.00 112.69 C 78.99 112.20 79.99 111.71 80.99 111.23 C 79.41 111.08 77.83 110.92 76.26 110.76 C 78.56 108.90 80.60 105.85 83.94 106.17 C 89.51 106.06 95.09 106.10 100.66 106.38 C 105.14 106.67 109.54 105.26 114.01 105.73 C 118.32 106.14 122.65 106.17 126.96 105.90 C 144.90 105.36 162.87 106.25 180.80 105.48 C 195.87 105.14 211.03 106.31 226.03 104.42 C 234.69 103.89 243.38 104.35 252.06 104.04 C 258.93 103.87 265.83 103.52 272.67 104.30 C 277.33 104.81 282.02 104.18 286.69 104.44 C 290.16 104.62 293.66 104.84 297.12 104.39 C 306.34 103.05 315.67 103.54 324.95 103.12 Z" />
</g>
<g id="#997259ff">
<path fill="#997259" opacity="1.00" d=" M 506.42 104.29 C 509.99 104.09 513.46 102.72 517.09 103.14 C 522.05 103.56 527.02 103.92 532.00 103.58 C 540.33 102.99 548.64 104.08 556.97 103.74 C 563.69 103.50 570.32 104.90 577.03 104.82 C 588.30 104.67 599.58 104.82 610.85 104.45 C 620.19 105.09 629.64 103.27 638.90 105.13 C 642.89 105.88 646.99 105.61 650.99 106.29 C 663.44 108.86 676.24 108.41 688.87 108.96 C 690.13 109.03 691.40 109.09 692.68 109.13 C 696.38 109.31 700.07 109.65 703.72 110.32 C 699.01 112.13 693.90 111.36 689.00 111.84 C 679.01 112.74 668.98 112.60 658.97 112.53 C 653.29 112.47 647.65 114.20 641.99 113.00 C 636.35 111.91 630.62 113.16 624.95 112.57 C 618.32 111.99 611.66 112.67 605.04 112.05 C 596.03 111.22 586.96 111.30 577.96 112.18 C 562.65 112.58 547.32 112.00 532.01 112.50 C 529.42 112.58 526.85 112.22 524.30 111.84 C 518.52 110.81 512.70 112.16 506.89 111.89 C 500.27 112.64 493.62 112.61 486.99 113.22 C 480.93 113.81 474.91 111.79 468.86 112.77 C 462.35 114.03 455.86 111.83 449.33 112.41 C 446.06 109.36 441.31 109.11 437.11 108.51 C 433.20 108.97 429.38 110.31 425.39 109.87 C 424.66 108.73 423.93 107.60 423.21 106.47 C 410.40 105.96 397.53 106.63 384.76 105.56 C 390.99 104.79 397.42 106.24 403.47 104.17 C 412.64 103.26 421.87 105.24 431.05 104.05 C 439.70 104.12 448.40 104.71 457.02 103.67 C 460.23 103.45 463.41 104.20 466.62 104.20 C 479.86 103.38 493.18 103.34 506.42 104.29 Z" />
</g>
<g id="#391c0eff">
<path fill="#391c0e" opacity="1.00" d=" M 807.86 103.72 C 816.89 103.22 825.95 103.70 834.97 102.92 C 840.53 102.55 846.07 103.57 851.63 103.37 C 855.57 104.90 859.75 105.70 863.99 105.44 C 861.06 105.63 858.18 106.24 855.37 107.06 C 847.95 106.67 840.49 106.88 833.12 105.86 C 824.72 104.93 816.18 105.37 807.86 103.72 Z" />
</g>
<g id="#4f2c18ff">
<path fill="#4f2c18" opacity="1.00" d=" M 851.63 103.37 C 858.08 102.89 864.54 103.41 870.99 103.22 C 870.99 105.02 870.99 106.82 871.00 108.63 C 865.80 107.97 860.59 107.38 855.37 107.06 C 858.18 106.24 861.06 105.63 863.99 105.44 C 859.75 105.70 855.57 104.90 851.63 103.37 Z" />
</g>
<g id="#865b42ff">
<path fill="#865b42" opacity="1.00" d=" M 689.73 105.57 C 692.94 105.53 696.16 105.58 699.38 105.57 C 702.70 105.61 706.32 104.85 709.25 106.90 C 714.68 105.34 719.96 108.00 725.35 108.42 C 746.90 109.40 768.49 109.69 790.06 110.09 C 793.21 110.09 796.32 110.62 799.36 111.41 C 795.93 112.11 792.43 112.41 788.94 112.35 C 777.30 112.23 765.65 112.54 754.01 112.21 C 750.49 112.06 746.99 112.48 743.54 113.07 C 738.12 113.49 732.69 113.40 727.26 113.42 C 721.65 112.68 716.53 110.02 710.92 109.29 C 704.90 108.00 698.75 108.76 692.68 109.13 C 691.40 109.09 690.13 109.03 688.87 108.96 C 689.15 107.83 689.43 106.70 689.73 105.57 Z" />
</g>
<g id="#5e361dff">
<path fill="#5e361d" opacity="1.00" d=" M 863.53 112.87 C 865.98 112.31 868.51 111.91 871.03 112.36 C 870.98 115.50 870.96 118.63 871.00 121.77 C 861.48 121.94 851.97 121.79 842.45 121.57 C 845.92 117.52 851.76 119.61 856.34 118.41 C 860.99 117.09 865.38 114.91 870.22 114.23 C 867.98 113.79 865.77 113.23 863.53 112.87 Z" />
</g>
<g id="#5c2f18ff">
<path fill="#5c2f18" opacity="1.00" d=" M 727.26 113.42 C 732.69 113.40 738.12 113.49 743.54 113.07 C 754.50 113.58 765.48 113.10 776.45 113.48 C 767.30 115.59 757.88 115.73 748.56 116.43 C 745.21 116.50 742.72 118.81 740.49 121.02 C 742.69 125.07 747.90 123.89 751.64 125.37 C 738.11 125.63 724.58 125.53 711.05 125.55 C 710.62 125.02 709.76 123.97 709.33 123.44 C 710.59 119.64 714.43 118.37 717.85 117.19 C 717.45 116.52 717.05 115.86 716.67 115.19 C 717.03 114.80 717.75 114.03 718.11 113.64 C 721.15 113.63 724.20 113.46 727.26 113.42 Z" />
</g>
<g id="#4f200dff">
<path fill="#4f200d" opacity="1.00" d=" M 776.45 113.48 C 792.30 113.48 808.16 113.17 824.01 113.24 C 837.16 112.32 850.36 112.56 863.53 112.87 C 865.77 113.23 867.98 113.79 870.22 114.23 C 865.38 114.91 860.99 117.09 856.34 118.41 C 851.76 119.61 845.92 117.52 842.45 121.57 C 851.97 121.79 861.48 121.94 871.00 121.77 C 871.00 122.70 870.98 124.55 870.97 125.48 C 831.19 125.07 791.41 125.93 751.64 125.37 C 747.90 123.89 742.69 125.07 740.49 121.02 C 742.72 118.81 745.21 116.50 748.56 116.43 C 757.88 115.73 767.30 115.59 776.45 113.48 Z" />
</g>
<g id="#714323ff">
<path fill="#714323" opacity="1.00" d=" M 708.08 115.15 C 711.12 113.35 714.72 113.67 718.11 113.64 C 717.75 114.03 717.03 114.80 716.67 115.19 C 717.05 115.86 717.45 116.52 717.85 117.19 C 714.43 118.37 710.59 119.64 709.33 123.44 C 709.76 123.97 710.62 125.02 711.05 125.55 C 708.81 125.57 706.59 125.56 704.36 125.51 C 700.48 122.97 695.92 122.19 691.38 121.79 C 692.74 120.94 694.11 120.10 695.49 119.26 C 694.69 119.06 693.09 118.64 692.29 118.44 C 697.26 116.03 703.23 118.00 708.08 115.15 Z" />
</g>
<g id="#754a23ff">
<path fill="#754a23" opacity="1.00" d=" M 29.02 114.71 C 32.87 115.77 36.55 117.32 40.32 118.59 C 45.19 120.19 50.30 118.96 55.25 118.54 C 58.96 118.11 62.46 119.72 66.11 119.96 C 69.27 119.56 72.31 117.70 75.56 118.77 C 81.94 120.39 88.60 118.41 94.95 120.19 C 103.25 122.56 111.90 120.86 120.35 120.75 C 133.83 122.29 147.44 122.30 161.00 122.01 C 171.80 121.28 182.54 123.54 193.34 123.08 C 203.14 121.73 213.04 123.64 222.85 122.43 C 231.83 121.18 240.91 122.12 249.93 121.78 C 254.08 121.50 257.73 124.40 261.90 123.70 C 270.92 122.84 279.94 121.48 289.03 121.78 C 297.18 121.49 305.43 121.28 313.43 123.18 C 316.21 124.79 319.07 126.40 322.28 126.96 C 319.64 127.15 316.74 126.40 314.33 127.81 C 296.23 128.06 278.12 127.92 260.01 127.94 C 257.78 128.05 255.35 127.52 253.36 128.81 C 251.45 128.73 248.58 129.76 247.41 127.78 C 246.33 129.52 244.26 128.89 242.61 128.86 C 241.36 127.67 239.62 127.74 238.36 128.87 C 236.77 128.93 235.18 128.93 233.59 128.90 C 232.54 127.84 231.46 127.82 230.36 128.86 C 221.24 129.06 212.11 128.98 202.99 128.96 C 201.68 128.86 200.47 129.14 199.35 129.80 C 180.90 130.08 162.45 129.96 144.00 129.99 C 142.68 129.87 141.47 130.15 140.35 130.83 C 127.23 131.04 114.12 130.98 101.00 130.98 C 98.78 131.10 96.32 130.49 94.35 131.85 C 90.19 132.03 86.01 132.00 81.84 131.93 C 84.13 131.09 86.17 129.72 88.05 128.19 C 79.72 127.37 71.34 127.78 62.98 127.76 C 56.24 127.95 49.55 126.91 42.87 126.21 C 38.12 125.81 33.74 123.70 29.00 123.29 C 29.01 120.43 29.04 117.57 29.02 114.71 Z" />
</g>
<g id="#643c1cff">
<path fill="#643c1c" opacity="1.00" d=" M 564.16 117.59 C 576.04 117.74 587.87 116.22 599.76 116.74 C 605.06 118.95 610.30 121.67 616.24 121.48 C 612.15 122.01 608.05 122.44 604.03 123.37 C 593.91 126.18 583.32 124.61 572.97 124.92 C 566.92 124.46 560.57 126.02 554.77 123.76 C 555.52 123.47 557.00 122.88 557.75 122.59 C 556.80 122.15 555.87 121.71 554.95 121.27 C 558.05 120.31 561.27 119.84 564.52 119.66 C 564.43 119.14 564.25 118.11 564.16 117.59 Z" />
</g>
<g id="#724a2aff">
<path fill="#724a2a" opacity="1.00" d=" M 599.76 116.74 C 610.77 116.23 621.62 118.54 632.44 120.20 C 637.36 120.58 642.29 121.18 647.02 122.68 C 648.76 122.94 649.90 124.28 651.12 125.42 C 635.76 125.96 620.40 125.31 605.04 125.76 C 590.71 126.59 576.35 126.46 562.01 126.03 C 523.01 125.82 484.01 126.05 445.01 125.96 C 443.71 125.89 442.49 126.15 441.34 126.75 C 401.66 126.84 361.96 126.97 322.28 126.96 C 319.07 126.40 316.21 124.79 313.43 123.18 C 319.84 124.60 326.41 124.98 332.96 124.80 C 331.12 124.24 329.27 123.74 327.46 123.11 C 331.72 121.86 335.88 124.79 340.07 123.18 C 344.32 122.12 348.70 122.87 353.02 122.81 C 374.02 122.44 395.03 123.06 416.04 122.69 C 424.71 122.54 433.41 122.97 442.06 122.14 C 448.96 121.49 455.91 122.15 462.80 121.36 C 469.11 120.62 475.41 122.42 481.71 121.51 C 482.83 120.84 483.96 120.19 485.10 119.54 C 485.29 120.11 485.66 121.26 485.85 121.83 C 489.83 120.86 493.93 120.08 498.06 120.49 C 504.06 121.02 510.00 119.58 516.01 119.72 C 532.10 120.25 548.09 117.62 564.16 117.59 C 564.25 118.11 564.43 119.14 564.52 119.66 C 561.27 119.84 558.05 120.31 554.95 121.27 C 555.87 121.71 556.80 122.15 557.75 122.59 C 557.00 122.88 555.52 123.47 554.77 123.76 C 560.57 126.02 566.92 124.46 572.97 124.92 C 583.32 124.61 593.91 126.18 604.03 123.37 C 608.05 122.44 612.15 122.01 616.24 121.48 C 610.30 121.67 605.06 118.95 599.76 116.74 Z" />
</g>
<g id="#693f13ff">
<path fill="#693f13" opacity="1.00" d=" M 29.00 123.29 C 33.74 123.70 38.12 125.81 42.87 126.21 C 49.55 126.91 56.24 127.95 62.98 127.76 C 71.34 127.78 79.72 127.37 88.05 128.19 C 86.17 129.72 84.13 131.09 81.84 131.93 C 65.90 132.05 49.95 131.92 34.00 132.03 C 32.48 131.98 30.91 132.10 29.47 131.53 C 28.59 128.88 29.11 126.03 29.00 123.29 Z" />
</g>
<g id="#9e7760ff">
<path fill="#9e7760" opacity="1.00" d=" M 605.04 125.76 C 620.40 125.31 635.76 125.96 651.12 125.42 C 655.38 125.71 659.67 125.65 663.94 125.58 C 677.41 125.38 690.89 125.87 704.36 125.51 C 706.59 125.56 708.81 125.57 711.05 125.55 C 724.58 125.53 738.11 125.63 751.64 125.37 C 791.41 125.93 831.19 125.07 870.97 125.48 C 870.98 126.11 871.00 127.37 871.01 128.00 C 781.23 127.63 691.44 128.09 601.66 127.87 C 600.55 127.18 599.35 126.86 598.05 126.91 C 586.02 126.81 573.99 126.97 561.97 127.01 L 562.01 126.03 C 576.35 126.46 590.71 126.59 605.04 125.76 Z" />
</g>
</svg>
